<svg xmlns="http://www.w3.org/2000/svg" width="33" height="33" viewBox="0 0 33 33" fill="none">
  <path d="M16.5174 32.0129C15.142 32.006 13.7707 31.8625 12.4237 31.5843C11.5018 31.3412 10.5939 31.0479 9.70401 30.7057C8.79818 30.2799 7.9182 29.8012 7.06864 29.272C5.27866 28.0033 3.73663 26.4169 2.51914 24.5914C2.00985 23.7492 1.5803 22.866 1.1519 21.9816L0.676786 20.614C0.48841 19.7023 0.300793 18.7906 0.113937 17.8789C0.123408 17.4203 0.0852241 16.962 0 16.5113L0.0170933 15.1517C0.209647 13.2678 0.586772 11.4262 1.32167 9.67223L1.49144 9.24943C2.00074 8.34682 2.49636 7.43624 3.10706 6.59404C4.20541 5.07944 5.56468 3.83379 7.06751 2.73517C7.94573 2.18925 8.8537 1.69273 9.78718 1.24792C10.129 1.13395 10.4628 1.02569 10.7967 0.906022C12.2026 0.397737 13.6713 0.20058 15.1422 0.014816L16.5095 0C18.3737 0.133489 20.2112 0.519557 21.9716 1.14763L24.5921 2.50837C26.4119 3.73305 27.9946 5.27756 29.2636 7.06699C29.7928 7.91647 30.2718 8.79627 30.698 9.70187C31.0404 10.5916 31.3378 11.498 31.589 12.4177C31.6703 12.8735 31.7516 13.3256 31.8328 13.7739L31.9935 15.1528L32.0117 16.5204C31.9282 16.9713 31.89 17.4295 31.8978 17.888L31.6699 19.2556C31.3987 20.1673 31.1279 21.079 30.8575 21.9907C30.6426 22.4466 30.4276 22.9025 30.2127 23.3583C29.5427 24.4535 28.8807 25.551 28.0296 26.5232C26.6943 28.048 25.098 29.2378 23.3434 30.2282L21.9762 30.8732L19.2417 31.6846L17.8744 31.9126C17.4199 31.9 16.9652 31.9336 16.5174 32.0129ZM12.4157 16.0361C12.3337 16.1238 12.2471 16.223 12.1548 16.3164C10.4959 17.9803 8.85062 19.6545 7.16891 21.2978C6.83507 21.6249 6.87951 21.7936 7.18372 22.0956C8.118 23.0073 9.03368 23.9369 9.93074 24.8843C10.1985 25.1658 10.3477 25.1898 10.636 24.8969C12.2983 23.2056 13.9903 21.544 15.6492 19.8539C15.9341 19.5633 16.0845 19.5804 16.3591 19.8539C18.01 21.5292 19.6894 23.1771 21.3347 24.857C21.6423 25.1715 21.8052 25.1465 22.0889 24.857C23.0004 23.9145 23.9119 22.9834 24.861 22.0774C25.1698 21.7811 25.1652 21.6215 24.861 21.3263C23.1941 19.6921 21.5569 18.0213 19.8945 16.3928C19.5709 16.0759 19.5835 15.9084 19.9002 15.595C21.5796 13.9482 23.2295 12.2706 24.9032 10.6193C25.1516 10.3743 25.1573 10.2409 24.9032 9.99476C23.9378 9.05568 22.9883 8.10141 22.0548 7.13195C21.7802 6.84476 21.6195 6.84704 21.3438 7.13195C19.7191 8.78103 18.067 10.4028 16.4445 12.0575C16.1084 12.3994 15.9329 12.4518 15.5661 12.0746C13.9402 10.4005 12.2721 8.76963 10.6326 7.10688C10.3922 6.86413 10.2714 6.83906 10.0162 7.10118C9.07621 8.06418 8.118 9.01238 7.13473 9.93208C6.80431 10.2398 6.86128 10.3959 7.14954 10.6808C8.81074 12.3174 10.4537 13.9744 12.099 15.6281C12.2243 15.7386 12.3906 15.8252 12.4191 16.0361H12.4157Z" fill="#FE0708"/>
  <path d="M12.4192 16.036C12.3885 15.8252 12.2244 15.7386 12.1082 15.6224C10.4641 13.9687 8.81996 12.3174 7.15876 10.6751C6.8705 10.3902 6.81695 10.2341 7.14395 9.92637C8.12722 9.00667 9.08087 8.05847 10.0254 7.09547C10.2806 6.83335 10.4014 6.85842 10.6418 7.10116C12.2814 8.76278 13.946 10.3948 15.5753 12.0689C15.9422 12.4461 16.1176 12.3949 16.4537 12.0518C18.0728 10.397 19.7249 8.77532 21.353 7.12624C21.6287 6.84588 21.7894 6.8436 22.064 7.12624C22.9968 8.09722 23.9462 9.05149 24.9124 9.98905C25.1654 10.2352 25.1597 10.3685 24.9124 10.6136C23.2387 12.2649 21.5889 13.9425 19.9094 15.5893C19.5927 15.8993 19.5802 16.0668 19.9037 16.3871C21.5706 18.0202 23.2079 19.6864 24.8703 21.3206C25.1745 21.6192 25.179 21.7765 24.8703 22.0717C23.9257 22.9777 23.0051 23.9088 22.0982 24.8513C21.8145 25.1453 21.6515 25.1704 21.3439 24.8513C19.6987 23.1714 18.0192 21.5235 16.3683 19.8482C16.0937 19.569 15.9433 19.5519 15.6585 19.8482C13.9961 21.5383 12.3041 23.1999 10.6452 24.8912C10.357 25.184 10.2077 25.1601 9.93996 24.8786C9.04213 23.9312 8.12646 23.0016 7.19294 22.0899C6.88873 21.7936 6.84429 21.6249 7.17813 21.2921C8.85642 19.6487 10.5051 17.9746 12.164 16.3107C12.2506 16.2229 12.3372 16.1238 12.4192 16.036Z" fill="#FDFDFD"/>
</svg>