<svg xmlns="http://www.w3.org/2000/svg" width="338" height="233" viewBox="0 0 338 233" fill="none">
  <path d="M337.897 150.558C337.898 150.645 337.879 150.731 337.842 150.808C337.804 150.886 337.749 150.952 337.681 151L337.5 151.116C337.388 151.188 337.253 151.21 337.125 151.177C336.997 151.145 336.886 151.061 336.816 150.942C336.749 150.825 336.729 150.684 336.759 150.551C336.79 150.417 336.868 150.302 336.978 150.23L337.14 150.115C337.194 150.076 337.255 150.049 337.319 150.035C337.383 150.022 337.449 150.022 337.513 150.037C337.577 150.051 337.637 150.079 337.691 150.119C337.744 150.159 337.79 150.21 337.825 150.269C337.874 150.356 337.899 150.456 337.897 150.558ZM319.163 158.871C319.162 158.987 319.124 159.1 319.055 159.191C318.986 159.281 318.891 159.345 318.785 159.371H318.586C318.524 159.388 318.458 159.392 318.394 159.382C318.33 159.371 318.269 159.348 318.213 159.312C318.158 159.276 318.11 159.229 318.072 159.173C318.034 159.117 318.007 159.053 317.992 158.986C317.976 158.919 317.972 158.849 317.982 158.781C317.991 158.712 318.014 158.647 318.047 158.588C318.081 158.528 318.125 158.477 318.177 158.436C318.23 158.396 318.289 158.367 318.352 158.351H318.55C318.613 158.334 318.678 158.33 318.742 158.34C318.806 158.35 318.868 158.374 318.923 158.41C318.979 158.446 319.027 158.493 319.065 158.549C319.103 158.605 319.13 158.668 319.145 158.736C319.16 158.779 319.166 158.825 319.163 158.871ZM298.934 161.006C298.925 161.146 298.865 161.276 298.767 161.37C298.67 161.463 298.542 161.512 298.411 161.507H298.213C298.086 161.497 297.967 161.436 297.88 161.336C297.793 161.236 297.745 161.104 297.745 160.968C297.745 160.899 297.758 160.831 297.784 160.767C297.809 160.704 297.847 160.647 297.895 160.6C297.942 160.553 297.998 160.517 298.059 160.494C298.12 160.471 298.185 160.462 298.249 160.468H298.483C298.614 160.482 298.734 160.551 298.818 160.659C298.903 160.766 298.944 160.905 298.934 161.045V161.006ZM278.795 157.793C278.802 157.837 278.802 157.883 278.795 157.928C278.761 158.06 278.68 158.173 278.568 158.241C278.457 158.31 278.325 158.329 278.2 158.293H278.002C277.94 158.276 277.881 158.245 277.829 158.203C277.778 158.161 277.734 158.108 277.702 158.049C277.669 157.989 277.648 157.923 277.639 157.854C277.63 157.785 277.634 157.716 277.651 157.649C277.668 157.582 277.696 157.519 277.736 157.464C277.775 157.409 277.824 157.362 277.88 157.327C277.936 157.293 277.998 157.27 278.062 157.261C278.126 157.251 278.192 157.256 278.254 157.273H278.453C278.56 157.312 278.652 157.388 278.714 157.489C278.776 157.59 278.805 157.711 278.795 157.831V157.793ZM259.827 149.942C259.85 150.023 259.85 150.11 259.827 150.192C259.797 150.253 259.755 150.307 259.705 150.351C259.655 150.395 259.597 150.428 259.535 150.448C259.473 150.467 259.408 150.473 259.344 150.466C259.279 150.458 259.217 150.437 259.16 150.404L258.998 150.307C258.881 150.246 258.792 150.138 258.749 150.006C258.707 149.874 258.716 149.73 258.773 149.605C258.83 149.48 258.932 149.384 259.055 149.339C259.178 149.294 259.314 149.303 259.431 149.364L259.629 149.461C259.702 149.521 259.759 149.601 259.793 149.692C259.828 149.783 259.84 149.883 259.827 149.98V149.942ZM242.57 138.396C242.57 138.515 242.532 138.63 242.462 138.723C242.368 138.821 242.242 138.875 242.111 138.875C241.98 138.875 241.854 138.821 241.759 138.723L241.615 138.588C241.561 138.55 241.514 138.5 241.479 138.441C241.444 138.383 241.42 138.317 241.41 138.248C241.4 138.179 241.403 138.109 241.42 138.042C241.437 137.974 241.466 137.911 241.507 137.857C241.545 137.801 241.592 137.754 241.647 137.717C241.702 137.681 241.763 137.657 241.827 137.646C241.891 137.636 241.956 137.638 242.018 137.655C242.081 137.671 242.14 137.701 242.192 137.742L242.372 137.876C242.461 137.928 242.534 138.007 242.582 138.103C242.63 138.198 242.651 138.307 242.642 138.415L242.57 138.396ZM227.061 124.233C227.059 124.337 227.029 124.438 226.974 124.524C226.92 124.61 226.843 124.677 226.754 124.718C226.664 124.759 226.566 124.771 226.47 124.753C226.374 124.735 226.285 124.688 226.214 124.618L226.07 124.464C225.98 124.367 225.929 124.235 225.929 124.098C225.929 123.961 225.98 123.83 226.07 123.733C226.115 123.682 226.17 123.642 226.23 123.614C226.29 123.587 226.355 123.572 226.421 123.572C226.487 123.572 226.552 123.587 226.612 123.614C226.672 123.642 226.727 123.682 226.772 123.733L226.916 123.887C226.961 123.931 226.997 123.985 227.022 124.044C227.046 124.104 227.06 124.168 227.061 124.233ZM213.046 108.415C213.05 108.524 213.022 108.632 212.965 108.723C212.909 108.814 212.827 108.884 212.731 108.922C212.635 108.96 212.531 108.966 212.432 108.937C212.333 108.908 212.246 108.847 212.181 108.762L212.055 108.608C211.964 108.507 211.913 108.373 211.913 108.232C211.913 108.092 211.964 107.958 212.055 107.857C212.101 107.807 212.155 107.766 212.216 107.739C212.276 107.711 212.341 107.697 212.407 107.697C212.472 107.697 212.537 107.711 212.598 107.739C212.658 107.766 212.713 107.807 212.758 107.857L212.884 108.011C212.943 108.065 212.989 108.133 213.017 108.211C213.046 108.288 213.056 108.371 213.046 108.454V108.415ZM200.113 91.5776C200.115 91.6555 200.1 91.733 200.069 91.8034C200.038 91.8738 199.991 91.935 199.932 91.9817C199.881 92.0267 199.822 92.06 199.758 92.0796C199.694 92.0992 199.627 92.1047 199.562 92.0957C199.496 92.0867 199.432 92.0634 199.375 92.0273C199.318 91.9911 199.269 91.9429 199.23 91.8855L199.104 91.7315C199.023 91.6189 198.988 91.477 199.005 91.3366C199.022 91.1961 199.09 91.0684 199.194 90.9811C199.245 90.9391 199.303 90.9083 199.365 90.8904C199.427 90.8726 199.491 90.868 199.555 90.8769C199.618 90.8859 199.68 90.9082 199.735 90.9425C199.791 90.9769 199.839 91.0227 199.878 91.0773L200.022 91.2504C200.096 91.355 200.128 91.4863 200.113 91.6161V91.5776ZM187.719 74.2589C187.725 74.342 187.71 74.4252 187.675 74.4997C187.64 74.5742 187.587 74.6373 187.521 74.6822C187.43 74.7786 187.307 74.8326 187.179 74.8326C187.051 74.8326 186.928 74.7786 186.837 74.6822L186.711 74.509C186.671 74.4548 186.643 74.3928 186.626 74.3266C186.609 74.2604 186.605 74.1914 186.613 74.1234C186.621 74.0554 186.642 73.9898 186.675 73.9305C186.707 73.8712 186.75 73.8193 186.801 73.7778C186.852 73.7328 186.911 73.6994 186.975 73.6798C187.039 73.6602 187.106 73.6548 187.171 73.6638C187.237 73.6728 187.301 73.6961 187.358 73.7323C187.415 73.7684 187.464 73.8166 187.503 73.874L187.629 74.0472C187.681 74.1198 187.712 74.2065 187.719 74.2973V74.2589ZM175.272 56.9401C175.27 57.0219 175.251 57.1022 175.217 57.1754C175.183 57.2485 175.134 57.3127 175.074 57.3635C174.968 57.4493 174.836 57.4872 174.704 57.4692C174.573 57.4512 174.453 57.3787 174.371 57.2673L174.263 57.094C174.173 56.9968 174.123 56.8654 174.123 56.7285C174.123 56.5915 174.173 56.4601 174.263 56.3629C174.309 56.3122 174.363 56.2719 174.424 56.2444C174.484 56.2168 174.549 56.2027 174.615 56.2027C174.68 56.2027 174.745 56.2168 174.806 56.2444C174.866 56.2719 174.92 56.3122 174.966 56.3629L175.092 56.536C175.165 56.5957 175.22 56.6761 175.252 56.768C175.284 56.8599 175.291 56.9596 175.272 57.0556V56.9401ZM162.14 40.2564C162.144 40.3655 162.116 40.4733 162.059 40.5643C162.003 40.6553 161.921 40.7248 161.825 40.7632C161.729 40.8015 161.625 40.8067 161.526 40.7779C161.428 40.7491 161.34 40.6878 161.276 40.6028L161.15 40.4681C161.068 40.362 161.027 40.2266 161.036 40.0895C161.045 39.9524 161.102 39.8241 161.196 39.7307C161.291 39.6373 161.415 39.586 161.543 39.5871C161.672 39.5882 161.795 39.6418 161.888 39.7368L162.032 39.91C162.078 39.9755 162.111 40.0501 162.13 40.1294C162.148 40.2087 162.152 40.2911 162.14 40.3719V40.2564ZM148.288 29.9421C148.286 30.0518 148.255 30.1586 148.198 30.25L148.072 30.4425C147.988 30.5325 147.876 30.5877 147.757 30.5983C147.639 30.609 147.52 30.5744 147.423 30.5006C147.326 30.4268 147.256 30.3186 147.227 30.1952C147.197 30.0719 147.209 29.9413 147.261 29.8267L147.369 29.6535C147.406 29.596 147.452 29.5468 147.506 29.5088C147.561 29.4707 147.621 29.4447 147.685 29.4321C147.749 29.4196 147.814 29.4208 147.878 29.4356C147.941 29.4505 148.001 29.4788 148.054 29.5188C148.123 29.5632 148.18 29.6251 148.221 29.699C148.262 29.7729 148.285 29.8564 148.288 29.9421ZM139.462 49.5123C139.467 49.557 139.467 49.6023 139.462 49.647H138.975L139.408 49.9357C139.356 50.052 139.267 50.1446 139.156 50.1968C139.046 50.2489 138.922 50.2572 138.806 50.2199C138.691 50.1827 138.592 50.1025 138.527 49.9938C138.462 49.8852 138.436 49.7553 138.453 49.6278V49.4931C138.491 49.3541 138.578 49.2363 138.695 49.1645C138.813 49.0927 138.952 49.0725 139.083 49.1082C139.169 49.126 139.249 49.1673 139.315 49.228C139.382 49.2887 139.432 49.3668 139.462 49.4546V49.5123ZM135.427 70.8143V71.0068C135.413 71.1464 135.349 71.2747 135.248 71.3646C135.147 71.4544 135.017 71.4986 134.886 71.4879C134.759 71.4687 134.643 71.3982 134.563 71.2909C134.482 71.1836 134.443 71.0476 134.454 70.9106V70.6797C134.476 70.5566 134.537 70.4456 134.628 70.3657C134.718 70.2859 134.832 70.2422 134.949 70.2422C135.066 70.2422 135.18 70.2859 135.271 70.3657C135.361 70.4456 135.422 70.5566 135.445 70.6797L135.427 70.8143ZM134.346 114.573C134.346 114.716 134.293 114.853 134.198 114.954C134.103 115.055 133.975 115.112 133.841 115.112C133.708 115.112 133.579 115.055 133.485 114.954C133.39 114.853 133.337 114.716 133.337 114.573V114.361C133.348 114.226 133.403 114.098 133.491 114C133.58 113.902 133.697 113.84 133.823 113.823C133.954 113.822 134.08 113.877 134.174 113.974C134.268 114.07 134.323 114.203 134.328 114.342L134.346 114.573ZM134.346 92.559V92.7899C134.346 92.8598 134.333 92.929 134.307 92.9933C134.281 93.0576 134.244 93.1158 134.197 93.1643C134.15 93.2128 134.094 93.2506 134.033 93.2756C133.972 93.3005 133.907 93.312 133.841 93.3095C133.712 93.3095 133.589 93.2547 133.497 93.1573C133.406 93.0599 133.355 92.9277 133.355 92.7899V92.5782C133.36 92.4387 133.415 92.3065 133.509 92.2096C133.603 92.1127 133.729 92.0586 133.859 92.0587C133.967 92.0704 134.069 92.1203 134.147 92.2005C134.225 92.2807 134.276 92.3866 134.292 92.5013L134.346 92.559ZM134.039 136.144V136.375C134.053 136.453 134.051 136.534 134.033 136.61C134.014 136.687 133.98 136.759 133.933 136.82C133.886 136.881 133.826 136.93 133.759 136.964C133.692 136.998 133.618 137.016 133.544 137.016C133.47 137.016 133.397 136.998 133.329 136.964C133.262 136.93 133.203 136.881 133.155 136.82C133.108 136.759 133.074 136.687 133.056 136.61C133.037 136.534 133.035 136.453 133.049 136.375V136.183C133.053 136.043 133.109 135.911 133.203 135.814C133.297 135.717 133.422 135.663 133.553 135.663C133.658 135.677 133.755 135.725 133.833 135.801C133.91 135.877 133.964 135.977 133.985 136.087L134.039 136.144ZM132.671 157.87V158.139C132.657 158.279 132.593 158.407 132.492 158.497C132.391 158.587 132.261 158.631 132.13 158.62C132.001 158.601 131.884 158.532 131.8 158.425C131.717 158.318 131.674 158.182 131.68 158.043V157.831C131.698 157.694 131.763 157.568 131.863 157.479C131.963 157.39 132.09 157.344 132.22 157.35C132.324 157.371 132.419 157.427 132.491 157.51C132.562 157.594 132.606 157.7 132.616 157.812L132.671 157.87ZM130.275 179.499V179.595V179.788C130.257 179.927 130.188 180.054 130.084 180.14C129.979 180.227 129.847 180.266 129.716 180.25C129.651 180.243 129.588 180.222 129.531 180.187C129.474 180.153 129.424 180.106 129.385 180.05C129.346 179.993 129.318 179.929 129.304 179.861C129.29 179.792 129.289 179.722 129.302 179.653V179.422C129.328 179.284 129.402 179.162 129.509 179.08C129.616 178.998 129.748 178.962 129.878 178.98C129.971 179.013 130.053 179.074 130.114 179.156C130.175 179.238 130.212 179.337 130.221 179.441L130.275 179.499ZM126.87 200.994C126.868 201.026 126.868 201.058 126.87 201.09V201.301C126.844 201.438 126.769 201.558 126.662 201.637C126.554 201.716 126.422 201.747 126.294 201.725C126.168 201.693 126.058 201.612 125.985 201.498C125.912 201.384 125.881 201.246 125.897 201.109V200.878C125.929 200.754 126.001 200.646 126.1 200.574C126.199 200.501 126.32 200.469 126.439 200.483C126.559 200.497 126.67 200.556 126.752 200.65C126.834 200.743 126.883 200.865 126.888 200.994H126.87ZM122.439 222.257C122.446 222.302 122.446 222.347 122.439 222.392V222.584C122.427 222.653 122.401 222.718 122.363 222.776C122.326 222.833 122.278 222.881 122.222 222.918C122.166 222.954 122.103 222.977 122.038 222.986C121.973 222.995 121.907 222.989 121.844 222.969C121.781 222.953 121.722 222.924 121.67 222.884C121.617 222.843 121.573 222.792 121.539 222.732C121.506 222.673 121.484 222.608 121.474 222.539C121.465 222.471 121.468 222.401 121.484 222.334V222.122C121.501 221.985 121.568 221.86 121.671 221.775C121.774 221.69 121.905 221.652 122.034 221.67C122.163 221.688 122.28 221.76 122.359 221.87C122.438 221.98 122.474 222.119 122.457 222.257H122.439ZM115.234 232.417C115.236 232.503 115.219 232.587 115.184 232.664C115.15 232.741 115.099 232.808 115.035 232.86C114.981 232.901 114.92 232.929 114.855 232.944C114.79 232.959 114.723 232.961 114.658 232.948C114.593 232.936 114.53 232.91 114.475 232.871C114.419 232.833 114.371 232.783 114.333 232.725L114.225 232.533C114.189 232.476 114.165 232.412 114.152 232.345C114.14 232.278 114.14 232.209 114.152 232.142C114.165 232.075 114.19 232.011 114.225 231.955C114.261 231.898 114.307 231.849 114.36 231.811C114.413 231.773 114.473 231.747 114.536 231.734C114.598 231.72 114.663 231.721 114.726 231.734C114.788 231.747 114.848 231.774 114.901 231.812C114.954 231.85 115 231.899 115.035 231.956L115.144 232.129C115.194 232.195 115.225 232.275 115.234 232.36V232.417ZM105.236 213.482C105.235 213.583 105.208 213.682 105.157 213.767C105.106 213.852 105.033 213.92 104.948 213.963C104.889 213.992 104.825 214.008 104.76 214.01C104.696 214.012 104.631 214 104.571 213.975C104.51 213.949 104.455 213.912 104.408 213.863C104.362 213.815 104.325 213.758 104.299 213.694L104.209 213.502C104.183 213.438 104.168 213.37 104.166 213.301C104.164 213.232 104.175 213.163 104.199 213.098C104.222 213.034 104.258 212.975 104.303 212.925C104.348 212.876 104.402 212.836 104.462 212.809C104.519 212.777 104.582 212.758 104.647 212.753C104.711 212.749 104.776 212.758 104.837 212.782C104.898 212.805 104.954 212.842 105.001 212.89C105.048 212.938 105.085 212.995 105.11 213.059L105.2 213.251C105.217 213.308 105.229 213.366 105.236 213.425V213.482ZM98.0308 193.123C98.0347 193.235 98.003 193.346 97.9409 193.437C97.8788 193.527 97.7899 193.593 97.6886 193.623C97.6284 193.647 97.5642 193.658 97.5001 193.654C97.436 193.65 97.3732 193.633 97.3158 193.602C97.2583 193.571 97.2074 193.528 97.1662 193.476C97.125 193.423 97.0943 193.362 97.0761 193.296V193.065C97.057 192.998 97.0507 192.928 97.0577 192.858C97.0647 192.789 97.0848 192.721 97.1167 192.66C97.1487 192.599 97.1919 192.546 97.2437 192.503C97.2955 192.46 97.355 192.429 97.4184 192.411C97.5449 192.375 97.6795 192.393 97.7938 192.462C97.9081 192.53 97.9931 192.643 98.0308 192.777V192.969C98.0231 193.003 98.011 193.035 97.9948 193.065L98.0308 193.123ZM93.1131 171.956C93.1117 172.077 93.0718 172.195 92.9998 172.289C92.9279 172.384 92.8281 172.449 92.7169 172.475C92.6542 172.489 92.5895 172.49 92.5265 172.477C92.4636 172.465 92.4036 172.439 92.35 172.401C92.2965 172.364 92.2504 172.315 92.2144 172.259C92.1784 172.202 92.1533 172.138 92.1405 172.071V171.84C92.1192 171.703 92.1485 171.562 92.2224 171.447C92.2963 171.332 92.409 171.253 92.5368 171.225C92.6007 171.211 92.6666 171.211 92.7306 171.225C92.7946 171.239 92.8552 171.266 92.909 171.306C92.9628 171.345 93.0086 171.396 93.0437 171.455C93.0787 171.513 93.1024 171.579 93.1131 171.648V171.84C93.125 171.871 93.1312 171.904 93.1312 171.937L93.1131 171.956ZM89.9969 150.423C89.9748 150.546 89.9132 150.657 89.8228 150.737C89.7324 150.817 89.6188 150.86 89.5015 150.86C89.3842 150.86 89.2706 150.817 89.1801 150.737C89.0897 150.657 89.0282 150.546 89.0061 150.423V150.192C88.996 150.122 88.9993 150.051 89.0158 149.983C89.0323 149.914 89.0617 149.85 89.1022 149.794C89.1427 149.738 89.1933 149.692 89.2511 149.658C89.3089 149.624 89.3727 149.602 89.4385 149.595C89.5705 149.589 89.7002 149.634 89.8031 149.723C89.9061 149.811 89.975 149.937 89.9969 150.076V150.346V150.423ZM88.1955 128.717C88.1918 128.852 88.1423 128.981 88.0562 129.08C87.97 129.179 87.8531 129.242 87.7272 129.255C87.5963 129.261 87.4687 129.212 87.3712 129.118C87.2737 129.025 87.214 128.895 87.2048 128.755V128.524C87.2044 128.388 87.2526 128.256 87.3396 128.156C87.4265 128.056 87.5457 127.995 87.6731 127.985C87.7385 127.98 87.8041 127.989 87.8661 128.012C87.9282 128.034 87.9853 128.07 88.0341 128.117C88.0829 128.163 88.1223 128.22 88.1501 128.284C88.1778 128.347 88.1933 128.416 88.1955 128.486V128.717ZM87.2228 106.914C87.2231 107.051 87.1749 107.182 87.088 107.282C87.0011 107.382 86.8819 107.443 86.7544 107.453C86.6891 107.458 86.6235 107.449 86.5614 107.427C86.4994 107.404 86.4423 107.369 86.3935 107.322C86.3447 107.275 86.3052 107.218 86.2775 107.155C86.2498 107.091 86.2343 107.023 86.2321 106.953V106.722C86.232 106.582 86.2826 106.448 86.3734 106.348C86.4641 106.247 86.5878 106.188 86.7184 106.183C86.7829 106.178 86.8477 106.187 86.9087 106.209C86.9698 106.232 87.0258 106.268 87.0732 106.315C87.1205 106.362 87.1583 106.419 87.184 106.483C87.2098 106.546 87.223 106.614 87.2228 106.683V106.914ZM86.5023 85.1504C86.4978 85.2867 86.4451 85.4161 86.3548 85.5125C86.2646 85.6089 86.1434 85.6652 86.0159 85.67C85.9514 85.6753 85.8866 85.6663 85.8256 85.6435C85.7645 85.6208 85.7086 85.5848 85.6612 85.5378C85.6138 85.4908 85.5761 85.4338 85.5503 85.3705C85.5246 85.3071 85.5113 85.2388 85.5115 85.1697V84.9387C85.5336 84.8157 85.5951 84.7047 85.6855 84.6248C85.776 84.545 85.8896 84.5013 86.0069 84.5013C86.1242 84.5013 86.2378 84.545 86.3282 84.6248C86.4186 84.7047 86.4802 84.8157 86.5023 84.9387V85.1697V85.1504ZM85.4575 63.3866C85.4576 63.5211 85.4088 63.6504 85.3215 63.7473C85.2341 63.8442 85.115 63.9011 84.9892 63.9061C84.8583 63.9114 84.7306 63.8622 84.6332 63.7689C84.5357 63.6755 84.476 63.5453 84.4668 63.4058V63.2134C84.4656 63.0727 84.5125 62.9364 84.5987 62.8301C84.685 62.7238 84.8046 62.6548 84.9351 62.636C85.0005 62.6308 85.0661 62.6398 85.1281 62.6624C85.1902 62.6849 85.2473 62.7206 85.2961 62.7674C85.3449 62.8141 85.3843 62.8708 85.4121 62.9343C85.4398 62.9977 85.4552 63.0664 85.4575 63.1364V63.3866ZM83.5661 41.6996C83.5664 41.831 83.5201 41.9577 83.4366 42.0541C83.353 42.1505 83.2384 42.2095 83.1158 42.2192C83.0514 42.2301 82.9857 42.2265 82.9227 42.2086C82.8598 42.1908 82.801 42.1591 82.7501 42.1157C82.6993 42.0722 82.6575 42.0179 82.6274 41.9562C82.5973 41.8945 82.5796 41.8268 82.5754 41.7574V41.565C82.5653 41.4952 82.5685 41.4239 82.5851 41.3555C82.6016 41.2872 82.631 41.2232 82.6714 41.1673C82.7119 41.1115 82.7625 41.0651 82.8203 41.0309C82.8781 40.9966 82.9419 40.9754 83.0077 40.9684C83.0716 40.9575 83.137 40.9604 83.1999 40.9768C83.2628 40.9933 83.322 41.023 83.374 41.0642C83.426 41.1054 83.4698 41.1573 83.5028 41.2169C83.5358 41.2764 83.5573 41.3424 83.5661 41.411V41.6996ZM80.2336 20.3206C80.2322 20.4423 80.1923 20.5599 80.1203 20.6542C80.0483 20.7486 79.9486 20.8141 79.8373 20.8402C79.7746 20.8542 79.7099 20.8549 79.647 20.8422C79.584 20.8295 79.524 20.8037 79.4705 20.7661C79.4169 20.7286 79.3708 20.68 79.3349 20.6234C79.2989 20.5668 79.2737 20.5031 79.2609 20.4361V20.2244C79.245 20.1561 79.2423 20.085 79.2529 20.0155C79.2635 19.9461 79.2872 19.8797 79.3226 19.8203C79.358 19.7609 79.4043 19.7098 79.4587 19.6701C79.5131 19.6304 79.5745 19.6029 79.6392 19.5894C79.7019 19.5753 79.7665 19.5746 79.8295 19.5873C79.8925 19.6 79.9525 19.6259 80.006 19.6635C80.0596 19.701 80.1057 19.7495 80.1416 19.8061C80.1776 19.8628 80.2027 19.9264 80.2156 19.9935V20.2244L80.2336 20.3206ZM75.0278 1.07758C75.0362 1.11554 75.0362 1.15508 75.0278 1.19304V1.40474C75.013 1.47208 74.9858 1.53558 74.9478 1.59154C74.9098 1.64751 74.8617 1.69482 74.8063 1.73066C74.7509 1.76651 74.6894 1.79019 74.6254 1.80031C74.5613 1.81043 74.496 1.80675 74.4333 1.78957C74.3051 1.7574 74.1938 1.67296 74.1231 1.55431C74.0525 1.43566 74.028 1.29222 74.055 1.15457V0.942867C74.0633 0.874637 74.0841 0.808843 74.1162 0.749192C74.1483 0.68954 74.191 0.637206 74.2421 0.595214C74.2931 0.553223 74.3513 0.522365 74.4135 0.504425C74.4757 0.486486 74.5406 0.481839 74.6044 0.490684C74.6683 0.499528 74.7299 0.521704 74.7858 0.555986C74.8416 0.590268 74.8906 0.635967 74.9299 0.690467C74.9692 0.744966 74.9981 0.807209 75.0149 0.87363C75.0316 0.940051 75.036 1.00935 75.0278 1.07758ZM70.1281 22.2449C70.1281 22.2449 70.1281 22.2449 70.1281 22.3604V22.5913C70.0761 22.7044 69.9885 22.7944 69.8807 22.8457C69.7729 22.897 69.6517 22.9063 69.5382 22.8719C69.4246 22.8376 69.326 22.7618 69.2594 22.6578C69.1927 22.5538 69.1623 22.4281 69.1734 22.3027V22.1102C69.2056 21.9851 69.2788 21.8765 69.3799 21.8045C69.481 21.7325 69.603 21.7018 69.7235 21.7182C69.844 21.7346 69.9549 21.7969 70.0359 21.8937C70.1168 21.9905 70.1624 22.1152 70.1641 22.2449H70.1281ZM64.8322 43.2776C64.841 43.3284 64.841 43.3806 64.8322 43.4315V43.6239C64.7985 43.7564 64.7169 43.8692 64.6056 43.9377C64.4942 44.0063 64.3619 44.0249 64.2377 43.9895C64.1129 43.9532 64.0059 43.8671 63.9388 43.7489C63.8718 43.6308 63.8499 43.4896 63.8775 43.3545V43.1236C63.9188 42.9889 64.0081 42.877 64.1261 42.8122C64.2442 42.7473 64.3813 42.7348 64.5079 42.7773C64.5852 42.8005 64.6557 42.8445 64.7125 42.9051C64.7693 42.9658 64.8105 43.0411 64.8322 43.1236V43.2776ZM59.176 64.214C59.1822 64.2651 59.1822 64.3169 59.176 64.368V64.5603C59.1594 64.6281 59.1302 64.6916 59.0901 64.7469C59.05 64.8023 58.9999 64.8484 58.9427 64.8826C58.8855 64.9167 58.8224 64.9382 58.7573 64.9456C58.6921 64.9531 58.6262 64.9464 58.5635 64.926C58.5018 64.9062 58.4443 64.8736 58.3944 64.8298C58.3446 64.7861 58.3034 64.7322 58.2732 64.6713C58.2431 64.6105 58.2245 64.5438 58.2187 64.4752C58.2129 64.4066 58.2199 64.3374 58.2393 64.2717V64.0601C58.277 63.9261 58.362 63.8131 58.4763 63.7448C58.5906 63.6766 58.7252 63.6586 58.8518 63.6945C58.9288 63.724 58.9984 63.7724 59.0547 63.8359C59.111 63.8994 59.1525 63.9762 59.176 64.0601V64.214ZM53.1235 85.0157C53.1323 85.0666 53.1323 85.1188 53.1235 85.1697V85.3813C53.1094 85.4556 53.0808 85.5258 53.0396 85.5875C52.9983 85.6491 52.9454 85.7008 52.8843 85.7391C52.8231 85.7774 52.755 85.8015 52.6845 85.8098C52.614 85.8181 52.5427 85.8104 52.4751 85.7873C52.4076 85.7642 52.3454 85.7261 52.2926 85.6755C52.2398 85.6249 52.1975 85.5631 52.1686 85.4939C52.1397 85.4247 52.1248 85.3498 52.1248 85.274C52.1248 85.1983 52.1398 85.1234 52.1688 85.0542V84.8618C52.2101 84.7271 52.2994 84.6152 52.4175 84.5503C52.5355 84.4855 52.6727 84.4729 52.7993 84.5154C52.8766 84.5386 52.947 84.5826 53.0038 84.6433C53.0606 84.7039 53.1018 84.7792 53.1235 84.8618V85.0157ZM46.7288 105.702C46.7372 105.759 46.7372 105.818 46.7288 105.875V106.068C46.7103 106.134 46.6797 106.195 46.6388 106.248C46.5978 106.301 46.5474 106.345 46.4904 106.378C46.4334 106.41 46.371 106.43 46.3068 106.436C46.2425 106.442 46.1778 106.435 46.1163 106.414C45.9902 106.37 45.8854 106.274 45.8247 106.148C45.764 106.022 45.7523 105.876 45.7921 105.741V105.529C45.8123 105.462 45.8449 105.401 45.8878 105.348C45.9308 105.295 45.9833 105.253 46.0421 105.222C46.101 105.191 46.1651 105.174 46.2304 105.17C46.2958 105.167 46.3611 105.178 46.4225 105.202C46.4944 105.232 46.559 105.278 46.612 105.338C46.6649 105.398 46.7048 105.47 46.7288 105.548V105.702ZM45.6119 18.8004C45.6119 18.876 45.5976 18.9508 45.5697 19.0203C45.5418 19.0897 45.501 19.1524 45.4498 19.2046L45.2877 19.3392C45.2439 19.3893 45.1909 19.4293 45.132 19.4566C45.0731 19.4839 45.0096 19.498 44.9454 19.498C44.8812 19.498 44.8177 19.4839 44.7589 19.4566C44.7 19.4293 44.647 19.3893 44.6032 19.3392C44.5118 19.2387 44.4608 19.1041 44.4608 18.964C44.4608 18.8239 44.5118 18.6893 44.6032 18.5888L44.7653 18.454C44.8107 18.4034 44.8652 18.3631 44.9256 18.3356C44.986 18.3081 45.0509 18.2938 45.1166 18.2938C45.1822 18.2938 45.2472 18.3081 45.3075 18.3356C45.3679 18.3631 45.4224 18.4034 45.4678 18.454C45.5291 18.5054 45.5784 18.5713 45.6119 18.6465V18.8004ZM39.6495 126.119C39.6657 126.195 39.6657 126.274 39.6495 126.35L39.5594 126.561C39.498 126.685 39.3942 126.778 39.2699 126.821C39.1455 126.864 39.0104 126.854 38.8929 126.792C38.7789 126.73 38.6922 126.623 38.6517 126.493C38.6113 126.364 38.6203 126.222 38.6768 126.1V125.907C38.7038 125.843 38.7428 125.785 38.7914 125.737C38.84 125.689 38.8973 125.652 38.9597 125.629C39.022 125.605 39.0882 125.596 39.1542 125.601C39.2201 125.606 39.2845 125.625 39.3433 125.657C39.4133 125.679 39.4774 125.719 39.5306 125.772C39.5837 125.826 39.6245 125.892 39.6495 125.965V126.119ZM31.2733 34.2526C31.2761 34.3779 31.2379 34.5005 31.1652 34.599L31.0391 34.7529C30.9937 34.8035 30.9392 34.8438 30.8788 34.8714C30.8185 34.8989 30.7535 34.9131 30.6879 34.9131C30.6222 34.9131 30.5573 34.8989 30.4969 34.8714C30.4365 34.8438 30.382 34.8035 30.3366 34.7529C30.2505 34.6534 30.2027 34.5228 30.2027 34.3873C30.2027 34.2518 30.2505 34.1212 30.3366 34.0217L30.4807 33.8292C30.5748 33.7316 30.7008 33.6771 30.832 33.6771C30.9631 33.6771 31.0891 33.7316 31.1832 33.8292C31.2339 33.9095 31.2649 34.0022 31.2733 34.0986V34.2526ZM26.2476 141.86C26.2459 141.966 26.2139 142.068 26.156 142.154C26.098 142.24 26.0168 142.305 25.9233 142.341H25.7072C25.647 142.365 25.5828 142.375 25.5187 142.371C25.4546 142.368 25.3919 142.35 25.3344 142.319C25.277 142.289 25.226 142.246 25.1848 142.193C25.1436 142.14 25.1129 142.079 25.0947 142.014C25.0541 141.881 25.0633 141.736 25.1204 141.611C25.1776 141.485 25.2781 141.388 25.4009 141.34H25.5811C25.6414 141.316 25.7056 141.304 25.7701 141.306C25.8346 141.308 25.898 141.324 25.9567 141.353C26.0153 141.382 26.0681 141.423 26.1119 141.473C26.1556 141.524 26.1895 141.583 26.2116 141.648C26.2246 141.666 26.2366 141.686 26.2476 141.706V141.86ZM19.2764 51.7445C19.2944 51.8332 19.2944 51.9251 19.2764 52.0139L19.1683 52.2064C19.1407 52.2789 19.0986 52.3441 19.045 52.3975C18.9913 52.4509 18.9274 52.4911 18.8578 52.5154C18.7881 52.5397 18.7143 52.5475 18.6415 52.5383C18.5687 52.529 18.4987 52.5029 18.4363 52.4618C18.3739 52.4207 18.3207 52.3655 18.2803 52.3002C18.2399 52.2349 18.2133 52.1609 18.2024 52.0834C18.1915 52.006 18.1965 51.927 18.2171 51.8518C18.2377 51.7767 18.2734 51.7072 18.3217 51.6483L18.4298 51.4751C18.5004 51.3571 18.6101 51.2718 18.7369 51.2362C18.8637 51.2005 18.9984 51.2171 19.1143 51.2827C19.1706 51.3428 19.2142 51.4152 19.2421 51.4948C19.2701 51.5745 19.2818 51.6596 19.2764 51.7445ZM9.99953 71.1222C10.0097 71.1924 10.0097 71.2638 9.99953 71.3339V71.5263C9.97585 71.5917 9.94001 71.6513 9.8942 71.7016C9.84839 71.7518 9.79356 71.7916 9.73297 71.8185C9.67238 71.8455 9.6073 71.8591 9.54166 71.8585C9.47603 71.8579 9.41119 71.8431 9.35105 71.815C9.29046 71.7918 9.23498 71.7555 9.18811 71.7084C9.14124 71.6612 9.10396 71.6043 9.0786 71.5411C9.05325 71.4779 9.04037 71.4098 9.04075 71.341C9.04114 71.2723 9.05477 71.2044 9.08083 71.1415V70.9106C9.10624 70.8469 9.14333 70.7892 9.18989 70.7411C9.23646 70.6929 9.29156 70.6551 9.35198 70.63C9.4124 70.6049 9.47689 70.593 9.54169 70.5949C9.60649 70.5968 9.67029 70.6125 9.72931 70.6412C9.82619 70.6732 9.91128 70.7368 9.97265 70.8231C10.034 70.9093 10.0686 71.0139 10.0716 71.1222H9.99953ZM8.55845 133.585L7.78387 134.239L7.65779 134.066C7.57942 133.951 7.54681 133.808 7.56705 133.667C7.5873 133.527 7.65876 133.4 7.76586 133.316C7.87711 133.239 8.01157 133.21 8.14201 133.235C8.27245 133.26 8.38912 133.337 8.46838 133.45L8.55845 133.585ZM3.69485 91.8085C3.69485 91.8085 3.69485 91.8085 3.69485 91.924V92.1549C3.6801 92.2222 3.6529 92.2858 3.61487 92.3417C3.57684 92.3977 3.52873 92.445 3.47337 92.4808C3.418 92.5167 3.3565 92.5403 3.29245 92.5504C3.22841 92.5606 3.16312 92.5569 3.10041 92.5397C2.97558 92.5035 2.86858 92.4173 2.80152 92.2991C2.73447 92.1809 2.7125 92.0398 2.74015 91.9048V91.693C2.77416 91.5586 2.85398 91.4426 2.96397 91.3678C3.07396 91.2931 3.20615 91.2649 3.33456 91.289C3.45102 91.3105 3.55718 91.3736 3.6357 91.468C3.71423 91.5624 3.76048 91.6824 3.76689 91.8085H3.69485ZM1.89352 113.649C1.87145 113.772 1.80991 113.883 1.7195 113.963C1.62909 114.043 1.51544 114.087 1.39813 114.087C1.28083 114.087 1.1672 114.043 1.07679 113.963C0.986379 113.883 0.924845 113.772 0.902776 113.649V113.418C0.897476 113.282 0.941071 113.148 1.0247 113.044C1.10834 112.941 1.22575 112.875 1.35311 112.86C1.41844 112.852 1.48461 112.859 1.5476 112.879C1.6106 112.899 1.6691 112.933 1.71961 112.977C1.77012 113.022 1.81157 113.078 1.84146 113.14C1.87134 113.203 1.88907 113.271 1.89352 113.341V113.592V113.649Z" fill="#69CBDE"/>
</svg>