<svg xmlns="http://www.w3.org/2000/svg" width="404" height="313" viewBox="0 0 404 313" fill="none">
  <path d="M403.022 3.81785C403.023 3.88692 403.009 3.95529 402.984 4.01864C402.958 4.082 402.92 4.13897 402.873 4.18596C402.825 4.23296 402.769 4.26898 402.708 4.29173C402.647 4.31448 402.582 4.32348 402.518 4.31817H402.302C402.174 4.29989 402.057 4.23367 401.971 4.13138C401.885 4.02909 401.837 3.89745 401.833 3.76012C401.843 3.6206 401.902 3.4904 402 3.39704C402.097 3.30367 402.225 3.25447 402.356 3.25981H402.554C402.685 3.2697 402.806 3.33345 402.894 3.43759C402.981 3.54173 403.027 3.67808 403.022 3.81785ZM382.649 2.79797C382.645 2.93751 382.589 3.06966 382.495 3.16658C382.401 3.26351 382.276 3.31763 382.145 3.31754H381.893C381.762 3.30765 381.64 3.24389 381.553 3.13975C381.465 3.03561 381.419 2.89925 381.424 2.75949C381.434 2.61997 381.493 2.48977 381.591 2.3964C381.688 2.30304 381.816 2.25382 381.947 2.25916H382.145C382.212 2.25336 382.28 2.26331 382.344 2.28834C382.408 2.31336 382.466 2.35286 382.514 2.4041C382.562 2.45534 382.598 2.5171 382.622 2.5851C382.645 2.65311 382.655 2.72574 382.649 2.79797ZM362.276 2.04749C362.276 2.11737 362.263 2.18655 362.237 2.25087C362.212 2.31519 362.174 2.37334 362.127 2.42185C362.08 2.47035 362.024 2.50823 361.963 2.53318C361.902 2.55812 361.837 2.56965 361.772 2.56706H361.556C361.428 2.55731 361.309 2.49627 361.222 2.39626C361.135 2.29625 361.087 2.16472 361.087 2.02824C361.092 1.8887 361.147 1.75656 361.241 1.65964C361.335 1.56272 361.461 1.5086 361.592 1.50869H361.79C361.92 1.51367 362.044 1.57264 362.135 1.67315C362.225 1.77366 362.276 1.90786 362.276 2.04749ZM341.885 1.54717C341.885 1.61705 341.872 1.68622 341.846 1.75055C341.821 1.81487 341.783 1.87303 341.736 1.92154C341.689 1.97005 341.633 2.0079 341.572 2.03285C341.511 2.0578 341.446 2.06932 341.381 2.06674H341.182C341.055 2.06195 340.934 2.00567 340.843 1.90925C340.753 1.81283 340.701 1.68344 340.696 1.54717C340.701 1.40763 340.756 1.27548 340.85 1.17856C340.944 1.08164 341.07 1.02752 341.2 1.02761H341.381C341.511 1.02752 341.637 1.08164 341.731 1.17856C341.825 1.27548 341.88 1.40763 341.885 1.54717ZM321.494 1.29701C321.489 1.43655 321.434 1.56871 321.34 1.66563C321.246 1.76255 321.12 1.81667 320.989 1.81658H320.791C320.661 1.8116 320.537 1.75263 320.446 1.65212C320.356 1.55161 320.305 1.41739 320.305 1.27777C320.305 1.13997 320.356 1.00782 320.447 0.910381C320.539 0.812944 320.662 0.758209 320.791 0.758209H321.007C321.073 0.758161 321.138 0.772217 321.198 0.799522C321.258 0.826828 321.312 0.866817 321.358 0.917119C321.403 0.967422 321.439 1.02699 321.462 1.09227C321.485 1.15754 321.496 1.22718 321.494 1.29701ZM301.103 1.29701C301.103 1.43664 301.052 1.57085 300.961 1.67136C300.871 1.77187 300.747 1.83083 300.616 1.83582H300.4C300.268 1.83102 300.142 1.77272 300.048 1.67269C299.955 1.57267 299.9 1.43839 299.896 1.29701C299.9 1.15747 299.956 1.02532 300.05 0.928395C300.144 0.831474 300.27 0.777367 300.4 0.777457H300.598C300.729 0.777367 300.855 0.831474 300.949 0.928395C301.043 1.02532 301.098 1.15747 301.103 1.29701ZM280.712 1.56641C280.707 1.70779 280.653 1.84207 280.559 1.94209C280.465 2.04212 280.34 2.10042 280.207 2.10522H280.027C279.895 2.10555 279.767 2.05208 279.67 1.95561C279.573 1.85915 279.514 1.72689 279.505 1.58566C279.509 1.44939 279.562 1.32 279.652 1.22358C279.742 1.12716 279.863 1.07088 279.991 1.06609H280.207C280.338 1.066 280.464 1.12012 280.558 1.21704C280.652 1.31396 280.707 1.44612 280.712 1.58566V1.56641ZM260.32 2.10522C260.32 2.24301 260.269 2.37516 260.178 2.4726C260.087 2.57004 259.963 2.62479 259.834 2.62479H259.636C259.503 2.62512 259.376 2.57164 259.279 2.47517C259.182 2.3787 259.123 2.24645 259.114 2.10522C259.118 1.96699 259.17 1.83534 259.26 1.73579C259.349 1.63624 259.471 1.57588 259.6 1.56641H259.798C259.931 1.56608 260.058 1.61956 260.155 1.71603C260.252 1.8125 260.311 1.94475 260.32 2.08598V2.10522ZM239.929 3.02889C239.93 3.16536 239.881 3.29688 239.795 3.39689C239.708 3.4969 239.588 3.55794 239.461 3.56769H239.281C239.215 3.57566 239.149 3.56939 239.086 3.54927C239.023 3.52914 238.965 3.49559 238.914 3.45062C238.864 3.40566 238.822 3.35021 238.792 3.28765C238.763 3.22508 238.745 3.1567 238.74 3.08662C238.735 2.94685 238.781 2.8105 238.869 2.70636C238.956 2.60222 239.078 2.53845 239.209 2.52857H239.425C239.489 2.52325 239.554 2.53225 239.615 2.55501C239.676 2.57776 239.732 2.61377 239.78 2.66077C239.827 2.70777 239.865 2.76474 239.891 2.82809C239.916 2.89145 239.93 2.95982 239.929 3.02889ZM219.772 5.47275C219.764 5.59515 219.719 5.71151 219.645 5.80494C219.57 5.89837 219.47 5.96401 219.358 5.99232H219.142C219.078 6.00321 219.013 6.00033 218.95 5.98388C218.887 5.96742 218.828 5.93772 218.776 5.89649C218.724 5.85527 218.68 5.80336 218.647 5.74381C218.614 5.68426 218.592 5.61827 218.583 5.54972C218.571 5.47999 218.571 5.40817 218.585 5.33871C218.6 5.26925 218.627 5.20363 218.666 5.14591C218.705 5.08819 218.754 5.03961 218.811 5.00315C218.868 4.96669 218.932 4.94313 218.998 4.93395H219.178C219.307 4.9112 219.439 4.9426 219.546 5.02153C219.653 5.10047 219.728 5.2208 219.754 5.3573C219.754 5.3573 219.772 5.43426 219.772 5.47275ZM199.958 10.8416C199.96 10.9508 199.93 11.0579 199.871 11.1477C199.813 11.2376 199.73 11.3055 199.633 11.3419H199.453C199.329 11.3922 199.191 11.388 199.07 11.3304C198.948 11.2727 198.853 11.1662 198.805 11.034C198.763 10.8986 198.772 10.7514 198.829 10.6226C198.886 10.4938 198.987 10.3932 199.111 10.3413H199.291C199.351 10.3167 199.416 10.3052 199.48 10.3074C199.545 10.3096 199.608 10.3255 199.667 10.3541C199.725 10.3828 199.778 10.4236 199.822 10.4743C199.866 10.5249 199.9 10.5844 199.922 10.6491C199.954 10.7068 199.967 10.7749 199.958 10.8416ZM181.944 20.771C181.944 20.853 181.925 20.9338 181.891 21.0071C181.857 21.0805 181.807 21.1445 181.746 21.1943L181.584 21.329C181.53 21.3695 181.468 21.3981 181.404 21.4133C181.339 21.4284 181.272 21.4298 181.207 21.4172C181.141 21.4047 181.079 21.3786 181.023 21.3403C180.967 21.3021 180.919 21.2525 180.882 21.1943C180.844 21.1377 180.818 21.0737 180.804 21.0061C180.79 20.9384 180.789 20.8685 180.8 20.8003C180.812 20.7322 180.837 20.6673 180.872 20.6094C180.908 20.5514 180.954 20.5017 181.008 20.4631L181.17 20.3284C181.223 20.2884 181.283 20.2601 181.346 20.2453C181.409 20.2304 181.475 20.2292 181.539 20.2417C181.602 20.2543 181.663 20.2803 181.717 20.3183C181.772 20.3564 181.818 20.4056 181.854 20.4631C181.918 20.5508 181.95 20.6601 181.944 20.771ZM167.299 35.7998C167.297 35.9154 167.266 36.0283 167.209 36.1269L167.083 36.2809C167.004 36.3953 166.886 36.4716 166.754 36.4933C166.623 36.5149 166.488 36.48 166.381 36.3963C166.276 36.309 166.209 36.1813 166.192 36.0408C166.175 35.9004 166.21 35.7585 166.291 35.6458L166.417 35.4727C166.478 35.3808 166.565 35.3125 166.665 35.2781C166.765 35.2438 166.874 35.2451 166.973 35.282C167.073 35.3189 167.158 35.3894 167.217 35.4827C167.276 35.5761 167.305 35.6874 167.299 35.7998ZM157.104 54.6003C157.121 54.6631 157.121 54.7298 157.104 54.7927V55.0043C157.078 55.0681 157.041 55.1257 156.995 55.1739C156.948 55.222 156.893 55.2598 156.833 55.2849C156.772 55.31 156.708 55.3219 156.643 55.32C156.578 55.3181 156.514 55.3024 156.455 55.2738C156.335 55.2185 156.239 55.1152 156.189 54.9859C156.138 54.8566 156.137 54.7113 156.185 54.581V54.3886C156.237 54.2598 156.334 54.1577 156.455 54.1038C156.576 54.0499 156.712 54.0485 156.834 54.0999C156.902 54.1593 156.954 54.2367 156.986 54.3244C157.018 54.4122 157.027 54.5073 157.014 54.6003H157.104ZM151.123 184.125C151.123 184.263 151.072 184.395 150.981 184.493C150.89 184.59 150.766 184.645 150.637 184.645C150.572 184.647 150.507 184.636 150.445 184.611C150.384 184.586 150.329 184.548 150.281 184.5C150.234 184.451 150.197 184.393 150.171 184.329C150.146 184.264 150.133 184.195 150.133 184.125V183.913C150.119 183.836 150.121 183.755 150.139 183.678C150.158 183.602 150.192 183.53 150.239 183.469C150.287 183.408 150.346 183.358 150.413 183.325C150.48 183.291 150.554 183.273 150.628 183.273C150.702 183.273 150.776 183.291 150.843 183.325C150.91 183.358 150.969 183.408 151.017 183.469C151.064 183.53 151.098 183.602 151.117 183.678C151.135 183.755 151.137 183.836 151.123 183.913V184.125ZM150.997 75.3442C150.997 75.3442 150.997 75.3442 150.997 75.4597V75.6714C150.967 75.8083 150.888 75.9272 150.777 76.0027C150.666 76.0782 150.532 76.1043 150.403 76.0755C150.34 76.0617 150.281 76.0349 150.228 75.9964C150.174 75.958 150.129 75.9088 150.094 75.8516C150.059 75.7943 150.035 75.7303 150.023 75.663C150.011 75.5958 150.011 75.5267 150.025 75.4597V75.2288C150.056 75.1048 150.128 74.9968 150.227 74.9244C150.326 74.8519 150.447 74.8198 150.566 74.8337C150.686 74.8476 150.797 74.9067 150.879 75.0004C150.961 75.094 151.01 75.2159 151.015 75.3442H150.997ZM150.691 205.677V205.928C150.687 205.998 150.669 206.067 150.639 206.131C150.61 206.195 150.568 206.251 150.518 206.298C150.468 206.344 150.41 206.38 150.347 206.402C150.284 206.424 150.217 206.433 150.151 206.428C150.022 206.409 149.904 206.339 149.821 206.232C149.738 206.126 149.695 205.989 149.7 205.851V205.639C149.702 205.57 149.718 205.502 149.746 205.439C149.774 205.377 149.814 205.321 149.863 205.276C149.912 205.231 149.969 205.197 150.031 205.176C150.093 205.156 150.158 205.15 150.223 205.158C150.332 205.184 150.43 205.251 150.499 205.345C150.568 205.44 150.604 205.557 150.601 205.677H150.691ZM150.079 162.361C150.079 162.498 150.031 162.629 149.944 162.729C149.857 162.829 149.738 162.89 149.61 162.9C149.545 162.905 149.479 162.896 149.417 162.874C149.355 162.851 149.298 162.816 149.249 162.769C149.201 162.722 149.161 162.665 149.133 162.602C149.106 162.538 149.09 162.47 149.088 162.4V162.188C149.074 162.11 149.076 162.03 149.095 161.953C149.113 161.876 149.147 161.805 149.195 161.743C149.242 161.682 149.301 161.633 149.368 161.599C149.436 161.565 149.509 161.548 149.583 161.548C149.658 161.548 149.731 161.565 149.798 161.599C149.865 161.633 149.925 161.682 149.972 161.743C150.019 161.805 150.053 161.876 150.072 161.953C150.09 162.03 150.093 162.11 150.079 162.188V162.419V162.361ZM148.511 140.636C148.517 140.771 148.472 140.902 148.388 141.003C148.304 141.103 148.187 141.165 148.061 141.175C147.928 141.18 147.799 141.132 147.698 141.039C147.598 140.946 147.534 140.816 147.521 140.674V140.463C147.516 140.323 147.562 140.187 147.649 140.082C147.737 139.978 147.858 139.915 147.989 139.905C148.054 139.899 148.118 139.908 148.179 139.931C148.24 139.954 148.296 139.99 148.344 140.037C148.391 140.084 148.429 140.141 148.455 140.204C148.48 140.268 148.494 140.336 148.493 140.405V140.636H148.511ZM148.025 96.8964V97.1466C148.023 97.2166 148.007 97.2853 147.98 97.3487C147.952 97.4122 147.912 97.4689 147.864 97.5157C147.815 97.5624 147.758 97.5981 147.696 97.6207C147.634 97.6432 147.568 97.6522 147.503 97.6469C147.374 97.6279 147.256 97.5582 147.173 97.4514C147.09 97.3446 147.047 97.2085 147.052 97.0696V96.858C147.07 96.7203 147.136 96.5947 147.235 96.5057C147.335 96.4167 147.463 96.3708 147.593 96.3769C147.696 96.4108 147.785 96.4802 147.847 96.5743C147.909 96.6683 147.94 96.7816 147.935 96.8964H148.025ZM147.719 227.21C147.727 227.248 147.727 227.288 147.719 227.326V227.557C147.685 227.69 147.604 227.804 147.494 227.876C147.383 227.948 147.251 227.971 147.124 227.942C147.061 227.926 147.002 227.897 146.95 227.856C146.897 227.816 146.853 227.764 146.819 227.705C146.786 227.646 146.764 227.58 146.754 227.512C146.745 227.443 146.748 227.374 146.764 227.307V227.095C146.794 226.958 146.873 226.839 146.984 226.764C147.095 226.688 147.23 226.662 147.359 226.691C147.463 226.724 147.555 226.793 147.62 226.886C147.685 226.98 147.72 227.094 147.719 227.21ZM147.413 118.891C147.391 119.014 147.329 119.125 147.239 119.205C147.148 119.285 147.035 119.329 146.917 119.329C146.8 119.329 146.686 119.285 146.596 119.205C146.506 119.125 146.444 119.014 146.422 118.891V118.66C146.408 118.582 146.41 118.502 146.429 118.425C146.447 118.348 146.481 118.277 146.529 118.216C146.576 118.155 146.635 118.105 146.702 118.071C146.77 118.038 146.843 118.02 146.917 118.02C146.992 118.02 147.065 118.038 147.132 118.071C147.199 118.105 147.259 118.155 147.306 118.216C147.353 118.277 147.387 118.348 147.406 118.425C147.424 118.502 147.427 118.582 147.413 118.66V118.853V118.891ZM138.028 240.95C138.036 241.001 138.036 241.053 138.028 241.104C138.011 241.171 137.982 241.234 137.942 241.289C137.902 241.344 137.851 241.389 137.793 241.422C137.736 241.454 137.672 241.474 137.607 241.479C137.542 241.483 137.477 241.474 137.415 241.45H137.235C137.108 241.406 137.002 241.311 136.939 241.186C136.875 241.061 136.859 240.914 136.893 240.777C136.938 240.645 137.028 240.536 137.145 240.472C137.262 240.408 137.397 240.393 137.523 240.43H137.722C137.818 240.471 137.899 240.543 137.954 240.637C138.009 240.73 138.035 240.84 138.028 240.95ZM119.402 232.194C119.425 232.276 119.425 232.363 119.402 232.444C119.372 232.506 119.33 232.56 119.28 232.604C119.23 232.648 119.172 232.68 119.11 232.7C119.048 232.72 118.983 232.726 118.919 232.718C118.854 232.711 118.792 232.69 118.735 232.656L118.555 232.541C118.498 232.509 118.447 232.464 118.406 232.41C118.365 232.356 118.336 232.294 118.319 232.227C118.302 232.16 118.298 232.09 118.308 232.021C118.317 231.953 118.34 231.887 118.375 231.829C118.405 231.767 118.447 231.713 118.497 231.669C118.547 231.626 118.605 231.593 118.667 231.573C118.729 231.553 118.794 231.547 118.858 231.555C118.923 231.562 118.985 231.583 119.042 231.617H119.204C119.274 231.675 119.329 231.752 119.364 231.84C119.398 231.927 119.411 232.023 119.402 232.117V232.194ZM102.361 220.244C102.357 220.357 102.319 220.465 102.253 220.552C102.216 220.608 102.168 220.656 102.113 220.692C102.058 220.728 101.997 220.752 101.934 220.763C101.87 220.774 101.805 220.771 101.742 220.755C101.68 220.738 101.621 220.709 101.569 220.668L101.407 220.533C101.352 220.495 101.306 220.445 101.27 220.386C101.235 220.328 101.211 220.262 101.201 220.193C101.191 220.124 101.194 220.054 101.211 219.986C101.228 219.919 101.258 219.856 101.298 219.802C101.336 219.746 101.384 219.698 101.438 219.662C101.493 219.626 101.554 219.602 101.618 219.591C101.682 219.58 101.747 219.583 101.81 219.6C101.872 219.616 101.931 219.645 101.983 219.686L102.145 219.821C102.203 219.858 102.253 219.908 102.29 219.968C102.327 220.028 102.352 220.096 102.361 220.167V220.244ZM92.7421 311.668C92.7447 311.732 92.7348 311.796 92.7131 311.855C92.6914 311.915 92.6584 311.969 92.616 312.014C92.5722 312.065 92.5192 312.104 92.4604 312.132C92.4015 312.159 92.338 312.173 92.2738 312.173C92.2096 312.173 92.1461 312.159 92.0872 312.132C92.0283 312.104 91.9753 312.065 91.9315 312.014L91.7694 311.88C91.7074 311.839 91.6543 311.784 91.614 311.719C91.5736 311.655 91.5469 311.581 91.5357 311.504C91.5244 311.427 91.5289 311.349 91.5489 311.274C91.5688 311.199 91.6036 311.129 91.6511 311.07C91.6985 311.011 91.7573 310.964 91.8236 310.931C91.8898 310.899 91.9619 310.882 92.0347 310.882C92.1076 310.882 92.1796 310.899 92.2457 310.932C92.3119 310.965 92.3706 311.012 92.4179 311.072L92.562 311.225C92.6156 311.268 92.6595 311.323 92.6907 311.387C92.7218 311.45 92.7394 311.52 92.7421 311.591V311.668ZM86.3294 206.755C86.3319 206.819 86.3221 206.883 86.3004 206.942C86.2787 207.002 86.2456 207.056 86.2033 207.101C86.1579 207.152 86.1033 207.192 86.043 207.22C85.9826 207.247 85.9176 207.262 85.852 207.262C85.7864 207.262 85.7214 207.247 85.661 207.22C85.6007 207.192 85.5462 207.152 85.5008 207.101L85.3747 206.986C85.2833 206.885 85.2322 206.751 85.2322 206.611C85.2322 206.471 85.2833 206.336 85.3747 206.235C85.4201 206.185 85.4746 206.144 85.535 206.117C85.5953 206.089 85.6603 206.075 85.7259 206.075C85.7916 206.075 85.8565 206.089 85.9169 206.117C85.9772 206.144 86.0318 206.185 86.0772 206.235L86.2393 206.389C86.2978 206.473 86.3294 206.574 86.3294 206.678V206.755ZM77.791 296.755C77.7858 296.857 77.7534 296.955 77.6977 297.039C77.642 297.122 77.5653 297.186 77.4764 297.225C77.3876 297.263 77.2904 297.274 77.1962 297.255C77.102 297.237 77.0146 297.19 76.9444 297.12L76.8003 296.986C76.7391 296.942 76.6875 296.885 76.6492 296.818C76.611 296.751 76.5869 296.675 76.5787 296.597C76.5705 296.519 76.5784 296.44 76.6018 296.366C76.6252 296.291 76.6636 296.223 76.7142 296.166C76.7649 296.109 76.8266 296.065 76.8951 296.036C76.9635 296.007 77.037 295.995 77.1104 295.999C77.1838 296.004 77.2553 296.026 77.32 296.063C77.3847 296.101 77.4409 296.153 77.4848 296.216L77.6469 296.389C77.7383 296.486 77.7901 296.617 77.791 296.755ZM70.4596 192.958C70.4565 193.055 70.4289 193.149 70.3799 193.23C70.3309 193.312 70.2622 193.378 70.1811 193.421C70.0999 193.464 70.0094 193.484 69.9189 193.476C69.8284 193.469 69.7414 193.436 69.667 193.381L69.5049 193.246C69.4006 193.159 69.3326 193.031 69.3158 192.891C69.2989 192.75 69.3345 192.609 69.4148 192.496C69.4537 192.441 69.5023 192.396 69.5578 192.361C69.6133 192.327 69.6747 192.304 69.7383 192.296C69.802 192.287 69.8666 192.291 69.9286 192.309C69.9905 192.327 70.0486 192.358 70.0993 192.4L70.2614 192.534C70.3263 192.589 70.3781 192.66 70.4126 192.74C70.447 192.82 70.4631 192.908 70.4596 192.996V192.958ZM63.7586 280.956C63.7553 281.033 63.7376 281.108 63.7067 281.178C63.6758 281.247 63.6322 281.309 63.5785 281.36C63.4844 281.458 63.3584 281.512 63.2272 281.512C63.0961 281.512 62.9701 281.458 62.8759 281.36L62.7679 281.206C62.7205 281.158 62.6827 281.1 62.657 281.035C62.6312 280.971 62.6179 280.901 62.6179 280.831C62.6179 280.761 62.6312 280.692 62.657 280.627C62.6827 280.563 62.7205 280.504 62.7679 280.456C62.862 280.358 62.988 280.304 63.1191 280.304C63.2503 280.304 63.3763 280.358 63.4704 280.456L63.6145 280.629C63.7002 280.73 63.751 280.859 63.7586 280.995V280.956ZM53.7432 180.488C53.7694 180.576 53.7694 180.67 53.7432 180.758C53.6727 180.876 53.5617 180.96 53.4339 180.993C53.306 181.025 53.1714 181.003 53.0587 180.931L52.8966 180.835C52.7988 180.755 52.7317 180.64 52.7079 180.511C52.684 180.382 52.705 180.248 52.767 180.135C52.8289 180.021 52.9276 179.936 53.0443 179.895C53.161 179.854 53.2879 179.859 53.4009 179.911L53.5811 180.046C53.6433 180.105 53.6907 180.18 53.7189 180.264C53.7472 180.348 53.7556 180.438 53.7432 180.527V180.488ZM50.6809 264.234C50.675 264.395 50.6103 264.547 50.5008 264.657C50.3953 264.743 50.2625 264.781 50.1311 264.763C49.9996 264.745 49.88 264.673 49.7983 264.561L49.6722 264.388C49.63 264.333 49.5988 264.27 49.5805 264.202C49.5621 264.134 49.557 264.062 49.5654 263.992C49.5739 263.922 49.5957 263.854 49.6295 263.793C49.6634 263.732 49.7085 263.679 49.7622 263.637C49.8131 263.594 49.872 263.562 49.935 263.544C49.9981 263.526 50.0639 263.523 50.1284 263.533C50.1928 263.544 50.2544 263.569 50.3093 263.607C50.3641 263.645 50.4109 263.695 50.4467 263.753L50.5728 263.907C50.6512 264.01 50.6898 264.14 50.6809 264.272V264.234ZM38.6119 246.665C38.6141 246.75 38.5972 246.835 38.5628 246.912C38.5283 246.989 38.4773 247.056 38.4138 247.108C38.3026 247.185 38.1681 247.213 38.0377 247.188C37.9072 247.163 37.7905 247.086 37.7113 246.973L37.6032 246.781C37.5315 246.666 37.5055 246.525 37.5309 246.39C37.5562 246.254 37.6308 246.135 37.7383 246.059C37.8458 245.982 37.9773 245.955 38.104 245.982C38.2307 246.009 38.3422 246.088 38.4138 246.203L38.5399 246.376C38.6027 246.479 38.6283 246.602 38.6119 246.723V246.665ZM35.6217 170.54C35.6301 170.603 35.6301 170.668 35.6217 170.732C35.57 170.861 35.4733 170.963 35.3523 171.017C35.2312 171.071 35.0953 171.072 34.9733 171.021H34.7931C34.7319 170.995 34.6761 170.957 34.6291 170.908C34.5821 170.859 34.5449 170.801 34.5196 170.736C34.4944 170.671 34.4816 170.602 34.4822 170.532C34.4828 170.461 34.4966 170.392 34.5229 170.328C34.5466 170.262 34.5824 170.203 34.6282 170.153C34.674 170.102 34.7289 170.063 34.7895 170.036C34.8501 170.009 34.9152 169.995 34.9808 169.996C35.0464 169.996 35.1113 170.011 35.1714 170.039H35.3515C35.4424 170.089 35.5168 170.168 35.5651 170.264C35.6133 170.36 35.6331 170.47 35.6217 170.578V170.54ZM27.6238 228.269C27.6249 228.363 27.602 228.456 27.5576 228.537C27.5132 228.618 27.4489 228.685 27.3716 228.731C27.2589 228.803 27.1243 228.825 26.9964 228.792C26.8686 228.76 26.7576 228.676 26.6871 228.557L26.597 228.365C26.5296 228.244 26.5088 228.101 26.5391 227.964C26.5694 227.828 26.6483 227.709 26.7592 227.634C26.8741 227.563 27.0103 227.544 27.1383 227.58C27.2664 227.616 27.3761 227.704 27.4437 227.826L27.5517 227.999C27.6058 228.112 27.6307 228.238 27.6238 228.365V228.269ZM17.7165 209.237C17.7112 209.353 17.6712 209.464 17.6025 209.553C17.5338 209.642 17.44 209.706 17.335 209.734C17.23 209.762 17.1193 209.753 17.0193 209.709C16.9193 209.664 16.8353 209.587 16.7798 209.487V209.372C16.7145 209.244 16.6988 209.094 16.7358 208.954C16.7728 208.813 16.8597 208.694 16.9779 208.622C17.0288 208.584 17.0865 208.559 17.1472 208.548C17.2079 208.536 17.2702 208.539 17.3299 208.555C17.3897 208.572 17.4454 208.602 17.4934 208.643C17.5414 208.684 17.5806 208.736 17.6084 208.795L17.7165 208.987C17.7521 209.099 17.7521 209.221 17.7165 209.334V209.237ZM15.9151 164.805C15.9014 164.945 15.8373 165.073 15.7364 165.163C15.6355 165.253 15.5057 165.297 15.3747 165.286H15.1586C15.0933 165.279 15.0301 165.258 14.9731 165.224C14.916 165.189 14.8664 165.143 14.8273 165.086C14.7883 165.03 14.7607 164.966 14.7464 164.897C14.7321 164.829 14.7313 164.758 14.7442 164.69C14.7508 164.622 14.7702 164.556 14.8013 164.497C14.8324 164.437 14.8746 164.385 14.9252 164.344C14.9758 164.303 15.0338 164.273 15.0956 164.256C15.1574 164.239 15.2217 164.236 15.2846 164.247H15.4828C15.5607 164.242 15.6386 164.257 15.7104 164.289C15.7821 164.322 15.8458 164.372 15.8965 164.435C15.9471 164.499 15.9833 164.574 16.0021 164.655C16.021 164.736 16.0221 164.82 16.0052 164.901L15.9151 164.805ZM9.016 189.648C9.01256 189.753 8.98222 189.856 8.92824 189.944C8.87426 190.032 8.79871 190.103 8.70978 190.148C8.58777 190.2 8.45181 190.198 8.33074 190.144C8.20968 190.09 8.11304 189.988 8.0613 189.86V189.667C8.03133 189.606 8.01361 189.538 8.00927 189.469C8.00492 189.4 8.01405 189.331 8.03606 189.266C8.05807 189.201 8.09248 189.141 8.13713 189.091C8.18178 189.041 8.23572 189.001 8.29548 188.974C8.41786 188.921 8.55469 188.919 8.67839 188.969C8.80209 189.019 8.90343 189.117 8.96196 189.244V189.436C8.99442 189.502 9.01287 189.574 9.016 189.648ZM1.4504 169.423C1.44984 169.532 1.41857 169.638 1.36071 169.727C1.30285 169.816 1.22109 169.885 1.12614 169.924C1.06472 169.948 0.999373 169.959 0.934012 169.955C0.868651 169.952 0.804625 169.934 0.745759 169.904C0.686893 169.873 0.634395 169.83 0.591424 169.777C0.548452 169.725 0.515904 169.663 0.495689 169.597V169.404C0.450304 169.274 0.455162 169.13 0.509212 169.004C0.563263 168.877 0.662057 168.779 0.783882 168.731C0.905707 168.682 1.04059 168.687 1.15882 168.745C1.27706 168.803 1.36898 168.908 1.41436 169.039V169.25C1.41688 169.309 1.41081 169.367 1.39636 169.423H1.4504Z" fill="#69CBDE"/>
</svg>