<svg xmlns="http://www.w3.org/2000/svg" width="483" height="380" viewBox="0 0 483 380" fill="none">
  <path d="M482.687 208.475C482.687 208.61 482.638 208.739 482.551 208.836C482.464 208.933 482.345 208.99 482.219 208.995C482.153 209 482.088 208.991 482.026 208.969C481.964 208.946 481.907 208.91 481.858 208.864C481.809 208.817 481.77 208.76 481.742 208.697C481.714 208.633 481.699 208.565 481.696 208.495V208.264C481.696 208.127 481.744 207.996 481.831 207.896C481.918 207.796 482.037 207.735 482.165 207.725C482.297 207.725 482.425 207.778 482.522 207.875C482.619 207.971 482.678 208.103 482.687 208.244V208.475ZM482.687 230.047V230.278C482.682 230.417 482.627 230.549 482.533 230.646C482.439 230.743 482.313 230.797 482.183 230.797C482.055 230.784 481.936 230.722 481.847 230.624C481.758 230.525 481.704 230.395 481.696 230.258V230.028C481.696 229.957 481.71 229.887 481.736 229.822C481.763 229.757 481.803 229.699 481.852 229.652C481.901 229.604 481.96 229.569 482.023 229.547C482.086 229.526 482.153 229.519 482.219 229.527C482.345 229.532 482.464 229.589 482.551 229.686C482.638 229.783 482.687 229.912 482.687 230.047ZM481.048 186.769C481.046 186.891 481.007 187.008 480.935 187.103C480.863 187.197 480.763 187.263 480.652 187.289C480.523 187.318 480.388 187.291 480.277 187.216C480.166 187.14 480.087 187.022 480.057 186.885V186.654C480.033 186.516 480.062 186.374 480.136 186.258C480.21 186.143 480.324 186.064 480.453 186.038C480.582 186.012 480.716 186.043 480.824 186.122C480.932 186.201 481.006 186.324 481.03 186.461V186.673C481.043 186.703 481.049 186.736 481.048 186.769ZM480.724 251.734V251.945C480.702 252.085 480.629 252.21 480.521 252.293C480.413 252.376 480.278 252.41 480.147 252.388C480.083 252.379 480.021 252.356 479.965 252.32C479.91 252.285 479.861 252.238 479.823 252.183C479.784 252.127 479.756 252.064 479.741 251.997C479.725 251.93 479.723 251.86 479.733 251.791V251.58C479.741 251.509 479.764 251.441 479.798 251.38C479.832 251.319 479.877 251.267 479.931 251.225C479.985 251.184 480.047 251.154 480.112 251.139C480.177 251.124 480.244 251.123 480.309 251.137C480.437 251.161 480.551 251.236 480.628 251.347C480.705 251.458 480.739 251.596 480.724 251.734ZM475.896 272.901C475.905 272.958 475.905 273.017 475.896 273.074V273.267C475.876 273.332 475.844 273.393 475.802 273.446C475.76 273.498 475.708 273.541 475.651 273.573C475.593 273.604 475.53 273.623 475.465 273.628C475.401 273.633 475.336 273.625 475.275 273.603C475.213 273.582 475.156 273.548 475.107 273.503C475.058 273.458 475.017 273.403 474.988 273.341C474.959 273.28 474.941 273.212 474.936 273.143C474.931 273.075 474.939 273.005 474.959 272.94V272.728C474.98 272.661 475.012 272.6 475.055 272.547C475.098 272.495 475.151 272.452 475.209 272.421C475.268 272.391 475.332 272.373 475.398 272.369C475.463 272.366 475.528 272.377 475.59 272.401C475.679 272.441 475.755 272.508 475.809 272.593C475.863 272.679 475.893 272.779 475.896 272.882V272.901ZM469.717 170.066C469.728 170.117 469.728 170.169 469.717 170.22C469.701 170.288 469.672 170.351 469.632 170.406C469.591 170.46 469.541 170.505 469.483 170.538C469.425 170.571 469.362 170.59 469.297 170.595C469.232 170.6 469.166 170.59 469.105 170.567H468.925C468.86 170.551 468.799 170.522 468.746 170.48C468.692 170.437 468.648 170.384 468.616 170.322C468.583 170.26 468.564 170.191 468.558 170.121C468.552 170.05 468.561 169.979 468.583 169.912C468.601 169.846 468.632 169.785 468.673 169.732C468.714 169.678 468.764 169.634 468.821 169.602C468.878 169.57 468.94 169.55 469.005 169.544C469.069 169.538 469.134 169.545 469.195 169.566H469.393C469.485 169.604 469.565 169.669 469.623 169.755C469.68 169.84 469.713 169.942 469.717 170.047V170.066ZM466.781 292.337C466.777 292.449 466.74 292.557 466.673 292.644L466.565 292.818C466.486 292.932 466.368 293.008 466.236 293.03C466.105 293.052 465.97 293.017 465.863 292.933C465.81 292.893 465.766 292.842 465.732 292.784C465.698 292.725 465.675 292.66 465.665 292.592C465.655 292.524 465.658 292.454 465.673 292.387C465.689 292.32 465.716 292.257 465.755 292.202L465.881 292.029C465.917 291.971 465.963 291.922 466.017 291.884C466.072 291.846 466.133 291.82 466.196 291.807C466.26 291.795 466.326 291.796 466.389 291.811C466.452 291.826 466.512 291.854 466.565 291.894C466.629 291.947 466.681 292.014 466.719 292.09C466.756 292.166 466.777 292.25 466.781 292.337ZM452.064 307.192C452.064 307.277 452.046 307.361 452.011 307.437C451.977 307.514 451.928 307.581 451.866 307.635L451.704 307.75C451.653 307.792 451.595 307.823 451.533 307.841C451.471 307.859 451.407 307.863 451.343 307.854C451.279 307.845 451.218 307.823 451.163 307.789C451.107 307.754 451.058 307.709 451.02 307.654C450.928 307.553 450.877 307.419 450.877 307.279C450.877 307.139 450.928 307.004 451.02 306.904L451.2 306.769C451.252 306.728 451.311 306.698 451.373 306.682C451.436 306.666 451.501 306.663 451.565 306.674C451.628 306.684 451.689 306.708 451.744 306.745C451.799 306.781 451.847 306.828 451.884 306.884C451.98 306.958 452.044 307.068 452.064 307.192ZM449.669 172.029C449.664 172.139 449.629 172.246 449.568 172.335C449.508 172.424 449.423 172.491 449.326 172.529H449.128C449.007 172.556 448.88 172.533 448.773 172.466C448.666 172.399 448.586 172.292 448.548 172.166C448.51 172.04 448.517 171.903 448.567 171.782C448.618 171.661 448.709 171.564 448.822 171.509H449.002C449.126 171.466 449.262 171.476 449.379 171.537C449.497 171.598 449.588 171.705 449.633 171.837C449.661 171.897 449.68 171.962 449.687 172.029H449.669ZM434.988 319.084C434.989 319.179 434.966 319.271 434.922 319.353C434.877 319.434 434.813 319.501 434.736 319.546L434.573 319.642C434.52 319.68 434.459 319.706 434.396 319.718C434.332 319.729 434.267 319.727 434.205 319.711C434.142 319.695 434.084 319.665 434.032 319.623C433.981 319.582 433.938 319.529 433.907 319.469C433.839 319.349 433.819 319.205 433.849 319.068C433.879 318.932 433.958 318.813 434.069 318.738L434.249 318.623C434.365 318.557 434.5 318.54 434.627 318.576C434.753 318.612 434.863 318.697 434.934 318.815C434.975 318.898 435 318.99 435.006 319.084H434.988ZM431.547 181.843C431.546 181.93 431.525 182.015 431.488 182.092C431.45 182.168 431.397 182.235 431.331 182.286L431.151 182.401C431.098 182.441 431.038 182.469 430.975 182.484C430.911 182.499 430.846 182.5 430.782 182.488C430.718 182.475 430.658 182.449 430.603 182.411C430.549 182.373 430.502 182.324 430.466 182.266C430.395 182.15 430.369 182.01 430.392 181.874C430.416 181.738 430.488 181.616 430.592 181.535L430.773 181.4C430.883 181.327 431.016 181.301 431.144 181.33C431.272 181.359 431.384 181.439 431.457 181.554C431.52 181.637 431.558 181.737 431.565 181.843H431.547ZM421.892 96.9427C421.892 97.0126 421.879 97.0818 421.853 97.1461C421.828 97.2104 421.79 97.2686 421.743 97.3171C421.696 97.3656 421.64 97.4034 421.579 97.4284C421.518 97.4533 421.453 97.4649 421.388 97.4623H421.189C421.117 97.4772 421.041 97.4747 420.969 97.455C420.897 97.4353 420.83 97.3989 420.773 97.3484C420.716 97.2978 420.67 97.2344 420.638 97.1626C420.607 97.0908 420.59 97.0124 420.59 96.9331C420.59 96.8537 420.607 96.7754 420.638 96.7036C420.67 96.6318 420.716 96.5683 420.773 96.5178C420.83 96.4672 420.897 96.4308 420.969 96.4111C421.041 96.3915 421.117 96.389 421.189 96.4039H421.442C421.569 96.4136 421.688 96.4747 421.775 96.5747C421.862 96.6747 421.91 96.8063 421.91 96.9427H421.892ZM416.974 329.264C416.973 329.365 416.946 329.464 416.895 329.549C416.844 329.634 416.772 329.702 416.686 329.745H416.506C416.389 329.806 416.253 329.816 416.129 329.773C416.005 329.73 415.901 329.637 415.84 329.514C415.805 329.402 415.806 329.282 415.842 329.171C415.877 329.059 415.946 328.964 416.038 328.898L416.218 328.802C416.337 328.742 416.474 328.735 416.599 328.782C416.723 328.828 416.826 328.926 416.884 329.052C416.935 329.113 416.972 329.185 416.992 329.264H416.974ZM415.569 195.467C415.57 195.528 415.56 195.588 415.538 195.645C415.516 195.701 415.484 195.752 415.443 195.794L415.335 195.89C415.235 195.991 415.103 196.046 414.966 196.046C414.829 196.046 414.697 195.991 414.597 195.89C414.506 195.793 414.456 195.662 414.456 195.525C414.456 195.388 414.506 195.256 414.597 195.159C414.701 195.062 414.836 195.008 414.975 195.008C415.114 195.008 415.248 195.062 415.353 195.159C415.459 195.233 415.541 195.341 415.587 195.467H415.569ZM401.753 99.7907C401.753 99.9098 401.715 100.025 401.647 100.119C401.578 100.213 401.483 100.28 401.375 100.31H401.195C401.068 100.346 400.933 100.328 400.819 100.26C400.705 100.192 400.62 100.079 400.582 99.9446C400.563 99.8789 400.556 99.8098 400.562 99.7412C400.567 99.6726 400.586 99.6059 400.616 99.545C400.646 99.4841 400.687 99.4303 400.737 99.3865C400.787 99.3428 400.845 99.3101 400.906 99.2903H401.123C401.185 99.2699 401.251 99.2632 401.316 99.2707C401.381 99.2782 401.445 99.2996 401.502 99.3338C401.559 99.3679 401.609 99.4141 401.649 99.4694C401.689 99.5248 401.718 99.5882 401.735 99.656C401.735 99.656 401.771 99.7522 401.771 99.7907H401.753ZM400.564 210.15C400.564 210.225 400.55 210.3 400.522 210.369C400.494 210.439 400.453 210.502 400.402 210.554L400.258 210.688C400.211 210.735 400.155 210.771 400.095 210.795C400.034 210.819 399.97 210.83 399.906 210.827C399.841 210.825 399.778 210.808 399.719 210.78C399.661 210.751 399.608 210.71 399.564 210.659C399.521 210.609 399.487 210.55 399.464 210.485C399.442 210.421 399.432 210.352 399.434 210.283C399.437 210.214 399.452 210.147 399.479 210.084C399.506 210.022 399.544 209.965 399.591 209.919L399.736 209.765C399.83 209.667 399.956 209.613 400.087 209.613C400.218 209.613 400.344 209.667 400.438 209.765C400.486 209.814 400.524 209.874 400.549 209.94C400.574 210.007 400.585 210.078 400.582 210.15H400.564ZM398.222 337.846C398.226 337.953 398.198 338.059 398.143 338.148C398.089 338.238 398.009 338.307 397.916 338.347H397.718C397.596 338.395 397.461 338.39 397.343 338.332C397.225 338.274 397.133 338.169 397.088 338.039C397.042 337.909 397.047 337.765 397.101 337.638C397.155 337.512 397.254 337.414 397.376 337.365H397.556C397.678 337.314 397.814 337.315 397.935 337.369C398.056 337.423 398.153 337.525 398.204 337.654C398.224 337.716 398.237 337.781 398.24 337.846H398.222ZM384.532 223.504C384.531 223.603 384.505 223.699 384.458 223.784C384.41 223.868 384.343 223.938 384.262 223.985H384.082C383.962 224.045 383.826 224.052 383.701 224.006C383.576 223.959 383.474 223.862 383.415 223.735C383.363 223.617 383.354 223.482 383.391 223.357C383.428 223.232 383.507 223.127 383.614 223.062H383.794C383.913 223.002 384.05 222.994 384.175 223.041C384.299 223.088 384.402 223.185 384.46 223.312C384.503 223.368 384.533 223.434 384.55 223.504H384.532ZM383.127 108.527C383.128 108.619 383.107 108.71 383.066 108.79C383.025 108.871 382.966 108.94 382.893 108.989L382.731 109.085C382.677 109.124 382.616 109.151 382.552 109.165C382.488 109.178 382.422 109.178 382.358 109.163C382.294 109.149 382.234 109.121 382.18 109.081C382.127 109.041 382.081 108.99 382.046 108.931C381.977 108.813 381.954 108.671 381.981 108.534C382.007 108.398 382.083 108.278 382.191 108.2L382.371 108.084C382.483 108.012 382.618 107.99 382.746 108.023C382.874 108.055 382.985 108.139 383.055 108.258C383.112 108.334 383.144 108.429 383.145 108.527H383.127ZM378.948 344.966C378.95 345.08 378.918 345.192 378.856 345.286C378.795 345.379 378.707 345.449 378.606 345.486H378.426C378.363 345.51 378.297 345.519 378.23 345.515C378.164 345.51 378.099 345.491 378.04 345.458C377.981 345.426 377.929 345.381 377.887 345.326C377.845 345.271 377.814 345.208 377.795 345.139C377.773 345.075 377.763 345.007 377.767 344.938C377.77 344.87 377.787 344.803 377.815 344.741C377.844 344.68 377.884 344.626 377.934 344.581C377.983 344.537 378.04 344.505 378.102 344.485H378.318C378.38 344.465 378.446 344.458 378.511 344.466C378.577 344.473 378.64 344.494 378.697 344.529C378.754 344.563 378.804 344.609 378.844 344.664C378.884 344.72 378.914 344.783 378.93 344.851C378.949 344.887 378.961 344.926 378.966 344.966H378.948ZM367.402 122.305C367.404 122.439 367.359 122.57 367.275 122.671L367.131 122.825C367.037 122.922 366.911 122.977 366.78 122.977C366.649 122.977 366.523 122.922 366.429 122.825C366.342 122.722 366.293 122.588 366.293 122.449C366.293 122.311 366.342 122.177 366.429 122.074L366.573 121.92C366.617 121.87 366.67 121.83 366.729 121.803C366.788 121.775 366.851 121.761 366.915 121.761C366.979 121.761 367.043 121.775 367.102 121.803C367.161 121.83 367.214 121.87 367.257 121.92C367.307 121.969 367.345 122.029 367.37 122.095C367.395 122.162 367.406 122.233 367.402 122.305ZM365.6 222.119C365.599 222.256 365.548 222.388 365.456 222.484C365.362 222.582 365.236 222.636 365.105 222.636C364.974 222.636 364.848 222.582 364.754 222.484L364.628 222.35C364.58 222.301 364.542 222.243 364.517 222.178C364.491 222.114 364.478 222.044 364.478 221.974C364.478 221.904 364.491 221.835 364.517 221.77C364.542 221.706 364.58 221.648 364.628 221.599C364.722 221.502 364.848 221.447 364.979 221.447C365.11 221.447 365.236 221.502 365.33 221.599L365.492 221.753C365.569 221.857 365.607 221.987 365.6 222.119ZM363.799 226.217V226.429C363.789 226.497 363.767 226.563 363.734 226.622C363.701 226.681 363.657 226.733 363.605 226.774C363.554 226.815 363.495 226.845 363.432 226.862C363.369 226.878 363.304 226.882 363.24 226.872C363.177 226.862 363.115 226.838 363.06 226.803C363.004 226.767 362.956 226.72 362.918 226.665C362.879 226.61 362.851 226.547 362.836 226.48C362.82 226.413 362.817 226.343 362.826 226.275V226.064C362.835 225.995 362.856 225.929 362.889 225.869C362.922 225.81 362.966 225.758 363.018 225.717C363.07 225.676 363.129 225.646 363.192 225.629C363.255 225.613 363.321 225.61 363.385 225.621C363.512 225.645 363.626 225.72 363.703 225.831C363.78 225.942 363.815 226.08 363.799 226.217ZM359.314 350.681C359.31 350.8 359.272 350.914 359.204 351.007C359.136 351.101 359.042 351.168 358.935 351.201H358.719C358.656 351.218 358.591 351.222 358.527 351.212C358.463 351.202 358.402 351.178 358.346 351.142C358.291 351.106 358.243 351.059 358.205 351.003C358.167 350.947 358.139 350.884 358.125 350.816C358.098 350.679 358.122 350.535 358.193 350.416C358.263 350.298 358.375 350.213 358.503 350.181H358.683C358.812 350.151 358.946 350.174 359.06 350.245C359.174 350.317 359.258 350.431 359.296 350.566C359.296 350.566 359.296 350.643 359.296 350.681H359.314ZM358.017 247.019C358.033 247.095 358.033 247.174 358.017 247.25V247.423C357.992 247.486 357.956 247.544 357.91 247.592C357.864 247.64 357.81 247.678 357.751 247.704C357.692 247.73 357.628 247.743 357.564 247.743C357.5 247.743 357.436 247.729 357.377 247.702C357.318 247.676 357.264 247.637 357.219 247.588C357.174 247.54 357.138 247.482 357.114 247.419C357.09 247.355 357.078 247.287 357.078 247.219C357.078 247.15 357.091 247.082 357.116 247.019V246.808C357.166 246.701 357.247 246.616 357.347 246.564C357.447 246.512 357.561 246.497 357.67 246.521C357.778 246.545 357.877 246.607 357.949 246.697C358.022 246.787 358.065 246.901 358.071 247.019H358.017ZM355.999 140.317C356.016 140.399 356.016 140.484 355.999 140.567L355.549 140.317L355.963 140.644L355.459 140.509L355.026 140.278L355.116 140.086C355.171 139.987 355.253 139.91 355.352 139.865C355.45 139.82 355.56 139.809 355.664 139.835C355.768 139.861 355.862 139.921 355.932 140.008C356.002 140.094 356.044 140.203 356.053 140.317H355.999ZM355.585 218.251C355.588 218.358 355.561 218.463 355.506 218.553C355.451 218.642 355.372 218.712 355.279 218.751H355.098C355.036 218.793 354.966 218.82 354.893 218.83C354.82 218.84 354.746 218.833 354.676 218.809C354.606 218.786 354.541 218.746 354.487 218.692C354.433 218.639 354.39 218.574 354.362 218.501C354.334 218.428 354.321 218.35 354.325 218.271C354.328 218.193 354.347 218.116 354.382 218.046C354.416 217.977 354.464 217.916 354.522 217.868C354.581 217.82 354.648 217.787 354.72 217.77H354.9C355.022 217.718 355.158 217.72 355.279 217.774C355.4 217.828 355.497 217.93 355.549 218.058C355.563 218.096 355.575 218.134 355.585 218.174V218.251ZM354.612 204.011C354.61 204.117 354.578 204.22 354.52 204.306C354.463 204.392 354.381 204.457 354.288 204.492C354.166 204.543 354.03 204.542 353.909 204.488C353.788 204.434 353.691 204.332 353.639 204.203V204.011C353.596 203.88 353.599 203.737 353.649 203.609C353.699 203.481 353.792 203.377 353.91 203.318C354.032 203.267 354.168 203.268 354.289 203.322C354.41 203.376 354.506 203.478 354.558 203.607V203.819C354.579 203.855 354.597 203.894 354.612 203.934V204.011ZM349.965 161.061V161.272C349.932 161.402 349.856 161.513 349.751 161.586C349.646 161.659 349.519 161.687 349.396 161.665C349.272 161.644 349.161 161.574 349.083 161.469C349.005 161.364 348.966 161.232 348.974 161.099V160.907C348.996 160.784 349.058 160.673 349.148 160.593C349.238 160.513 349.352 160.469 349.469 160.469C349.587 160.469 349.7 160.513 349.791 160.593C349.881 160.673 349.943 160.784 349.965 160.907V161.061ZM349.514 182.978C349.516 183.109 349.472 183.235 349.393 183.335C349.313 183.434 349.203 183.499 349.082 183.517C348.952 183.529 348.822 183.488 348.719 183.402C348.615 183.317 348.546 183.193 348.524 183.055V182.824C348.51 182.755 348.512 182.684 348.527 182.615C348.542 182.547 348.572 182.483 348.613 182.428C348.654 182.373 348.706 182.328 348.766 182.297C348.825 182.265 348.89 182.249 348.956 182.247C349.02 182.236 349.086 182.24 349.149 182.258C349.212 182.276 349.271 182.307 349.322 182.351C349.372 182.394 349.414 182.448 349.444 182.51C349.474 182.572 349.492 182.64 349.496 182.709V182.921L349.514 182.978ZM348.307 266.243C348.302 266.346 348.271 266.446 348.217 266.532V266.705C348.139 266.801 348.031 266.864 347.913 266.883C347.795 266.902 347.675 266.875 347.573 266.808C347.472 266.741 347.395 266.638 347.358 266.517C347.321 266.396 347.326 266.265 347.371 266.147L347.479 265.954C347.552 265.839 347.664 265.759 347.792 265.73C347.92 265.701 348.053 265.727 348.163 265.8C348.253 265.898 348.305 266.029 348.307 266.166V266.243ZM339.301 355.088C339.302 355.214 339.261 355.335 339.185 355.431C339.108 355.526 339.003 355.589 338.886 355.608H338.688C338.559 355.633 338.426 355.603 338.318 355.524C338.21 355.444 338.136 355.322 338.112 355.184C338.088 355.047 338.116 354.904 338.191 354.789C338.265 354.673 338.379 354.594 338.508 354.569H338.724C338.855 354.551 338.987 354.587 339.094 354.669C339.201 354.751 339.275 354.873 339.301 355.011V355.088ZM337.085 227.43C337.084 227.524 337.061 227.615 337.016 227.696C336.972 227.777 336.909 227.845 336.833 227.892H336.653C336.537 227.954 336.404 227.967 336.28 227.928C336.156 227.889 336.051 227.8 335.986 227.68C335.952 227.62 335.93 227.553 335.922 227.484C335.913 227.415 335.919 227.344 335.937 227.277C335.956 227.21 335.988 227.148 336.03 227.094C336.073 227.041 336.125 226.998 336.184 226.968L336.365 226.852C336.422 226.82 336.486 226.799 336.551 226.793C336.616 226.787 336.682 226.795 336.744 226.817C336.806 226.838 336.863 226.873 336.913 226.919C336.962 226.965 337.002 227.021 337.031 227.083C337.071 227.167 337.089 227.26 337.085 227.353V227.43ZM337.085 284.389C337.091 284.494 337.059 284.598 336.995 284.678L336.887 284.87C336.851 284.928 336.804 284.977 336.75 285.015C336.696 285.053 336.635 285.079 336.571 285.092C336.507 285.104 336.442 285.103 336.379 285.088C336.315 285.073 336.255 285.045 336.202 285.005C336.149 284.966 336.103 284.917 336.067 284.859C336.031 284.801 336.007 284.736 335.995 284.668C335.983 284.6 335.985 284.53 335.999 284.462C336.012 284.394 336.039 284.33 336.076 284.274L336.184 284.101C336.258 283.985 336.37 283.905 336.498 283.876C336.625 283.848 336.758 283.873 336.869 283.947C336.952 284.047 336.997 284.178 336.995 284.312L337.085 284.389ZM325.827 302.574C325.853 302.661 325.853 302.756 325.827 302.843L325.719 303.036C325.684 303.094 325.64 303.144 325.587 303.184C325.535 303.224 325.475 303.252 325.413 303.267C325.35 303.282 325.285 303.284 325.222 303.272C325.158 303.261 325.098 303.236 325.043 303.199C324.989 303.163 324.942 303.115 324.904 303.059C324.867 303.003 324.841 302.939 324.827 302.872C324.812 302.805 324.811 302.736 324.822 302.668C324.832 302.601 324.856 302.536 324.89 302.478L324.98 302.304C325.048 302.183 325.157 302.094 325.285 302.058C325.414 302.022 325.55 302.042 325.665 302.112C325.735 302.225 325.761 302.363 325.737 302.497L325.827 302.574ZM319.576 238.456C319.574 238.545 319.552 238.631 319.511 238.709C319.47 238.786 319.412 238.851 319.342 238.899L319.18 239.014C319.071 239.09 318.94 239.118 318.812 239.093C318.685 239.068 318.571 238.991 318.495 238.879C318.425 238.758 318.401 238.613 318.428 238.474C318.455 238.334 318.53 238.211 318.639 238.129L318.802 238.013C318.856 237.974 318.916 237.947 318.98 237.934C319.045 237.92 319.11 237.921 319.174 237.935C319.238 237.95 319.299 237.978 319.352 238.017C319.406 238.057 319.451 238.108 319.486 238.167C319.54 238.253 319.571 238.353 319.576 238.456ZM319.09 357.917C319.095 358.051 319.051 358.183 318.967 358.283C318.883 358.384 318.765 358.446 318.639 358.456H318.423C318.292 358.461 318.165 358.412 318.067 358.318C317.97 358.225 317.91 358.095 317.901 357.955C317.896 357.816 317.942 357.679 318.029 357.575C318.117 357.471 318.239 357.407 318.369 357.397H318.549C318.615 357.389 318.681 357.396 318.744 357.416C318.807 357.436 318.865 357.469 318.916 357.514C318.966 357.559 319.008 357.615 319.038 357.677C319.068 357.74 319.085 357.808 319.09 357.878V357.917ZM316.19 321.682C316.206 321.752 316.206 321.824 316.19 321.894V322.086C316.138 322.215 316.041 322.317 315.92 322.371C315.799 322.425 315.663 322.426 315.541 322.375C315.419 322.316 315.324 322.208 315.277 322.075C315.23 321.941 315.234 321.793 315.289 321.663V321.471C315.339 321.364 315.42 321.278 315.52 321.227C315.62 321.175 315.734 321.16 315.842 321.184C315.951 321.208 316.05 321.27 316.122 321.36C316.195 321.45 316.238 321.564 316.244 321.682H316.19ZM310.479 342.522V342.734C310.473 342.802 310.453 342.867 310.422 342.927C310.391 342.986 310.349 343.038 310.298 343.08C310.248 343.121 310.19 343.151 310.128 343.168C310.066 343.184 310.002 343.188 309.939 343.177C309.873 343.17 309.809 343.148 309.752 343.114C309.694 343.08 309.643 343.034 309.603 342.978C309.562 342.922 309.533 342.858 309.516 342.79C309.5 342.721 309.497 342.65 309.507 342.58V342.368C309.513 342.299 309.533 342.231 309.565 342.17C309.597 342.109 309.641 342.056 309.694 342.015C309.746 341.973 309.807 341.943 309.871 341.928C309.935 341.913 310.001 341.912 310.065 341.926C310.132 341.932 310.197 341.954 310.256 341.99C310.314 342.025 310.365 342.074 310.404 342.132C310.444 342.191 310.471 342.258 310.484 342.328C310.497 342.399 310.495 342.472 310.479 342.542V342.522ZM303.166 251.387C303.167 251.468 303.152 251.548 303.121 251.621C303.09 251.694 303.044 251.759 302.986 251.811L302.842 251.926C302.794 251.985 302.736 252.033 302.67 252.066C302.603 252.098 302.531 252.115 302.459 252.115C302.386 252.116 302.314 252.099 302.247 252.066C302.181 252.034 302.122 251.986 302.075 251.927C302.027 251.868 301.993 251.799 301.973 251.724C301.953 251.649 301.948 251.57 301.96 251.493C301.971 251.417 301.997 251.343 302.038 251.278C302.078 251.214 302.131 251.159 302.193 251.118L302.373 250.983C302.417 250.933 302.47 250.893 302.529 250.866C302.588 250.839 302.651 250.824 302.716 250.824C302.78 250.824 302.843 250.839 302.902 250.866C302.961 250.893 303.014 250.933 303.058 250.983C303.104 251.041 303.137 251.109 303.156 251.182C303.174 251.255 303.178 251.332 303.166 251.407V251.387ZM288.017 265.954C288.016 266.092 287.964 266.223 287.873 266.32L287.728 266.493C287.634 266.591 287.508 266.645 287.377 266.645C287.246 266.645 287.12 266.591 287.026 266.493C286.979 266.445 286.941 266.386 286.915 266.322C286.889 266.257 286.876 266.188 286.876 266.118C286.876 266.048 286.889 265.978 286.915 265.914C286.941 265.849 286.979 265.791 287.026 265.743L287.17 265.608C287.24 265.538 287.328 265.492 287.422 265.473C287.516 265.455 287.613 265.465 287.702 265.503C287.791 265.542 287.868 265.606 287.923 265.69C287.979 265.773 288.011 265.871 288.017 265.974V265.954ZM274.218 281.984C274.221 282.109 274.183 282.232 274.11 282.33L273.984 282.484C273.939 282.535 273.884 282.575 273.824 282.603C273.764 282.63 273.699 282.644 273.633 282.644C273.567 282.644 273.502 282.63 273.442 282.603C273.382 282.575 273.327 282.535 273.282 282.484C273.192 282.387 273.141 282.255 273.141 282.118C273.141 281.982 273.192 281.85 273.282 281.753L273.426 281.58C273.517 281.483 273.64 281.429 273.768 281.429C273.896 281.429 274.019 281.483 274.11 281.58C274.155 281.638 274.188 281.706 274.207 281.779C274.225 281.852 274.229 281.928 274.218 282.003V281.984ZM261.915 299.303C261.938 299.397 261.938 299.496 261.915 299.591L261.789 299.784C261.752 299.84 261.704 299.887 261.649 299.923C261.594 299.96 261.533 299.984 261.47 299.994C261.406 300.005 261.341 300.002 261.278 299.986C261.216 299.97 261.157 299.94 261.105 299.899C261.05 299.861 261.004 299.811 260.968 299.752C260.933 299.694 260.909 299.628 260.899 299.559C260.889 299.49 260.893 299.42 260.909 299.352C260.926 299.285 260.956 299.222 260.997 299.168L261.087 298.995C261.125 298.936 261.173 298.887 261.229 298.849C261.284 298.81 261.347 298.784 261.412 298.772C261.477 298.759 261.544 298.761 261.609 298.776C261.673 298.791 261.735 298.819 261.789 298.86C261.853 298.926 261.898 299.009 261.92 299.101C261.942 299.193 261.941 299.289 261.915 299.38V299.303ZM251.107 317.834C251.124 317.916 251.124 318.001 251.107 318.084V318.276C251.077 318.341 251.035 318.399 250.983 318.447C250.931 318.494 250.871 318.529 250.806 318.551C250.741 318.573 250.673 318.58 250.605 318.573C250.537 318.566 250.472 318.544 250.412 318.509C250.352 318.474 250.3 318.426 250.258 318.369C250.216 318.312 250.185 318.246 250.168 318.175C250.15 318.105 250.146 318.032 250.156 317.96C250.166 317.888 250.189 317.819 250.225 317.757L250.333 317.564C250.364 317.505 250.407 317.452 250.458 317.41C250.508 317.368 250.567 317.338 250.628 317.32C250.69 317.302 250.755 317.297 250.819 317.306C250.882 317.315 250.944 317.337 250.999 317.372C251.079 317.43 251.14 317.513 251.175 317.609C251.21 317.705 251.218 317.81 251.197 317.911L251.107 317.834ZM242.101 337.385C242.109 337.455 242.109 337.526 242.101 337.596V337.789C242.075 337.852 242.037 337.909 241.991 337.957C241.944 338.004 241.889 338.042 241.829 338.067C241.768 338.092 241.704 338.104 241.64 338.102C241.575 338.101 241.511 338.086 241.452 338.058C241.393 338.03 241.34 337.99 241.295 337.94C241.25 337.891 241.215 337.832 241.192 337.767C241.168 337.703 241.157 337.635 241.158 337.566C241.16 337.496 241.174 337.428 241.2 337.365V337.173C241.225 337.109 241.262 337.052 241.309 337.003C241.356 336.955 241.411 336.917 241.471 336.892C241.532 336.867 241.596 336.855 241.661 336.857C241.726 336.859 241.789 336.875 241.848 336.903C241.966 336.927 242.071 336.998 242.142 337.102C242.212 337.206 242.243 337.334 242.227 337.462L242.101 337.385ZM234.895 357.782C234.895 357.782 234.895 357.898 234.895 357.955V358.148C234.857 358.28 234.771 358.391 234.656 358.456C234.541 358.521 234.407 358.535 234.283 358.494C234.159 358.453 234.055 358.361 233.994 358.239C233.933 358.116 233.92 357.973 233.959 357.84V357.628C234 357.514 234.076 357.419 234.175 357.358C234.274 357.297 234.389 357.273 234.502 357.291C234.615 357.309 234.719 357.367 234.797 357.456C234.875 357.546 234.922 357.661 234.931 357.782H234.895ZM229.996 378.93C230.004 378.968 230.004 379.008 229.996 379.046V379.257C229.983 379.326 229.957 379.392 229.92 379.45C229.883 379.508 229.835 379.558 229.78 379.596C229.724 379.633 229.662 379.659 229.597 379.67C229.532 379.681 229.465 379.678 229.401 379.661C229.338 379.648 229.279 379.621 229.226 379.582C229.173 379.544 229.127 379.495 229.092 379.438C229.057 379.38 229.033 379.316 229.021 379.249C229.009 379.182 229.01 379.113 229.023 379.046V378.834C229.053 378.697 229.132 378.578 229.243 378.503C229.354 378.427 229.489 378.401 229.617 378.43C229.724 378.456 229.819 378.519 229.888 378.61C229.956 378.701 229.994 378.814 229.996 378.93ZM219.53 377.237C219.528 377.38 219.477 377.517 219.386 377.622C219.34 377.672 219.286 377.713 219.225 377.74C219.165 377.768 219.1 377.782 219.035 377.782C218.969 377.782 218.904 377.768 218.844 377.74C218.783 377.713 218.729 377.672 218.683 377.622L218.539 377.468C218.492 377.419 218.454 377.361 218.428 377.297C218.402 377.232 218.389 377.163 218.389 377.093C218.389 377.022 218.402 376.953 218.428 376.889C218.454 376.824 218.492 376.766 218.539 376.717C218.583 376.667 218.636 376.627 218.695 376.6C218.754 376.573 218.817 376.559 218.881 376.559C218.946 376.559 219.009 376.573 219.068 376.6C219.127 376.627 219.18 376.667 219.224 376.717L219.368 376.871C219.464 376.966 219.522 377.097 219.53 377.237ZM206.542 360.476C206.543 360.56 206.523 360.643 206.485 360.717C206.447 360.791 206.393 360.854 206.326 360.9C206.274 360.94 206.215 360.97 206.153 360.986C206.09 361.003 206.025 361.006 205.961 360.995C205.898 360.984 205.836 360.96 205.782 360.924C205.727 360.888 205.679 360.84 205.642 360.784L205.534 360.611C205.487 360.564 205.449 360.507 205.424 360.445C205.398 360.382 205.385 360.314 205.385 360.245C205.385 360.177 205.398 360.109 205.424 360.046C205.449 359.983 205.487 359.926 205.534 359.88C205.625 359.783 205.748 359.729 205.876 359.729C206.004 359.729 206.127 359.783 206.218 359.88L206.344 360.072C206.408 360.114 206.461 360.174 206.496 360.245C206.531 360.316 206.547 360.396 206.542 360.476ZM195.464 342.195C195.475 342.265 195.472 342.336 195.457 342.404C195.442 342.473 195.415 342.538 195.376 342.595C195.338 342.652 195.289 342.701 195.233 342.738C195.177 342.775 195.115 342.8 195.05 342.811C194.985 342.822 194.918 342.82 194.854 342.804C194.79 342.788 194.729 342.758 194.676 342.717C194.622 342.676 194.577 342.624 194.542 342.564C194.507 342.505 194.484 342.438 194.473 342.368L194.365 342.176C194.303 342.054 194.289 341.91 194.326 341.776C194.363 341.643 194.449 341.53 194.563 341.464C194.678 341.398 194.813 341.383 194.938 341.422C195.063 341.462 195.168 341.553 195.23 341.676L195.32 341.849C195.366 341.892 195.404 341.945 195.428 342.005C195.453 342.065 195.466 342.13 195.464 342.195ZM186.457 322.644C186.461 322.746 186.435 322.847 186.384 322.933C186.332 323.019 186.257 323.086 186.169 323.125C186.047 323.184 185.909 323.189 185.784 323.138C185.659 323.087 185.558 322.986 185.503 322.856V322.644C185.477 322.521 185.493 322.391 185.548 322.279C185.603 322.167 185.693 322.079 185.803 322.03C185.913 321.982 186.035 321.977 186.148 322.015C186.261 322.053 186.358 322.133 186.421 322.24V322.433C186.456 322.497 186.475 322.57 186.475 322.644H186.457ZM184.476 116.551C184.476 116.655 184.449 116.757 184.398 116.845C184.347 116.934 184.275 117.005 184.188 117.052H183.99C183.874 117.079 183.753 117.062 183.647 117.003C183.542 116.944 183.46 116.848 183.415 116.731C183.37 116.613 183.365 116.483 183.4 116.362C183.436 116.241 183.511 116.138 183.611 116.07H183.791C183.913 116.019 184.049 116.02 184.17 116.074C184.291 116.128 184.388 116.23 184.44 116.359C184.475 116.416 184.494 116.483 184.494 116.551H184.476ZM183.431 135.525C183.431 135.525 183.431 135.621 183.431 135.66V135.852C183.401 135.989 183.322 136.108 183.211 136.183C183.1 136.259 182.966 136.285 182.837 136.256C182.772 136.241 182.71 136.211 182.656 136.169C182.603 136.127 182.557 136.074 182.524 136.013C182.49 135.951 182.468 135.883 182.46 135.813C182.452 135.742 182.458 135.67 182.476 135.602V135.39C182.491 135.323 182.518 135.259 182.556 135.203C182.594 135.148 182.643 135.1 182.698 135.064C182.753 135.029 182.815 135.005 182.879 134.995C182.943 134.985 183.008 134.988 183.071 135.005C183.176 135.041 183.268 135.109 183.336 135.202C183.404 135.295 183.443 135.408 183.449 135.525H183.431ZM178.64 302.535C178.633 302.654 178.591 302.767 178.518 302.857C178.446 302.947 178.347 303.009 178.238 303.034C178.13 303.058 178.016 303.043 177.916 302.991C177.816 302.939 177.735 302.853 177.685 302.747V302.574C177.655 302.511 177.637 302.442 177.632 302.372C177.628 302.301 177.637 302.231 177.659 302.164C177.68 302.097 177.715 302.036 177.76 301.984C177.804 301.932 177.859 301.891 177.919 301.862C177.976 301.83 178.04 301.811 178.104 301.806C178.169 301.802 178.234 301.811 178.295 301.835C178.356 301.858 178.411 301.895 178.458 301.943C178.505 301.991 178.542 302.048 178.567 302.112L178.658 302.304C178.668 302.382 178.662 302.461 178.64 302.535ZM176.73 156.057C176.744 156.127 176.744 156.199 176.73 156.269V156.461C176.668 156.574 176.569 156.659 176.452 156.699C176.336 156.74 176.209 156.733 176.096 156.681C175.984 156.63 175.893 156.536 175.84 156.417C175.788 156.299 175.778 156.164 175.811 156.038L175.902 155.826C175.928 155.762 175.967 155.704 176.016 155.656C176.065 155.608 176.122 155.572 176.184 155.548C176.247 155.525 176.313 155.515 176.379 155.52C176.445 155.525 176.509 155.544 176.568 155.576C176.633 155.633 176.682 155.708 176.711 155.793C176.739 155.878 176.746 155.969 176.73 156.057ZM167.723 284.293C167.719 284.435 167.668 284.571 167.579 284.678C167.485 284.775 167.359 284.83 167.228 284.83C167.097 284.83 166.971 284.775 166.877 284.678L166.733 284.524C166.641 284.423 166.59 284.289 166.59 284.149C166.59 284.009 166.641 283.874 166.733 283.773C166.778 283.723 166.833 283.682 166.893 283.655C166.953 283.627 167.018 283.613 167.084 283.613C167.15 283.613 167.215 283.627 167.275 283.655C167.335 283.682 167.39 283.723 167.435 283.773L167.579 283.927C167.647 284.035 167.672 284.166 167.651 284.293H167.723ZM167.453 175.397C167.479 175.484 167.479 175.578 167.453 175.666L167.345 175.858C167.313 175.918 167.271 175.97 167.22 176.012C167.169 176.054 167.111 176.085 167.049 176.103C166.987 176.121 166.923 176.125 166.859 176.116C166.796 176.108 166.734 176.085 166.679 176.051C166.565 175.979 166.482 175.861 166.448 175.725C166.415 175.588 166.433 175.442 166.499 175.32L166.589 175.146C166.653 175.021 166.762 174.929 166.89 174.889C167.018 174.85 167.156 174.866 167.273 174.935C167.335 174.991 167.383 175.063 167.414 175.143C167.446 175.223 167.459 175.31 167.453 175.397ZM166.39 126.327C166.392 126.421 166.369 126.514 166.324 126.595C166.28 126.676 166.216 126.743 166.138 126.789L165.976 126.904C165.86 126.97 165.726 126.986 165.599 126.951C165.472 126.915 165.362 126.83 165.292 126.712C165.256 126.654 165.232 126.59 165.221 126.522C165.21 126.454 165.212 126.385 165.228 126.318C165.243 126.251 165.271 126.188 165.31 126.134C165.349 126.079 165.398 126.033 165.454 126L165.652 125.884C165.707 125.85 165.769 125.828 165.832 125.819C165.896 125.81 165.961 125.814 166.023 125.832C166.085 125.85 166.143 125.881 166.193 125.923C166.244 125.965 166.287 126.017 166.318 126.077C166.336 126.16 166.33 126.247 166.3 126.327H166.39ZM156.645 194.005C156.671 194.092 156.671 194.186 156.645 194.274L156.537 194.466C156.502 194.525 156.456 194.575 156.402 194.614C156.349 194.653 156.288 194.681 156.225 194.695C156.161 194.709 156.096 194.71 156.032 194.697C155.968 194.684 155.907 194.658 155.853 194.62C155.798 194.582 155.751 194.533 155.715 194.476C155.678 194.419 155.652 194.355 155.639 194.287C155.625 194.219 155.625 194.149 155.637 194.08C155.649 194.012 155.673 193.947 155.709 193.889L155.817 193.716C155.884 193.599 155.992 193.515 156.116 193.482C156.241 193.45 156.373 193.472 156.483 193.543C156.545 193.598 156.593 193.67 156.621 193.751C156.65 193.832 156.658 193.919 156.645 194.005ZM150.521 272.901C150.529 272.945 150.529 272.991 150.521 273.036C150.487 273.173 150.403 273.291 150.289 273.363C150.174 273.435 150.037 273.456 149.908 273.421L150.034 272.901L149.818 273.382V272.843L149.944 272.343H150.142C150.265 272.366 150.376 272.435 150.455 272.537C150.534 272.639 150.577 272.768 150.575 272.901H150.521ZM149.008 137.969C149.009 138.056 148.99 138.142 148.953 138.22C148.915 138.297 148.859 138.363 148.791 138.411L148.611 138.527C148.504 138.603 148.372 138.631 148.246 138.604C148.119 138.577 148.007 138.497 147.936 138.383C147.864 138.268 147.838 138.127 147.863 137.992C147.889 137.857 147.963 137.738 148.071 137.661L148.233 137.526C148.287 137.487 148.348 137.46 148.412 137.447C148.476 137.433 148.542 137.434 148.606 137.448C148.67 137.462 148.73 137.49 148.784 137.53C148.837 137.57 148.883 137.621 148.918 137.68C148.991 137.76 149.041 137.86 149.062 137.969H149.008ZM145.837 212.459C145.851 212.548 145.851 212.639 145.837 212.728L145.729 212.901C145.658 213.019 145.549 213.105 145.422 213.14C145.295 213.176 145.161 213.159 145.045 213.094C144.934 213.018 144.855 212.9 144.825 212.763C144.794 212.627 144.815 212.483 144.883 212.362L144.991 212.17C145.022 212.11 145.065 212.058 145.116 212.016C145.167 211.974 145.226 211.945 145.289 211.928C145.351 211.912 145.416 211.91 145.479 211.922C145.543 211.933 145.603 211.959 145.657 211.997C145.721 212.051 145.771 212.122 145.803 212.203C145.834 212.284 145.846 212.372 145.837 212.459ZM135.75 231.394C135.766 231.47 135.766 231.549 135.75 231.625L135.66 231.817C135.588 231.916 135.486 231.985 135.371 232.013C135.256 232.04 135.137 232.024 135.032 231.967C134.927 231.91 134.845 231.816 134.798 231.7C134.752 231.585 134.744 231.456 134.777 231.336V231.144C134.838 231.02 134.942 230.928 135.067 230.884C135.191 230.841 135.326 230.851 135.443 230.913C135.536 230.95 135.615 231.016 135.673 231.101C135.731 231.187 135.764 231.289 135.768 231.394H135.75ZM132.039 149.938C132.037 150.027 132.015 150.114 131.974 150.191C131.933 150.268 131.875 150.333 131.805 150.381L131.625 150.496C131.57 150.548 131.505 150.586 131.434 150.608C131.364 150.63 131.29 150.635 131.217 150.624C131.145 150.612 131.076 150.583 131.014 150.54C130.953 150.497 130.902 150.44 130.863 150.374C130.825 150.307 130.8 150.232 130.792 150.154C130.783 150.077 130.79 149.998 130.813 149.923C130.836 149.849 130.873 149.781 130.923 149.723C130.973 149.666 131.034 149.621 131.102 149.592L131.264 149.495C131.318 149.456 131.379 149.429 131.443 149.416C131.507 149.402 131.573 149.403 131.637 149.417C131.701 149.432 131.762 149.46 131.815 149.499C131.869 149.539 131.914 149.59 131.949 149.649C132.007 149.733 132.039 149.834 132.039 149.938ZM130.472 271.4C130.488 271.483 130.488 271.568 130.472 271.65C130.404 271.772 130.296 271.861 130.169 271.9C130.042 271.939 129.905 271.926 129.787 271.862L129.607 271.746C129.509 271.667 129.442 271.552 129.418 271.423C129.395 271.294 129.416 271.16 129.478 271.047C129.54 270.933 129.638 270.848 129.755 270.807C129.872 270.765 129.998 270.771 130.112 270.823L130.274 270.938C130.347 270.994 130.404 271.07 130.439 271.159C130.474 271.247 130.485 271.344 130.472 271.439V271.4ZM127.59 251.272C127.598 251.329 127.598 251.388 127.59 251.445V251.657C127.531 251.766 127.439 251.849 127.329 251.894C127.219 251.938 127.098 251.939 126.987 251.898C126.876 251.857 126.782 251.776 126.721 251.669C126.66 251.561 126.636 251.435 126.653 251.31V251.099C126.671 251.033 126.702 250.972 126.743 250.919C126.784 250.867 126.835 250.824 126.893 250.793C126.95 250.762 127.013 250.745 127.077 250.741C127.141 250.737 127.205 250.748 127.265 250.772C127.366 250.812 127.452 250.887 127.511 250.984C127.569 251.081 127.597 251.195 127.59 251.31V251.272ZM114.368 160.83C114.365 160.925 114.339 161.019 114.291 161.1C114.244 161.181 114.177 161.247 114.098 161.291H113.918C113.805 161.326 113.684 161.318 113.576 161.269C113.469 161.219 113.381 161.131 113.327 161.019C113.274 160.907 113.259 160.779 113.284 160.657C113.31 160.534 113.374 160.425 113.467 160.349L113.647 160.252C113.724 160.214 113.808 160.196 113.893 160.201C113.977 160.206 114.059 160.234 114.131 160.282C114.203 160.33 114.262 160.397 114.303 160.475C114.345 160.554 114.367 160.643 114.368 160.733V160.83ZM95.4899 169.027C95.4917 169.141 95.4596 169.253 95.398 169.347C95.3365 169.44 95.2488 169.51 95.1476 169.547H94.9675C94.8409 169.589 94.7037 169.577 94.5857 169.512C94.4677 169.447 94.3783 169.335 94.337 169.2C94.3019 169.065 94.3157 168.921 94.3758 168.796C94.4359 168.671 94.5378 168.575 94.6613 168.527H94.8594C94.9209 168.506 94.9856 168.499 95.0499 168.505C95.1141 168.511 95.1765 168.531 95.2335 168.563C95.2905 168.595 95.3409 168.639 95.3818 168.693C95.4228 168.746 95.4534 168.807 95.4719 168.873C95.4877 168.929 95.4938 168.988 95.4899 169.046V169.027ZM75.5851 78.5463V78.7388C75.5807 78.8089 75.563 78.8773 75.5331 78.9398C75.5032 79.0024 75.4617 79.0578 75.4112 79.1028C75.3607 79.1478 75.3022 79.1813 75.2392 79.2015C75.1762 79.2216 75.11 79.2278 75.0447 79.2199C74.9808 79.215 74.9184 79.1967 74.8611 79.166C74.8038 79.1352 74.7528 79.0927 74.7109 79.0409C74.6691 78.989 74.6372 78.9288 74.6172 78.8638C74.5972 78.7987 74.5895 78.7301 74.5944 78.6618V78.4502C74.608 78.309 74.6715 78.1787 74.7719 78.0857C74.8723 77.9928 75.002 77.9442 75.1348 77.9498C75.2021 77.9543 75.2678 77.9738 75.3278 78.0069C75.3877 78.04 75.4405 78.0861 75.4828 78.1422C75.5252 78.1983 75.5562 78.2632 75.5738 78.3328C75.5914 78.4024 75.5952 78.4751 75.5851 78.5463ZM75.5851 56.9749C75.582 57.1072 75.535 57.234 75.4526 57.3326C75.3701 57.4313 75.2574 57.4955 75.1348 57.5137C75.0038 57.5245 74.874 57.4803 74.7731 57.3904C74.6722 57.3006 74.6081 57.1722 74.5944 57.0326V56.8017C74.5869 56.7329 74.5928 56.6632 74.6118 56.597C74.6308 56.5308 74.6625 56.4695 74.7048 56.4171C74.7472 56.3646 74.7992 56.3221 74.8577 56.2923C74.9162 56.2624 74.9799 56.2459 75.0447 56.2437C75.1757 56.2329 75.3054 56.2771 75.4064 56.367C75.5073 56.4568 75.5714 56.5852 75.5851 56.7248V56.9749ZM75.5851 172.895C75.5852 173.03 75.5364 173.159 75.4491 173.256C75.3617 173.353 75.2426 173.41 75.1168 173.415H74.9006C74.7699 173.415 74.6443 173.361 74.5502 173.264C74.4561 173.167 74.4009 173.035 74.3962 172.895C74.3961 172.755 74.4468 172.621 74.5375 172.521C74.6283 172.42 74.752 172.361 74.8826 172.356H75.0627C75.1936 172.351 75.3212 172.4 75.4187 172.493C75.5162 172.587 75.5759 172.717 75.5851 172.857V172.895ZM73.7838 100.253V100.522C73.7771 100.59 73.7577 100.657 73.7268 100.717C73.6959 100.777 73.6542 100.83 73.6039 100.873C73.5536 100.916 73.4959 100.948 73.434 100.967C73.3721 100.986 73.3073 100.992 73.2434 100.984C73.1127 100.969 72.9926 100.901 72.9084 100.793C72.8243 100.685 72.7829 100.546 72.793 100.406V100.195C72.811 100.054 72.8789 99.9251 72.9827 99.8357C73.0865 99.7462 73.2185 99.7026 73.3514 99.7137C73.4724 99.7323 73.5829 99.7972 73.6624 99.8963C73.7419 99.9954 73.785 100.122 73.7838 100.253ZM71.2439 121.862V122.151C71.2177 122.289 71.1437 122.411 71.0369 122.493C70.93 122.575 70.7981 122.611 70.6675 122.594C70.6033 122.584 70.5415 122.561 70.4858 122.526C70.43 122.491 70.3814 122.444 70.3429 122.389C70.3043 122.333 70.2765 122.27 70.261 122.203C70.2456 122.135 70.243 122.065 70.2532 121.997V121.785C70.2594 121.716 70.2793 121.648 70.3116 121.587C70.3438 121.526 70.3876 121.473 70.4403 121.432C70.4929 121.39 70.5532 121.36 70.6171 121.345C70.6811 121.33 70.7473 121.329 70.8116 121.343C70.9359 121.352 71.0526 121.411 71.1391 121.507C71.2256 121.603 71.2758 121.729 71.2799 121.862H71.2439ZM71.0818 35.7691C71.0852 35.876 71.0576 35.9815 71.0028 36.071C70.9479 36.1606 70.8686 36.2298 70.7755 36.2694C70.651 36.3147 70.5151 36.3082 70.3949 36.2512C70.2746 36.1941 70.179 36.0906 70.1271 35.9615V35.7691C70.0789 35.6387 70.0803 35.4935 70.1307 35.3642C70.1811 35.2349 70.2767 35.1316 70.3973 35.0763C70.5193 35.0249 70.6552 35.0263 70.7763 35.0802C70.8973 35.1341 70.994 35.2363 71.0457 35.365V35.5767C71.0876 35.6315 71.1127 35.6986 71.1178 35.7691H71.0818ZM67.8574 143.338C67.8574 143.338 67.8574 143.338 67.8574 143.453V143.646C67.8466 143.714 67.823 143.78 67.7879 143.839C67.7528 143.898 67.707 143.948 67.6532 143.988C67.5994 144.027 67.5388 144.055 67.4748 144.069C67.4108 144.083 67.3449 144.083 67.281 144.069C67.2166 144.057 67.155 144.032 67.1 143.995C67.0449 143.957 66.9975 143.908 66.9605 143.851C66.9235 143.793 66.8978 143.729 66.8847 143.66C66.8717 143.592 66.8717 143.521 66.8847 143.453V143.241C66.8976 143.172 66.9232 143.106 66.9601 143.047C66.997 142.988 67.0444 142.937 67.0996 142.898C67.1548 142.859 67.2168 142.831 67.2819 142.818C67.347 142.804 67.414 142.804 67.4791 142.818C67.5922 142.844 67.6943 142.908 67.7693 143.002C67.8442 143.096 67.8879 143.214 67.8934 143.338H67.8574ZM63.6783 164.659C63.6783 164.659 63.6783 164.659 63.6783 164.774V164.986C63.659 165.062 63.6244 165.133 63.5768 165.193C63.5291 165.253 63.4698 165.302 63.4028 165.335C63.3358 165.368 63.2628 165.385 63.189 165.384C63.1153 165.384 63.0425 165.366 62.9758 165.332C62.8509 165.296 62.7439 165.21 62.6769 165.092C62.6098 164.974 62.5878 164.832 62.6155 164.697V164.486C62.6495 164.351 62.7293 164.235 62.8393 164.161C62.9493 164.086 63.0815 164.058 63.2099 164.082C63.2762 164.087 63.341 164.105 63.4004 164.137C63.4599 164.169 63.5129 164.213 63.5564 164.266C63.5999 164.32 63.6331 164.382 63.654 164.45C63.6749 164.517 63.6832 164.588 63.6783 164.659ZM59.0849 18.5851C59.1181 18.678 59.1181 18.7808 59.0849 18.8737C59.0505 18.9334 59.0048 18.9848 58.9507 19.0244C58.8965 19.064 58.8352 19.0911 58.7707 19.1038C58.7061 19.1165 58.6398 19.1146 58.576 19.0981C58.5122 19.0817 58.4524 19.0511 58.4004 19.0084L58.2382 18.8929C58.132 18.8083 58.0599 18.6836 58.0365 18.5443C58.0131 18.405 58.0401 18.2613 58.1121 18.1424C58.1913 18.028 58.3095 17.9517 58.4411 17.9301C58.5727 17.9084 58.707 17.9433 58.8147 18.027L58.9768 18.1424C59.0241 18.2032 59.0583 18.2744 59.077 18.3509C59.0957 18.4274 59.0983 18.5073 59.0849 18.5851ZM39.8826 12.2348C39.8689 12.3744 39.8048 12.5028 39.7039 12.5926C39.603 12.6825 39.4732 12.7267 39.3422 12.7159V12.1964L39.2161 12.7159V12.1771V11.6575H39.4143C39.4806 11.6624 39.5453 11.6812 39.6048 11.7129C39.6642 11.7446 39.7173 11.7886 39.7608 11.8422C39.8043 11.8959 39.8375 11.9581 39.8584 12.0255C39.8793 12.0929 39.8875 12.1641 39.8826 12.2348ZM19.5095 11.1957C19.4915 11.3355 19.423 11.4621 19.3186 11.5485C19.2142 11.6348 19.0822 11.674 18.9511 11.6575H18.753C18.6885 11.6534 18.6256 11.6346 18.5685 11.6022C18.5115 11.5699 18.4616 11.5248 18.4223 11.47C18.383 11.4153 18.3552 11.3521 18.3408 11.2849C18.3263 11.2176 18.3256 11.1478 18.3386 11.0803C18.3429 11.0108 18.3606 10.9431 18.3907 10.8814C18.4208 10.8197 18.4626 10.7654 18.5134 10.7219C18.5643 10.6785 18.6231 10.6468 18.686 10.629C18.749 10.6112 18.8147 10.6076 18.879 10.6184H19.0772C19.2046 10.6376 19.3203 10.7081 19.4007 10.8154C19.481 10.9227 19.52 11.0587 19.5095 11.1957ZM1.73032 1.32405C1.73032 1.39962 1.71596 1.47439 1.68809 1.54385C1.66022 1.61332 1.61943 1.67601 1.5682 1.72813C1.52464 1.77526 1.47275 1.81268 1.41555 1.83821C1.35834 1.86375 1.29696 1.87691 1.23496 1.87691C1.17296 1.87691 1.11158 1.86375 1.05437 1.83821C0.997164 1.81268 0.945276 1.77526 0.901712 1.72813C0.808 1.62117 0.755859 1.48015 0.755859 1.33365C0.755859 1.18715 0.808 1.04615 0.901712 0.939191C0.942281 0.890049 0.992175 0.850667 1.04808 0.823708C1.10398 0.79675 1.16461 0.782806 1.22595 0.782806C1.28728 0.782806 1.34792 0.79675 1.40382 0.823708C1.45973 0.850667 1.50962 0.890049 1.55019 0.939191H1.64026C1.7092 1.05335 1.74087 1.18866 1.73032 1.32405Z" fill="#69CBDE"/>
</svg>