<svg xmlns="http://www.w3.org/2000/svg" width="327" height="419" viewBox="0 0 327 419" fill="none">
  <path d="M326.257 351.942C326.253 352.012 326.235 352.08 326.205 352.143C326.175 352.206 326.134 352.261 326.083 352.306C326.033 352.351 325.974 352.385 325.911 352.405C325.848 352.425 325.782 352.431 325.717 352.423H325.537C325.405 352.409 325.283 352.341 325.196 352.233C325.109 352.126 325.063 351.988 325.068 351.846C325.086 351.708 325.152 351.582 325.252 351.494C325.351 351.405 325.479 351.359 325.609 351.365H325.825C325.952 351.384 326.068 351.454 326.148 351.562C326.229 351.669 326.268 351.805 326.257 351.942ZM306.028 353.655C306.025 353.773 305.987 353.887 305.919 353.98C305.851 354.074 305.757 354.142 305.65 354.174H305.452C305.389 354.191 305.324 354.195 305.26 354.185C305.196 354.175 305.134 354.151 305.079 354.115C305.024 354.079 304.975 354.032 304.937 353.976C304.899 353.92 304.872 353.857 304.858 353.789C304.83 353.654 304.852 353.513 304.919 353.395C304.986 353.277 305.093 353.191 305.218 353.154H305.416C305.545 353.124 305.679 353.147 305.793 353.218C305.906 353.29 305.991 353.404 306.028 353.539V353.655ZM287.024 361.352C287.023 361.45 286.997 361.547 286.95 361.631C286.902 361.716 286.835 361.785 286.754 361.833L286.574 361.929C286.516 361.962 286.453 361.982 286.388 361.988C286.323 361.995 286.257 361.987 286.195 361.965C286.133 361.944 286.075 361.909 286.026 361.863C285.976 361.817 285.936 361.761 285.907 361.698C285.849 361.575 285.836 361.432 285.873 361.3C285.91 361.167 285.993 361.055 286.106 360.986H286.304C286.361 360.953 286.425 360.933 286.49 360.927C286.555 360.921 286.621 360.929 286.683 360.95C286.745 360.972 286.803 361.007 286.852 361.052C286.901 361.098 286.942 361.154 286.97 361.217C286.998 361.271 287.016 361.33 287.024 361.39V361.352ZM269.605 372.667C269.606 372.751 269.586 372.834 269.548 372.908C269.51 372.982 269.456 373.045 269.389 373.09L269.227 373.225C269.116 373.302 268.981 373.331 268.851 373.306C268.72 373.281 268.604 373.204 268.525 373.09C268.454 372.969 268.43 372.824 268.457 372.684C268.484 372.545 268.56 372.421 268.669 372.34L268.813 372.224C268.867 372.184 268.928 372.155 268.993 372.14C269.058 372.125 269.125 372.123 269.19 372.136C269.255 372.148 269.318 372.175 269.373 372.213C269.429 372.251 269.477 372.301 269.515 372.359C269.579 372.461 269.611 372.582 269.605 372.705V372.667ZM253.393 385.752C253.391 385.834 253.373 385.914 253.338 385.987C253.304 386.06 253.255 386.125 253.195 386.175L253.051 386.291C253.006 386.341 252.951 386.382 252.891 386.409C252.83 386.437 252.765 386.451 252.7 386.451C252.634 386.451 252.569 386.437 252.509 386.409C252.448 386.382 252.394 386.341 252.349 386.291C252.257 386.19 252.206 386.056 252.206 385.916C252.206 385.775 252.257 385.641 252.349 385.54L252.529 385.406C252.603 385.35 252.69 385.317 252.781 385.31C252.871 385.303 252.962 385.322 253.043 385.366C253.124 385.409 253.193 385.475 253.242 385.556C253.291 385.638 253.318 385.732 253.321 385.829L253.393 385.752ZM237.181 398.876C237.181 398.961 237.163 399.044 237.128 399.121C237.094 399.197 237.045 399.265 236.983 399.318L236.821 399.434C236.713 399.518 236.579 399.552 236.447 399.531C236.316 399.509 236.198 399.433 236.118 399.318C236.081 399.262 236.055 399.198 236.041 399.13C236.027 399.062 236.026 398.993 236.037 398.924C236.049 398.856 236.073 398.791 236.109 398.733C236.145 398.676 236.191 398.626 236.245 398.587L236.407 398.452C236.459 398.411 236.518 398.382 236.58 398.366C236.643 398.349 236.708 398.346 236.772 398.357C236.835 398.368 236.896 398.392 236.951 398.428C237.006 398.464 237.054 398.512 237.091 398.568C237.109 398.689 237.084 398.813 237.019 398.914L237.181 398.876ZM219.888 410.422C219.886 410.517 219.859 410.611 219.812 410.692C219.764 410.773 219.698 410.839 219.618 410.883L219.438 410.999C219.321 411.06 219.186 411.07 219.061 411.027C218.937 410.984 218.833 410.891 218.772 410.768C218.741 410.706 218.722 410.639 218.716 410.569C218.71 410.5 218.718 410.429 218.738 410.363C218.758 410.296 218.791 410.235 218.834 410.182C218.877 410.13 218.929 410.087 218.988 410.056H219.15C219.268 409.992 219.404 409.979 219.531 410.018C219.658 410.057 219.767 410.146 219.834 410.268C219.806 410.325 219.77 410.377 219.726 410.422H219.888ZM200.902 418.254C200.901 418.37 200.863 418.483 200.794 418.574C200.726 418.664 200.631 418.728 200.524 418.754H200.308C200.19 418.757 200.074 418.715 199.982 418.636C199.89 418.557 199.826 418.447 199.802 418.323C199.779 418.199 199.797 418.07 199.853 417.959C199.909 417.848 200 417.762 200.11 417.715H200.29C200.353 417.695 200.419 417.689 200.484 417.698C200.549 417.707 200.611 417.73 200.667 417.766C200.723 417.802 200.771 417.851 200.809 417.908C200.846 417.966 200.872 418.031 200.884 418.1C200.854 418.167 200.803 418.221 200.74 418.254H200.902ZM180.709 418.369C180.718 418.413 180.718 418.459 180.709 418.504C180.676 418.636 180.594 418.749 180.483 418.818C180.371 418.886 180.239 418.905 180.115 418.869H179.971C179.844 418.834 179.736 418.746 179.67 418.625C179.604 418.504 179.586 418.36 179.62 418.225C179.653 418.089 179.735 417.974 179.849 417.904C179.962 417.833 180.096 417.814 180.223 417.849H180.403C180.468 417.915 180.515 417.997 180.541 418.088C180.566 418.18 180.568 418.276 180.547 418.369H180.709ZM165.398 404.899C165.401 405.016 165.366 405.131 165.299 405.225C165.233 405.319 165.139 405.386 165.032 405.415C164.925 405.444 164.813 405.433 164.712 405.385C164.612 405.337 164.53 405.254 164.479 405.149L164.371 404.976C164.323 404.855 164.318 404.72 164.356 404.595C164.395 404.47 164.475 404.365 164.581 404.299C164.687 404.232 164.812 404.21 164.933 404.235C165.054 404.261 165.161 404.333 165.236 404.437V404.629C165.293 404.706 165.325 404.801 165.326 404.899H165.398ZM157.166 384.982C157.163 385.09 157.131 385.195 157.073 385.284C157.016 385.373 156.935 385.442 156.842 385.483C156.78 385.507 156.715 385.517 156.65 385.514C156.584 385.51 156.52 385.493 156.461 385.462C156.402 385.432 156.35 385.389 156.307 385.336C156.264 385.283 156.231 385.222 156.211 385.155V384.982C156.185 384.918 156.171 384.849 156.17 384.779C156.17 384.709 156.183 384.639 156.208 384.574C156.233 384.51 156.27 384.451 156.317 384.402C156.364 384.353 156.42 384.315 156.481 384.29C156.603 384.238 156.739 384.24 156.86 384.293C156.981 384.347 157.078 384.449 157.13 384.578V384.79C157.098 384.861 157.056 384.926 157.004 384.982H157.166ZM150.501 364.392C150.502 364.504 150.469 364.613 150.407 364.703C150.346 364.793 150.258 364.859 150.159 364.893C150.097 364.916 150.032 364.926 149.967 364.921C149.902 364.916 149.838 364.897 149.781 364.864C149.723 364.831 149.672 364.786 149.632 364.732C149.592 364.677 149.562 364.614 149.546 364.546V364.335C149.512 364.202 149.526 364.06 149.587 363.939C149.647 363.817 149.748 363.724 149.87 363.68C149.997 363.643 150.132 363.658 150.249 363.722C150.366 363.786 150.456 363.895 150.501 364.027V364.238C150.464 364.307 150.407 364.361 150.339 364.392H150.501ZM144.989 343.417C144.992 343.537 144.956 343.655 144.887 343.749C144.818 343.844 144.72 343.91 144.611 343.937C144.548 343.957 144.482 343.963 144.417 343.954C144.352 343.945 144.289 343.922 144.233 343.886C144.177 343.849 144.129 343.801 144.092 343.743C144.054 343.686 144.029 343.621 144.016 343.552V343.34C144.001 343.273 143.998 343.204 144.008 343.136C144.017 343.068 144.04 343.002 144.073 342.943C144.107 342.884 144.151 342.833 144.203 342.792C144.255 342.751 144.314 342.722 144.376 342.705C144.439 342.689 144.504 342.686 144.568 342.696C144.632 342.707 144.693 342.731 144.748 342.766C144.803 342.802 144.852 342.849 144.89 342.905C144.928 342.96 144.955 343.023 144.971 343.09V343.302C144.955 343.33 144.934 343.355 144.91 343.375C144.885 343.395 144.857 343.409 144.827 343.417H144.989ZM140.377 322.25C140.377 322.369 140.34 322.485 140.271 322.579C140.203 322.673 140.107 322.74 139.999 322.77C139.87 322.798 139.736 322.772 139.625 322.697C139.514 322.621 139.435 322.502 139.405 322.365V322.135C139.392 322.068 139.391 321.998 139.403 321.931C139.415 321.864 139.439 321.8 139.474 321.743C139.509 321.685 139.555 321.636 139.608 321.598C139.661 321.559 139.72 321.533 139.783 321.519C139.912 321.49 140.046 321.516 140.157 321.592C140.268 321.667 140.347 321.786 140.377 321.923V322.135V322.25ZM136.469 300.871C136.471 300.994 136.432 301.113 136.359 301.208C136.287 301.303 136.185 301.368 136.072 301.391C136.007 301.405 135.94 301.405 135.875 301.391C135.81 301.377 135.748 301.35 135.693 301.311C135.638 301.271 135.59 301.221 135.553 301.162C135.516 301.103 135.491 301.037 135.478 300.967V300.755C135.457 300.615 135.489 300.472 135.566 300.357C135.644 300.241 135.761 300.163 135.892 300.14C135.956 300.126 136.022 300.126 136.086 300.14C136.15 300.154 136.211 300.181 136.264 300.221C136.318 300.26 136.364 300.311 136.399 300.37C136.434 300.429 136.458 300.494 136.469 300.563V300.775V300.871ZM132.902 279.357C132.88 279.48 132.818 279.591 132.728 279.671C132.637 279.751 132.524 279.795 132.407 279.795C132.289 279.795 132.176 279.751 132.085 279.671C131.995 279.591 131.933 279.48 131.911 279.357V279.165C131.898 279.096 131.898 279.026 131.911 278.958C131.924 278.889 131.95 278.825 131.987 278.767C132.024 278.71 132.071 278.661 132.126 278.623C132.182 278.586 132.243 278.561 132.307 278.549C132.371 278.535 132.437 278.535 132.501 278.549C132.565 278.563 132.626 278.591 132.68 278.63C132.734 278.67 132.779 278.72 132.814 278.779C132.849 278.838 132.873 278.904 132.884 278.972V279.203L132.902 279.357ZM129.605 257.767C129.607 257.894 129.567 258.019 129.491 258.117C129.415 258.216 129.309 258.283 129.191 258.305C129.127 258.316 129.062 258.313 128.999 258.297C128.936 258.28 128.877 258.251 128.825 258.21C128.773 258.168 128.729 258.116 128.696 258.057C128.663 257.997 128.642 257.931 128.633 257.863V257.651C128.612 257.511 128.644 257.367 128.721 257.252C128.799 257.137 128.916 257.059 129.047 257.035C129.111 257.024 129.176 257.027 129.239 257.044C129.302 257.06 129.361 257.09 129.413 257.131C129.465 257.172 129.509 257.224 129.542 257.284C129.575 257.343 129.597 257.409 129.605 257.478V257.69V257.767ZM126.363 236.253C126.368 236.379 126.329 236.503 126.252 236.6C126.175 236.696 126.067 236.758 125.949 236.772C125.886 236.786 125.821 236.786 125.758 236.772C125.695 236.758 125.636 236.73 125.583 236.69C125.531 236.651 125.487 236.6 125.454 236.541C125.42 236.482 125.399 236.417 125.39 236.349V236.137C125.369 236 125.398 235.859 125.472 235.744C125.546 235.629 125.659 235.55 125.787 235.522C125.917 235.504 126.049 235.54 126.156 235.622C126.263 235.704 126.337 235.826 126.363 235.964V236.176V236.253ZM122.886 214.797C122.885 214.919 122.845 215.036 122.773 215.13C122.701 215.225 122.601 215.29 122.49 215.316C122.362 215.339 122.23 215.308 122.122 215.229C122.015 215.15 121.94 215.03 121.914 214.893V214.662C121.901 214.595 121.901 214.526 121.914 214.459C121.927 214.391 121.953 214.328 121.991 214.272C122.028 214.216 122.075 214.169 122.13 214.133C122.185 214.098 122.246 214.075 122.31 214.066C122.374 214.052 122.44 214.052 122.504 214.066C122.568 214.08 122.629 214.107 122.682 214.147C122.736 214.186 122.782 214.237 122.817 214.296C122.852 214.354 122.876 214.42 122.886 214.489V214.701V214.797ZM118.96 193.495C118.957 193.614 118.917 193.729 118.845 193.82C118.772 193.911 118.673 193.973 118.563 193.995C118.499 194.012 118.433 194.015 118.368 194.004C118.303 193.992 118.241 193.967 118.185 193.929C118.129 193.891 118.082 193.842 118.044 193.784C118.007 193.726 117.982 193.66 117.969 193.591V193.379C117.966 193.253 118.005 193.13 118.079 193.031C118.153 192.932 118.257 192.865 118.372 192.839C118.488 192.814 118.609 192.833 118.713 192.893C118.817 192.953 118.898 193.05 118.942 193.168V193.379C118.956 193.416 118.962 193.455 118.96 193.495ZM114.33 172.327C114.33 172.447 114.292 172.562 114.224 172.656C114.155 172.75 114.06 172.817 113.952 172.847C113.889 172.864 113.824 172.868 113.76 172.858C113.696 172.848 113.634 172.824 113.579 172.788C113.524 172.752 113.475 172.705 113.437 172.649C113.399 172.593 113.372 172.529 113.357 172.462V172.25C113.339 172.183 113.333 172.113 113.341 172.044C113.35 171.974 113.372 171.907 113.406 171.847C113.439 171.788 113.485 171.736 113.539 171.696C113.592 171.656 113.653 171.629 113.718 171.615C113.842 171.58 113.974 171.599 114.086 171.667C114.197 171.736 114.278 171.849 114.312 171.981V172.193C114.321 172.218 114.327 172.243 114.33 172.27V172.327ZM108.746 151.372C108.745 151.485 108.712 151.596 108.651 151.689C108.59 151.782 108.503 151.852 108.404 151.891C108.277 151.934 108.14 151.921 108.022 151.856C107.904 151.792 107.815 151.68 107.773 151.545V151.333C107.739 151.201 107.753 151.059 107.814 150.937C107.874 150.816 107.975 150.723 108.098 150.679C108.222 150.636 108.357 150.645 108.475 150.707C108.592 150.768 108.683 150.875 108.728 151.006V151.218C108.736 151.249 108.742 151.282 108.746 151.314V151.372ZM100.784 131.34C100.782 131.457 100.745 131.57 100.678 131.663C100.61 131.755 100.517 131.822 100.411 131.852C100.305 131.882 100.193 131.875 100.091 131.831C99.9894 131.788 99.9038 131.71 99.8474 131.609L99.7573 131.417C99.7251 131.357 99.7043 131.292 99.6959 131.224C99.6876 131.156 99.6919 131.087 99.7086 131.021C99.7254 130.954 99.7542 130.893 99.7935 130.838C99.8328 130.784 99.8817 130.739 99.9375 130.705C100.052 130.634 100.189 130.615 100.317 130.651C100.445 130.687 100.554 130.776 100.622 130.897V131.09C100.693 131.134 100.75 131.201 100.784 131.282V131.34ZM88.2828 114.213C88.2828 114.338 88.2449 114.46 88.1747 114.56C88.0806 114.657 87.9546 114.712 87.8235 114.712C87.6923 114.712 87.5663 114.657 87.4722 114.56L87.3101 114.406C87.2188 114.305 87.1677 114.171 87.1677 114.031C87.1677 113.891 87.2188 113.756 87.3101 113.655C87.4012 113.559 87.5242 113.505 87.6523 113.505C87.7805 113.505 87.9035 113.559 87.9946 113.655L88.1567 113.79C88.2057 113.846 88.2425 113.913 88.2643 113.987C88.2861 114.06 88.2924 114.137 88.2828 114.213ZM70.1614 104.804C70.1506 104.872 70.127 104.938 70.0919 104.997C70.0568 105.056 70.011 105.106 69.9572 105.146C69.9034 105.185 69.8428 105.213 69.7788 105.227C69.7148 105.241 69.6489 105.241 69.5849 105.227H69.3688C69.2406 105.195 69.1293 105.11 69.0586 104.992C68.988 104.873 68.9635 104.73 68.9905 104.592C69.0206 104.455 69.0996 104.336 69.2107 104.261C69.3218 104.185 69.4561 104.159 69.5849 104.188H69.7651C69.8294 104.199 69.891 104.225 69.9461 104.262C70.0011 104.3 70.0485 104.348 70.0855 104.406C70.1225 104.463 70.1483 104.528 70.1613 104.597C70.1743 104.665 70.1743 104.735 70.1614 104.804ZM49.8423 103.707C49.8423 103.775 49.8297 103.843 49.8053 103.906C49.7808 103.969 49.745 104.026 49.6998 104.074C49.6547 104.122 49.6011 104.161 49.5421 104.187C49.4831 104.213 49.4198 104.226 49.3559 104.226H49.1578C49.0271 104.226 48.9015 104.172 48.8074 104.075C48.7133 103.978 48.6581 103.846 48.6534 103.707C48.6534 103.569 48.7047 103.437 48.7959 103.339C48.8871 103.242 49.0108 103.187 49.1398 103.187H49.3379C49.4686 103.187 49.5943 103.241 49.6883 103.338C49.7824 103.435 49.8376 103.567 49.8423 103.707ZM37.2329 1.08363C37.2344 1.16408 37.219 1.24386 37.1878 1.31712C37.1567 1.39038 37.1105 1.45526 37.0528 1.50697L36.9087 1.62243C36.8146 1.72 36.6886 1.77457 36.5574 1.77457C36.4263 1.77457 36.3003 1.72 36.2062 1.62243C36.1188 1.51972 36.0705 1.38595 36.0705 1.24719C36.0705 1.10843 36.1188 0.974654 36.2062 0.87195L36.3683 0.718003C36.4393 0.650091 36.5274 0.605946 36.6216 0.591046C36.7159 0.576146 36.8121 0.591151 36.8985 0.634195C36.9848 0.677238 37.0574 0.746429 37.1073 0.83317C37.1571 0.919911 37.182 1.02038 37.1789 1.12211L37.2329 1.08363ZM29.4872 102.918C29.4784 102.986 29.4569 103.052 29.4239 103.112C29.3909 103.171 29.3471 103.223 29.2951 103.265C29.2431 103.306 29.1839 103.335 29.121 103.352C29.0581 103.368 28.9927 103.371 28.9288 103.36H28.7126C28.587 103.328 28.4769 103.248 28.4038 103.134C28.3306 103.02 28.2994 102.881 28.3163 102.745C28.3271 102.676 28.3507 102.61 28.3858 102.551C28.4209 102.492 28.4667 102.442 28.5205 102.402C28.5743 102.363 28.6349 102.335 28.6989 102.321C28.7629 102.307 28.8288 102.307 28.8928 102.321H29.0729C29.1371 102.331 29.1988 102.354 29.2546 102.389C29.3103 102.424 29.3589 102.471 29.3975 102.526C29.4361 102.582 29.4639 102.645 29.4793 102.712C29.4947 102.78 29.4974 102.849 29.4872 102.918ZM22.1558 15.8045C22.1587 15.8714 22.1491 15.9382 22.1274 16.001C22.1057 16.0638 22.0725 16.1213 22.0297 16.1702L21.8856 16.3241C21.7914 16.4217 21.6654 16.4763 21.5343 16.4763C21.4031 16.4763 21.2772 16.4217 21.183 16.3241C21.1356 16.2756 21.0979 16.2174 21.0721 16.1529C21.0464 16.0884 21.0331 16.019 21.0331 15.9489C21.0331 15.8788 21.0464 15.8094 21.0721 15.7449C21.0979 15.6804 21.1356 15.6221 21.183 15.5736L21.3091 15.4197C21.4032 15.3221 21.5292 15.2675 21.6604 15.2675C21.7915 15.2675 21.9175 15.3221 22.0117 15.4197C22.0591 15.4698 22.0964 15.5299 22.1212 15.5961C22.146 15.6623 22.1578 15.7333 22.1558 15.8045ZM11.3477 93.5849C11.3493 93.7251 11.3047 93.8613 11.2216 93.9698C11.1762 94.0204 11.1217 94.0607 11.0614 94.0883C11.001 94.1158 10.936 94.13 10.8704 94.13C10.8047 94.13 10.7398 94.1158 10.6794 94.0883C10.6191 94.0607 10.5645 94.0204 10.5191 93.9698L10.411 93.8158C10.3636 93.7673 10.3259 93.7091 10.3001 93.6446C10.2744 93.5801 10.2611 93.5107 10.2611 93.4406C10.2611 93.3705 10.2744 93.3011 10.3001 93.2366C10.3259 93.1721 10.3636 93.1139 10.411 93.0654C10.4549 93.0153 10.5079 92.9753 10.5667 92.948C10.6256 92.9207 10.6891 92.9066 10.7533 92.9066C10.8175 92.9066 10.881 92.9207 10.9399 92.948C10.9987 92.9753 11.0517 93.0153 11.0956 93.0654L11.2397 93.2193C11.2942 93.2611 11.3389 93.3159 11.3701 93.3794C11.4014 93.4429 11.4184 93.5132 11.4198 93.5849H11.3477ZM9.36627 32.7769C9.39247 32.8645 9.39247 32.9587 9.36627 33.0463L9.25819 33.2387C9.18768 33.3572 9.0767 33.4415 8.94886 33.4739C8.82103 33.5062 8.68642 33.484 8.57368 33.4119C8.46284 33.3366 8.38388 33.2181 8.3536 33.0815C8.32332 32.9449 8.34412 32.8011 8.41156 32.6807L8.51964 32.4883C8.59016 32.3699 8.70113 32.2855 8.82897 32.2532C8.9568 32.2208 9.09142 32.243 9.20415 32.3151C9.27683 32.3643 9.33649 32.4326 9.37748 32.5135C9.41847 32.5943 9.43941 32.685 9.43832 32.7769H9.36627ZM1.94476 74.6498C1.94044 74.7655 1.90131 74.8767 1.83317 74.9668C1.76503 75.057 1.67151 75.1212 1.56649 75.1501C1.50374 75.1702 1.43774 75.176 1.37276 75.1671C1.30778 75.1583 1.24526 75.135 1.18924 75.0987C1.13322 75.0624 1.08494 75.014 1.04753 74.9566C1.01012 74.8991 0.984402 74.834 0.972045 74.7652V74.5536C0.956166 74.4852 0.953449 74.4142 0.964056 74.3447C0.974663 74.2752 0.998372 74.2088 1.03375 74.1494C1.06912 74.09 1.11543 74.0389 1.16985 73.9993C1.22427 73.9596 1.28567 73.9321 1.35032 73.9185C1.41427 73.9016 1.48079 73.8987 1.54582 73.91C1.61085 73.9213 1.67305 73.9467 1.72864 73.9845C1.78423 74.0222 1.83205 74.0717 1.8692 74.1298C1.90636 74.188 1.93206 74.2536 1.94476 74.3226V74.5151C1.95471 74.5593 1.95471 74.6055 1.94476 74.6498ZM1.71059 52.7897C1.71059 53.0783 1.38635 53.3862 1.11615 53.3285C0.845951 53.2708 0.665818 53.0976 0.701845 52.8089V52.6742C0.724047 52.5329 0.796284 52.4061 0.903594 52.3201C1.0109 52.2342 1.14506 52.1956 1.27827 52.2124C1.3423 52.2196 1.40435 52.2402 1.46084 52.2732C1.51732 52.3062 1.56712 52.3509 1.60733 52.4046C1.64754 52.4583 1.67738 52.5199 1.69511 52.5861C1.71283 52.6522 1.7181 52.7214 1.71059 52.7897Z" fill="#69CBDE"/>
</svg>