<svg xmlns="http://www.w3.org/2000/svg" width="568" height="536" viewBox="0 0 568 536" fill="none">
  <path d="M567.925 56.8279C567.925 56.9122 567.905 56.9952 567.867 57.0692C567.83 57.1433 567.775 57.2059 567.708 57.2513L567.546 57.386C567.438 57.4618 567.306 57.49 567.179 57.4649C567.051 57.4399 566.938 57.3634 566.862 57.2513C566.824 57.1947 566.798 57.1307 566.784 57.063C566.77 56.9954 566.769 56.9254 566.781 56.8573C566.792 56.7891 566.817 56.7242 566.852 56.6663C566.888 56.6084 566.934 56.5586 566.988 56.52L567.15 56.3853C567.203 56.3453 567.263 56.3171 567.326 56.3022C567.39 56.2873 567.455 56.2861 567.519 56.2987C567.583 56.3112 567.643 56.3373 567.698 56.3753C567.752 56.4133 567.798 56.4625 567.834 56.52C567.898 56.6077 567.93 56.7171 567.925 56.8279ZM553.208 71.8567C553.206 71.9996 553.155 72.1368 553.064 72.2416L552.919 72.3763C552.874 72.4269 552.819 72.4672 552.759 72.4948C552.699 72.5223 552.634 72.5365 552.568 72.5365C552.503 72.5365 552.438 72.5223 552.377 72.4948C552.317 72.4672 552.262 72.4269 552.217 72.3763C552.13 72.2736 552.081 72.1398 552.081 72.0011C552.081 71.8623 552.13 71.7285 552.217 71.6258L552.379 71.4719C552.424 71.4212 552.479 71.3809 552.539 71.3534C552.6 71.3259 552.665 71.3117 552.73 71.3117C552.796 71.3117 552.861 71.3259 552.921 71.3534C552.982 71.3809 553.036 71.4212 553.082 71.4719C553.169 71.5776 553.214 71.7157 553.208 71.8567ZM535.825 82.4596C535.822 82.584 535.78 82.7037 535.704 82.7984C535.629 82.8932 535.525 82.957 535.41 82.9792H535.194C535.13 82.9901 535.065 82.9872 535.002 82.9708C534.939 82.9543 534.88 82.9246 534.828 82.8834C534.776 82.8422 534.732 82.7902 534.699 82.7307C534.666 82.6711 534.645 82.6052 534.636 82.5366C534.626 82.4683 534.628 82.3985 534.644 82.3313C534.659 82.2641 534.687 82.2008 534.726 82.1453C534.764 82.0897 534.813 82.0429 534.869 82.0077C534.924 81.9725 534.986 81.9495 535.05 81.9401H535.23C535.294 81.9262 535.36 81.9262 535.424 81.9402C535.488 81.9541 535.549 81.9816 535.603 82.0211C535.656 82.0606 535.702 82.1113 535.737 82.1701C535.772 82.2289 535.796 82.2947 535.807 82.3634L535.825 82.4596ZM515.542 81.459V81.5552C515.516 81.6917 515.441 81.8121 515.333 81.891C515.226 81.9699 515.094 82.0013 514.965 81.9786H514.767C514.703 81.9694 514.642 81.9464 514.587 81.9109C514.532 81.8754 514.485 81.8282 514.448 81.7723C514.411 81.7163 514.384 81.6528 514.371 81.5857C514.358 81.5186 514.358 81.4492 514.371 81.382C514.38 81.3135 514.401 81.2475 514.434 81.188C514.467 81.1284 514.511 81.0765 514.563 81.0353C514.615 80.994 514.674 80.9643 514.737 80.9479C514.8 80.9314 514.865 80.9286 514.929 80.9394H515.145C515.26 80.9662 515.362 81.0346 515.434 81.1329C515.506 81.2312 515.544 81.3533 515.542 81.4782V81.459ZM495.403 78.0337C495.397 78.1055 495.377 78.175 495.343 78.2375C495.31 78.3001 495.264 78.3542 495.21 78.3962C495.155 78.4383 495.092 78.4672 495.026 78.481C494.96 78.4948 494.892 78.4932 494.826 78.4763H494.646C494.58 78.4693 494.517 78.4481 494.459 78.4139C494.401 78.3797 494.35 78.3332 494.31 78.2774C494.269 78.2216 494.24 78.1575 494.224 78.0892C494.207 78.0208 494.204 77.9496 494.214 77.8798C494.232 77.7401 494.3 77.6134 494.405 77.5271C494.509 77.4407 494.641 77.4015 494.772 77.418H494.988C495.056 77.4268 495.122 77.4509 495.18 77.4886C495.239 77.5262 495.289 77.5767 495.328 77.6366C495.367 77.6965 495.394 77.7646 495.407 77.8363C495.42 77.9081 495.418 77.9819 495.403 78.053V78.0337ZM475.138 75.5899C475.133 75.66 475.116 75.7283 475.086 75.7909C475.056 75.8535 475.014 75.9089 474.964 75.9539C474.913 75.9989 474.855 76.0324 474.792 76.0525C474.729 76.0727 474.663 76.0789 474.597 76.071H474.399C474.272 76.0564 474.154 75.9907 474.071 75.887C473.987 75.7834 473.944 75.6496 473.949 75.5129C473.953 75.4421 473.971 75.3729 474.001 75.3094C474.03 75.2459 474.071 75.1893 474.122 75.1428C474.172 75.0963 474.23 75.0608 474.293 75.0385C474.356 75.0162 474.423 75.0073 474.489 75.0126H474.687C474.754 75.0198 474.818 75.041 474.877 75.0749C474.935 75.1089 474.987 75.1549 475.029 75.2104C475.071 75.2659 475.102 75.3297 475.121 75.3981C475.139 75.4666 475.145 75.5383 475.138 75.6091V75.5899ZM454.783 74.3776C454.783 74.5205 454.729 74.6575 454.635 74.7586C454.54 74.8596 454.412 74.9164 454.278 74.9164H454.08C453.949 74.9114 453.826 74.8524 453.735 74.7519C453.644 74.6514 453.594 74.5172 453.594 74.3776C453.594 74.3085 453.607 74.2401 453.633 74.1768C453.658 74.1134 453.696 74.0565 453.743 74.0095C453.791 73.9625 453.847 73.9264 453.908 73.9037C453.969 73.8809 454.034 73.8719 454.098 73.8773H454.278C454.351 73.8596 454.426 73.8599 454.498 73.878C454.57 73.8961 454.637 73.9315 454.694 73.9817C454.752 74.0318 454.798 74.0952 454.829 74.1672C454.859 74.2391 454.875 74.3177 454.873 74.3968L454.783 74.3776ZM434.392 74.724C434.392 74.8604 434.344 74.9919 434.257 75.0919C434.17 75.192 434.051 75.253 433.923 75.2628H433.725C433.602 75.258 433.486 75.2037 433.399 75.1109C433.312 75.0181 433.261 74.8936 433.257 74.7624C433.256 74.6239 433.304 74.4901 433.39 74.3869C433.477 74.2838 433.596 74.2187 433.725 74.2044H433.923C433.988 74.1992 434.054 74.2081 434.116 74.2306C434.178 74.2532 434.235 74.2889 434.284 74.3356C434.333 74.3824 434.372 74.4392 434.4 74.5026C434.428 74.566 434.443 74.6347 434.446 74.7047L434.392 74.724ZM414.108 76.9177C414.105 77.0448 414.06 77.1668 413.981 77.2619C413.902 77.357 413.794 77.4191 413.676 77.4372H413.442C413.378 77.4511 413.312 77.4511 413.248 77.4371C413.184 77.4232 413.123 77.3957 413.07 77.3562C413.016 77.3167 412.97 77.266 412.935 77.2072C412.9 77.1484 412.876 77.0826 412.866 77.0139C412.845 76.8736 412.877 76.7302 412.954 76.6149C413.032 76.4996 413.149 76.4217 413.28 76.3981H413.496C413.627 76.3817 413.759 76.4208 413.863 76.5072C413.968 76.5935 414.036 76.7202 414.054 76.8599L414.108 76.9177ZM394.132 81.2281C394.127 81.3438 394.088 81.455 394.02 81.5452C393.952 81.6353 393.858 81.6995 393.753 81.7284H393.573C393.507 81.7633 393.434 81.7821 393.36 81.7836C393.286 81.7851 393.213 81.7693 393.145 81.7372C393.078 81.705 393.018 81.6574 392.969 81.5977C392.921 81.538 392.885 81.4677 392.865 81.3917C392.845 81.3157 392.841 81.2359 392.853 81.1579C392.865 81.0799 392.893 81.0058 392.934 80.9406C392.976 80.8754 393.031 80.8208 393.095 80.7807C393.158 80.7406 393.229 80.716 393.303 80.7085H393.519C393.582 80.6884 393.648 80.6826 393.713 80.6915C393.778 80.7003 393.84 80.7236 393.896 80.7599C393.952 80.7962 394.001 80.8446 394.038 80.902C394.076 80.9595 394.101 81.0247 394.114 81.0934C394.131 81.1424 394.137 81.1952 394.132 81.2473V81.2281ZM374.731 87.9054C374.73 88.0113 374.7 88.1145 374.646 88.2031C374.592 88.2917 374.515 88.362 374.425 88.4057H374.227C374.166 88.4334 374.1 88.4473 374.033 88.4466C373.967 88.446 373.901 88.4307 373.84 88.4019C373.779 88.373 373.725 88.3311 373.68 88.2788C373.635 88.2266 373.6 88.165 373.578 88.0979C373.555 88.0335 373.545 87.9648 373.547 87.896C373.549 87.8271 373.564 87.7593 373.59 87.6966C373.617 87.6339 373.656 87.5776 373.703 87.5309C373.75 87.4841 373.806 87.4479 373.867 87.4244H374.047C374.169 87.373 374.305 87.3743 374.426 87.4282C374.547 87.4821 374.643 87.5843 374.695 87.713C374.716 87.7816 374.728 87.8528 374.731 87.9247V87.9054ZM356.232 97.0651C356.231 97.1567 356.209 97.2468 356.168 97.3273C356.128 97.4078 356.069 97.4764 355.997 97.527L355.799 97.6424C355.742 97.6753 355.678 97.6955 355.613 97.7017C355.548 97.7078 355.482 97.6999 355.42 97.6784C355.358 97.6568 355.3 97.622 355.251 97.5762C355.202 97.5303 355.161 97.4743 355.133 97.4115C355.074 97.2883 355.062 97.1457 355.099 97.0132C355.135 96.8807 355.219 96.7684 355.331 96.6995H355.493C355.608 96.6292 355.744 96.6099 355.872 96.6459C356 96.6819 356.11 96.7703 356.177 96.8919C356.205 96.9525 356.223 97.0175 356.232 97.0844V97.0651ZM339.047 108.765C339.049 108.847 339.032 108.929 338.998 109.003C338.963 109.077 338.912 109.141 338.849 109.188L338.687 109.323C338.581 109.378 338.461 109.392 338.347 109.363C338.233 109.333 338.132 109.262 338.062 109.162C337.991 109.062 337.956 108.938 337.961 108.813C337.967 108.688 338.013 108.569 338.092 108.476L338.254 108.342C338.36 108.256 338.492 108.218 338.624 108.236C338.755 108.254 338.875 108.326 338.957 108.438C339.016 108.542 339.048 108.662 339.047 108.784V108.765ZM323.699 123.062C323.695 123.199 323.644 123.329 323.555 123.428L323.411 123.582C323.366 123.633 323.311 123.673 323.251 123.701C323.19 123.728 323.126 123.742 323.06 123.742C322.994 123.742 322.929 123.728 322.869 123.701C322.809 123.673 322.754 123.633 322.709 123.582C322.662 123.535 322.624 123.479 322.599 123.416C322.573 123.353 322.56 123.285 322.56 123.216C322.56 123.148 322.573 123.08 322.599 123.017C322.624 122.954 322.662 122.898 322.709 122.851L322.835 122.697C322.929 122.599 323.055 122.545 323.186 122.545C323.317 122.545 323.443 122.599 323.537 122.697C323.588 122.745 323.629 122.805 323.657 122.871C323.684 122.937 323.699 123.009 323.699 123.082V123.062ZM310.766 139.881C310.76 139.984 310.729 140.084 310.676 140.17L310.55 140.362C310.512 140.418 310.465 140.465 310.41 140.502C310.355 140.538 310.294 140.562 310.23 140.573C310.166 140.583 310.101 140.581 310.039 140.564C309.976 140.548 309.917 140.518 309.865 140.477C309.76 140.396 309.689 140.275 309.665 140.139C309.642 140.003 309.668 139.862 309.739 139.746L309.847 139.573C309.883 139.515 309.93 139.466 309.984 139.428C310.038 139.39 310.099 139.364 310.163 139.352C310.227 139.339 310.292 139.34 310.355 139.355C310.419 139.37 310.479 139.398 310.532 139.438C310.602 139.486 310.66 139.551 310.701 139.628C310.742 139.705 310.764 139.792 310.766 139.881ZM302.75 76.6867C302.75 76.8232 302.702 76.9547 302.615 77.0547C302.528 77.1547 302.409 77.2158 302.282 77.2255C302.214 77.2281 302.146 77.2161 302.083 77.1902C302.02 77.1643 301.962 77.125 301.913 77.0747C301.864 77.0244 301.826 76.9641 301.799 76.8975C301.773 76.8308 301.759 76.7591 301.759 76.6867V76.4558C301.759 76.318 301.81 76.1859 301.902 76.0884C301.993 75.991 302.116 75.9363 302.245 75.9363C302.374 75.9363 302.498 75.991 302.589 76.0884C302.681 76.1859 302.732 76.318 302.732 76.4558V76.6867H302.75ZM301.309 98.1427C301.309 98.1427 301.309 98.1427 301.309 98.2582V98.4699C301.279 98.6068 301.2 98.7257 301.089 98.8012C300.978 98.8767 300.843 98.9028 300.714 98.874C300.65 98.8604 300.588 98.8329 300.534 98.7932C300.479 98.7536 300.433 98.7025 300.398 98.6431C300.362 98.5837 300.339 98.5173 300.328 98.4478C300.317 98.3783 300.32 98.3073 300.336 98.2389V98.0273C300.367 97.9033 300.439 97.7953 300.539 97.7229C300.638 97.6504 300.758 97.6183 300.878 97.6322C300.997 97.6461 301.108 97.7052 301.19 97.7988C301.273 97.8924 301.321 98.0144 301.327 98.1427H301.309ZM300.462 158.701C300.478 158.777 300.478 158.856 300.462 158.932L300.372 159.143C300.311 159.266 300.207 159.359 300.083 159.402C299.958 159.446 299.823 159.435 299.706 159.374C299.647 159.344 299.594 159.301 299.551 159.248C299.509 159.195 299.476 159.134 299.456 159.067C299.436 159.001 299.428 158.931 299.434 158.861C299.44 158.791 299.459 158.724 299.489 158.662V158.489C299.539 158.383 299.621 158.297 299.721 158.245C299.821 158.193 299.934 158.178 300.043 158.202C300.152 158.227 300.25 158.289 300.323 158.379C300.395 158.469 300.438 158.582 300.444 158.701H300.462ZM299.435 55.2307C299.433 55.3466 299.397 55.4588 299.333 55.5519C299.268 55.645 299.178 55.7144 299.075 55.7503C298.946 55.7855 298.809 55.7647 298.695 55.6926C298.58 55.6205 298.497 55.5029 298.463 55.3654V55.1538C298.435 55.0188 298.457 54.8776 298.524 54.7594C298.591 54.6412 298.698 54.555 298.823 54.5188C298.886 54.4983 298.952 54.4916 299.017 54.4991C299.082 54.5066 299.145 54.528 299.202 54.5622C299.259 54.5963 299.309 54.6425 299.35 54.6978C299.39 54.7532 299.419 54.8166 299.435 54.8844V55.096V55.2307ZM294.031 118.348C294.026 118.451 293.995 118.551 293.941 118.637L293.851 118.81C293.781 118.928 293.671 119.013 293.544 119.049C293.417 119.084 293.283 119.068 293.167 119.002C293.056 118.927 292.977 118.808 292.947 118.672C292.916 118.535 292.937 118.391 293.005 118.271V118.079C293.075 117.96 293.186 117.876 293.314 117.843C293.442 117.811 293.576 117.833 293.689 117.905C293.76 117.941 293.821 117.995 293.868 118.062C293.915 118.129 293.947 118.208 293.959 118.29L294.031 118.348ZM292.572 178.675C292.581 178.739 292.581 178.803 292.572 178.867V179.06C292.55 179.127 292.516 179.189 292.471 179.242C292.426 179.295 292.372 179.337 292.312 179.368C292.252 179.398 292.186 179.416 292.12 179.419C292.053 179.422 291.987 179.411 291.924 179.387C291.863 179.363 291.808 179.327 291.76 179.28C291.713 179.234 291.674 179.177 291.648 179.115C291.621 179.052 291.606 178.984 291.604 178.915C291.602 178.846 291.613 178.778 291.636 178.713V178.502C291.681 178.37 291.771 178.263 291.889 178.202C292.007 178.141 292.142 178.131 292.266 178.175C292.356 178.218 292.433 178.289 292.487 178.377C292.541 178.466 292.571 178.569 292.572 178.675ZM291.996 34.8139C291.997 34.9084 291.976 35.0017 291.935 35.0856C291.894 35.1695 291.835 35.2414 291.762 35.2949C291.71 35.3305 291.652 35.3548 291.591 35.3663C291.53 35.3778 291.468 35.3764 291.408 35.362C291.347 35.3477 291.29 35.3208 291.24 35.2829C291.189 35.245 291.146 35.1968 291.113 35.141V35.0255C291.051 34.8989 291.035 34.7519 291.068 34.6132C291.101 34.4745 291.182 34.354 291.293 34.2751C291.345 34.2368 291.403 34.2103 291.464 34.1973C291.525 34.1843 291.588 34.1851 291.649 34.1995C291.71 34.214 291.768 34.2419 291.818 34.2814C291.869 34.3209 291.911 34.3712 291.942 34.429C292 34.5609 292.019 34.7087 291.996 34.8524V34.8139ZM286.592 199.496V199.631V199.823C286.558 199.96 286.475 200.078 286.36 200.15C286.245 200.222 286.108 200.243 285.979 200.208C285.853 200.167 285.746 200.078 285.679 199.956C285.612 199.835 285.591 199.691 285.619 199.554V199.342C285.657 199.208 285.742 199.095 285.856 199.027C285.97 198.958 286.105 198.94 286.232 198.976C286.331 199.022 286.413 199.102 286.465 199.203C286.517 199.304 286.537 199.42 286.52 199.534L286.592 199.496ZM281.746 220.663C281.755 220.708 281.755 220.753 281.746 220.798V220.99C281.716 221.127 281.637 221.246 281.526 221.322C281.415 221.397 281.281 221.423 281.152 221.394C281.087 221.381 281.026 221.353 280.971 221.314C280.917 221.274 280.871 221.223 280.835 221.164C280.8 221.104 280.776 221.038 280.766 220.968C280.755 220.899 280.758 220.828 280.774 220.759V220.548C280.781 220.479 280.8 220.413 280.831 220.353C280.862 220.293 280.904 220.24 280.954 220.197C281.004 220.154 281.062 220.122 281.124 220.103C281.185 220.084 281.25 220.078 281.314 220.086C281.378 220.093 281.44 220.114 281.496 220.148C281.552 220.181 281.602 220.225 281.642 220.279C281.682 220.333 281.712 220.394 281.73 220.46C281.748 220.526 281.753 220.595 281.746 220.663ZM281.008 134.935C281.01 135.009 280.996 135.081 280.968 135.148C280.94 135.215 280.898 135.274 280.846 135.32L280.683 135.493C280.592 135.59 280.469 135.644 280.341 135.644C280.213 135.644 280.09 135.59 279.999 135.493C279.908 135.393 279.857 135.258 279.857 135.118C279.857 134.978 279.908 134.844 279.999 134.743L280.143 134.608C280.212 134.535 280.3 134.486 280.396 134.467C280.491 134.447 280.59 134.459 280.68 134.501C280.769 134.542 280.844 134.611 280.896 134.699C280.948 134.787 280.975 134.889 280.972 134.993L281.008 134.935ZM279.603 17.8223C279.605 17.8862 279.595 17.95 279.574 18.0096C279.552 18.0692 279.519 18.1234 279.477 18.1686C279.431 18.2193 279.377 18.2596 279.316 18.2871C279.256 18.3146 279.191 18.3288 279.125 18.3288C279.06 18.3288 278.995 18.3146 278.934 18.2871C278.874 18.2596 278.819 18.2193 278.774 18.1686L278.63 18.0339C278.583 17.9854 278.545 17.9272 278.519 17.8627C278.493 17.7982 278.48 17.7288 278.48 17.6587C278.48 17.5886 278.493 17.5192 278.519 17.4547C278.545 17.3902 278.583 17.332 278.63 17.2835C278.724 17.1859 278.85 17.1313 278.981 17.1313C279.112 17.1313 279.238 17.1859 279.332 17.2835L279.477 17.4374C279.544 17.5593 279.563 17.7044 279.531 17.8415L279.603 17.8223ZM277.459 241.984C277.466 242.016 277.466 242.049 277.459 242.081V242.292C277.446 242.361 277.421 242.427 277.384 242.485C277.346 242.543 277.299 242.593 277.243 242.631C277.187 242.668 277.125 242.694 277.06 242.705C276.995 242.716 276.929 242.713 276.865 242.696C276.801 242.685 276.74 242.66 276.685 242.622C276.631 242.585 276.585 242.535 276.549 242.477C276.513 242.419 276.49 242.354 276.479 242.286C276.468 242.218 276.471 242.148 276.486 242.081V241.869C276.499 241.8 276.525 241.734 276.562 241.676C276.599 241.618 276.647 241.569 276.702 241.531C276.758 241.493 276.82 241.468 276.885 241.456C276.95 241.445 277.017 241.448 277.081 241.465C277.18 241.506 277.264 241.582 277.319 241.679C277.374 241.776 277.398 241.89 277.387 242.004L277.459 241.984ZM273.046 263.344C273.046 263.344 273.046 263.344 273.046 263.46V263.671C273.016 263.808 272.937 263.927 272.826 264.003C272.715 264.078 272.58 264.104 272.451 264.076C272.323 264.039 272.213 263.95 272.145 263.828C272.078 263.705 272.058 263.559 272.091 263.421V263.229C272.122 263.105 272.194 262.997 272.294 262.924C272.393 262.852 272.513 262.82 272.633 262.834C272.752 262.848 272.863 262.907 272.946 263C273.028 263.094 273.076 263.216 273.082 263.344H273.046ZM268.038 284.512C268.046 284.563 268.046 284.615 268.038 284.666V284.839C268.023 284.906 267.996 284.97 267.958 285.026C267.92 285.082 267.872 285.129 267.817 285.165C267.761 285.201 267.7 285.224 267.636 285.234C267.572 285.244 267.506 285.241 267.444 285.224C267.317 285.183 267.21 285.093 267.143 284.972C267.077 284.851 267.055 284.707 267.083 284.569V284.358C267.1 284.29 267.129 284.226 267.169 284.171C267.209 284.116 267.26 284.07 267.317 284.035C267.374 284.001 267.437 283.98 267.502 283.972C267.567 283.965 267.633 283.972 267.696 283.992C267.797 284.029 267.885 284.099 267.946 284.192C268.008 284.286 268.04 284.397 268.038 284.512ZM264.598 147.886C264.596 147.975 264.573 148.061 264.532 148.139C264.492 148.216 264.433 148.281 264.363 148.329L264.201 148.444C264.09 148.505 263.96 148.52 263.839 148.485C263.718 148.45 263.613 148.368 263.545 148.255C263.478 148.142 263.452 148.006 263.473 147.873C263.495 147.741 263.562 147.622 263.661 147.54L263.841 147.424C263.954 147.352 264.088 147.33 264.216 147.362C264.344 147.395 264.455 147.479 264.525 147.597C264.568 147.687 264.593 147.785 264.598 147.886ZM261.715 305.044C261.732 305.107 261.732 305.173 261.715 305.236V305.448C261.664 305.577 261.567 305.679 261.446 305.733C261.325 305.787 261.189 305.788 261.067 305.737C260.949 305.678 260.857 305.574 260.807 305.446C260.757 305.318 260.753 305.175 260.797 305.044V304.852C260.849 304.723 260.945 304.621 261.066 304.567C261.187 304.513 261.323 304.511 261.445 304.563C261.54 304.608 261.617 304.686 261.666 304.783C261.715 304.881 261.732 304.993 261.715 305.102V305.044ZM261.211 9.1629C261.206 9.30244 261.151 9.43458 261.057 9.5315C260.963 9.62843 260.837 9.68255 260.707 9.68246H260.491C260.362 9.66813 260.242 9.60307 260.156 9.49993C260.069 9.39678 260.021 9.26293 260.022 9.12441C260.031 8.98489 260.091 8.85469 260.189 8.76132C260.286 8.66796 260.414 8.61874 260.545 8.62408H260.743C260.812 8.62599 260.879 8.64353 260.941 8.67551C261.003 8.70749 261.058 8.75319 261.103 8.8096C261.147 8.866 261.18 8.93181 261.198 9.00267C261.217 9.07353 261.221 9.14783 261.211 9.22063V9.1629ZM247.935 319.63C247.936 319.762 247.889 319.888 247.806 319.985C247.722 320.081 247.608 320.14 247.485 320.15H247.269C247.205 320.155 247.141 320.147 247.08 320.125C247.019 320.104 246.962 320.07 246.914 320.025C246.865 319.98 246.826 319.926 246.797 319.865C246.768 319.804 246.751 319.737 246.746 319.669C246.741 319.53 246.784 319.394 246.867 319.287C246.95 319.18 247.068 319.11 247.197 319.091H247.377C247.508 319.081 247.638 319.125 247.738 319.215C247.839 319.304 247.903 319.433 247.917 319.572L247.935 319.63ZM246.89 158.681C246.89 158.777 246.864 158.872 246.816 158.953C246.769 159.035 246.701 159.1 246.62 159.143L246.458 159.259C246.4 159.296 246.335 159.321 246.268 159.332C246.2 159.342 246.132 159.338 246.066 159.319C246 159.301 245.939 159.268 245.885 159.223C245.831 159.178 245.787 159.122 245.754 159.059C245.721 158.995 245.701 158.925 245.694 158.852C245.687 158.78 245.694 158.707 245.714 158.637C245.735 158.568 245.768 158.504 245.812 158.448C245.856 158.393 245.911 158.348 245.972 158.316H246.152C246.27 158.252 246.406 158.238 246.533 158.278C246.66 158.317 246.769 158.406 246.836 158.527C246.867 158.594 246.885 158.666 246.89 158.739V158.681ZM242.459 16.2828C242.456 16.3596 242.438 16.4349 242.407 16.5043C242.376 16.5737 242.333 16.6358 242.279 16.6869L242.117 16.8216C242.073 16.8717 242.02 16.9117 241.961 16.939C241.902 16.9663 241.839 16.9804 241.775 16.9804C241.71 16.9804 241.647 16.9663 241.588 16.939C241.529 16.9117 241.476 16.8717 241.432 16.8216C241.385 16.7731 241.347 16.7149 241.321 16.6504C241.296 16.5859 241.282 16.5165 241.282 16.4464C241.282 16.3763 241.296 16.3069 241.321 16.2424C241.347 16.1779 241.385 16.1196 241.432 16.0711L241.576 15.9364C241.622 15.8858 241.676 15.8455 241.737 15.818C241.797 15.7904 241.862 15.7762 241.928 15.7762C241.993 15.7762 242.058 15.7904 242.119 15.818C242.179 15.8455 242.234 15.8858 242.279 15.9364C242.37 16.0148 242.433 16.1231 242.459 16.2443V16.2828ZM230.624 33.8325C230.643 33.9082 230.643 33.9877 230.624 34.0634V34.2558C230.599 34.3197 230.562 34.3773 230.515 34.425C230.468 34.4727 230.412 34.5094 230.352 34.5329C230.291 34.5565 230.226 34.5662 230.161 34.5616C230.096 34.5569 230.033 34.538 229.976 34.506C229.916 34.4788 229.862 34.4392 229.817 34.3895C229.772 34.3397 229.737 34.2809 229.713 34.2163C229.69 34.1518 229.679 34.0829 229.68 34.0136C229.682 33.9444 229.697 33.8763 229.724 33.8132L229.814 33.6016C229.872 33.4749 229.975 33.3778 230.099 33.331C230.224 33.2842 230.361 33.2916 230.48 33.3514C230.535 33.408 230.577 33.4775 230.602 33.5544C230.627 33.6312 230.635 33.7133 230.624 33.794V33.8325ZM230.282 310.201C230.277 310.332 230.225 310.455 230.138 310.547C230.093 310.598 230.038 310.638 229.978 310.666C229.917 310.693 229.852 310.708 229.787 310.708C229.721 310.708 229.656 310.693 229.596 310.666C229.535 310.638 229.481 310.598 229.436 310.547L229.291 310.393C229.23 310.35 229.179 310.293 229.14 310.225C229.102 310.158 229.078 310.083 229.07 310.005C229.062 309.927 229.069 309.848 229.093 309.774C229.116 309.699 229.155 309.631 229.205 309.574C229.256 309.517 229.318 309.473 229.386 309.444C229.455 309.415 229.528 309.402 229.601 309.407C229.675 309.412 229.746 309.434 229.811 309.471C229.876 309.509 229.932 309.561 229.976 309.624L230.12 309.778C230.173 309.824 230.215 309.883 230.243 309.95C230.271 310.017 230.284 310.089 230.282 310.163V310.201ZM229.003 169.246C229.004 169.34 228.981 169.433 228.937 169.514C228.893 169.595 228.828 169.662 228.751 169.708L228.589 169.804C228.534 169.84 228.474 169.865 228.41 169.877C228.347 169.889 228.282 169.887 228.219 169.871C228.157 169.856 228.097 169.828 228.045 169.788C227.992 169.749 227.948 169.698 227.913 169.64C227.879 169.582 227.856 169.517 227.845 169.45C227.834 169.382 227.836 169.313 227.85 169.246C227.864 169.179 227.891 169.115 227.928 169.059C227.965 169.003 228.012 168.955 228.066 168.919L228.265 168.803C228.32 168.769 228.381 168.747 228.445 168.738C228.509 168.729 228.573 168.733 228.635 168.751C228.697 168.769 228.755 168.8 228.806 168.842C228.857 168.884 228.899 168.936 228.931 168.996C228.973 169.058 228.997 169.131 229.003 169.207V169.246ZM223.977 54.3648C223.986 54.4092 223.986 54.4551 223.977 54.4995V54.7112C223.943 54.8445 223.863 54.9588 223.752 55.0305C223.642 55.1021 223.509 55.1256 223.383 55.096C223.318 55.0805 223.257 55.0509 223.203 55.009C223.149 54.9671 223.104 54.9138 223.07 54.8524C223.036 54.7911 223.015 54.723 223.006 54.6523C222.998 54.5817 223.004 54.51 223.023 54.4418V54.2301C223.039 54.1624 223.068 54.0989 223.109 54.0435C223.149 53.9882 223.199 53.942 223.256 53.9079C223.313 53.8737 223.376 53.8523 223.441 53.8448C223.507 53.8374 223.573 53.8441 223.635 53.8645C223.735 53.8975 223.822 53.9641 223.884 54.0542C223.945 54.1443 223.978 54.2532 223.977 54.3648ZM219.474 75.5322V75.7631C219.444 75.9 219.365 76.0189 219.254 76.0944C219.143 76.1699 219.009 76.196 218.88 76.1672C218.814 76.1563 218.751 76.1306 218.695 76.0916C218.639 76.0527 218.592 76.0014 218.556 75.9413C218.52 75.8812 218.497 75.8136 218.487 75.743C218.478 75.6724 218.483 75.6006 218.501 75.5322V75.3397C218.528 75.2032 218.602 75.0829 218.71 75.004C218.817 74.925 218.949 74.8936 219.078 74.9164C219.147 74.9321 219.213 74.9628 219.271 75.0066C219.33 75.0505 219.379 75.1066 219.416 75.1714C219.453 75.2363 219.477 75.3086 219.487 75.3839C219.497 75.4591 219.493 75.5358 219.474 75.6091V75.5322ZM216.106 294.422C216.11 294.531 216.081 294.639 216.025 294.73C215.968 294.821 215.886 294.89 215.79 294.929C215.695 294.967 215.59 294.972 215.491 294.943C215.393 294.914 215.305 294.853 215.241 294.768L215.115 294.614C215.024 294.514 214.972 294.379 214.972 294.239C214.972 294.099 215.024 293.964 215.115 293.864C215.16 293.813 215.215 293.773 215.275 293.745C215.336 293.718 215.4 293.704 215.466 293.704C215.532 293.704 215.597 293.718 215.657 293.745C215.717 293.773 215.772 293.813 215.817 293.864L215.943 294.018C216.009 294.075 216.058 294.15 216.086 294.234C216.115 294.319 216.122 294.41 216.106 294.499V294.422ZM215.619 96.9304V97.1613C215.607 97.2296 215.583 97.2946 215.548 97.3528C215.512 97.411 215.467 97.4612 215.413 97.5005C215.36 97.5399 215.299 97.5675 215.236 97.5819C215.172 97.5964 215.107 97.5973 215.043 97.5847C214.979 97.572 214.918 97.5461 214.864 97.5083C214.809 97.4705 214.762 97.4216 214.725 97.3645C214.688 97.3073 214.663 97.2429 214.649 97.1751C214.636 97.1072 214.635 97.0371 214.647 96.9689V96.7765C214.669 96.6364 214.742 96.5114 214.85 96.4285C214.957 96.3456 215.092 96.3116 215.223 96.3339C215.293 96.3443 215.361 96.371 215.42 96.4121C215.48 96.4533 215.53 96.5079 215.568 96.572C215.606 96.6362 215.63 96.7084 215.639 96.7836C215.648 96.8588 215.641 96.9352 215.619 97.0074V96.9304ZM214.971 473.209C214.981 473.273 214.981 473.338 214.971 473.401V473.594C214.951 473.66 214.918 473.722 214.875 473.774C214.832 473.827 214.78 473.87 214.721 473.901C214.662 473.931 214.598 473.949 214.532 473.952C214.467 473.956 214.402 473.945 214.34 473.921C214.28 473.897 214.224 473.861 214.177 473.814C214.129 473.768 214.091 473.711 214.064 473.649C214.037 473.586 214.022 473.518 214.02 473.449C214.018 473.38 214.029 473.312 214.052 473.247V473.036C214.072 472.969 214.105 472.908 214.148 472.856C214.191 472.804 214.244 472.762 214.304 472.733C214.363 472.704 214.427 472.688 214.493 472.688C214.558 472.687 214.623 472.7 214.683 472.728C214.782 472.773 214.864 472.853 214.916 472.954C214.968 473.055 214.988 473.172 214.971 473.286V473.209ZM212.431 118.444V118.637C212.413 118.776 212.344 118.903 212.24 118.989C212.136 119.076 212.004 119.115 211.872 119.098C211.807 119.092 211.744 119.07 211.687 119.036C211.63 119.002 211.58 118.955 211.541 118.898C211.502 118.842 211.475 118.778 211.46 118.71C211.446 118.641 211.445 118.57 211.458 118.502V118.271C211.484 118.133 211.558 118.011 211.665 117.929C211.772 117.847 211.904 117.811 212.035 117.828C212.106 117.841 212.173 117.87 212.233 117.913C212.292 117.957 212.343 118.013 212.38 118.079C212.418 118.144 212.442 118.218 212.45 118.294C212.459 118.37 212.452 118.448 212.431 118.521V118.444ZM212.197 181.465C212.196 181.544 212.178 181.622 212.143 181.693C212.109 181.763 212.059 181.823 211.999 181.869L211.854 182.004C211.809 182.055 211.755 182.095 211.694 182.122C211.634 182.15 211.569 182.164 211.503 182.164C211.438 182.164 211.373 182.15 211.312 182.122C211.252 182.095 211.197 182.055 211.152 182.004C211.065 181.901 211.016 181.767 211.016 181.629C211.016 181.49 211.065 181.356 211.152 181.253L211.314 181.119C211.41 181.025 211.535 180.974 211.665 180.974C211.795 180.974 211.92 181.025 212.017 181.119C212.126 181.229 212.191 181.381 212.197 181.542V181.465ZM209.891 140.189V140.458C209.887 140.528 209.869 140.595 209.839 140.657C209.809 140.719 209.767 140.773 209.716 140.816C209.665 140.86 209.607 140.892 209.544 140.909C209.481 140.927 209.415 140.931 209.351 140.92C209.286 140.916 209.222 140.897 209.164 140.864C209.107 140.832 209.056 140.788 209.015 140.733C208.974 140.679 208.945 140.616 208.928 140.549C208.911 140.482 208.908 140.411 208.918 140.343V140.189C208.923 140.119 208.94 140.052 208.97 139.99C209 139.928 209.042 139.874 209.093 139.83C209.144 139.787 209.203 139.755 209.266 139.738C209.329 139.72 209.394 139.716 209.459 139.727C209.569 139.739 209.673 139.792 209.751 139.876C209.83 139.96 209.879 140.071 209.891 140.189ZM208.09 161.876V162.126C208.087 162.196 208.072 162.265 208.044 162.328C208.016 162.391 207.977 162.448 207.928 162.495C207.879 162.542 207.822 162.577 207.76 162.6C207.698 162.622 207.633 162.631 207.567 162.626C207.435 162.612 207.313 162.544 207.226 162.437C207.139 162.329 207.094 162.191 207.099 162.049V161.837C207.113 161.698 207.177 161.569 207.278 161.479C207.379 161.39 207.508 161.345 207.639 161.356C207.756 161.365 207.866 161.419 207.948 161.507C208.031 161.595 208.081 161.713 208.09 161.837V161.876ZM205.748 492.664C205.774 492.758 205.774 492.858 205.748 492.952L205.622 493.145C205.586 493.202 205.539 493.251 205.485 493.289C205.431 493.327 205.37 493.353 205.306 493.366C205.242 493.379 205.177 493.377 205.114 493.362C205.05 493.348 204.99 493.319 204.937 493.279C204.883 493.241 204.837 493.191 204.802 493.133C204.766 493.075 204.742 493.01 204.73 492.942C204.718 492.874 204.719 492.804 204.733 492.736C204.747 492.669 204.774 492.605 204.811 492.548L204.919 492.375C204.954 492.316 205 492.265 205.053 492.225C205.107 492.185 205.167 492.157 205.231 492.143C205.295 492.128 205.361 492.128 205.425 492.141C205.489 492.155 205.55 492.182 205.604 492.221C205.657 492.278 205.698 492.348 205.723 492.425C205.748 492.501 205.757 492.583 205.748 492.664ZM203.712 277.142C203.712 277.224 203.694 277.304 203.659 277.378C203.625 277.451 203.575 277.515 203.514 277.565C203.407 277.649 203.272 277.683 203.141 277.662C203.009 277.64 202.891 277.564 202.812 277.449L202.686 277.257C202.632 277.14 202.62 277.007 202.651 276.881C202.683 276.755 202.756 276.646 202.857 276.573C202.958 276.5 203.08 276.469 203.201 276.485C203.322 276.501 203.433 276.564 203.514 276.66L203.622 276.834C203.694 276.947 203.726 277.083 203.712 277.219V277.142ZM197.804 196.821C197.804 196.94 197.766 197.056 197.696 197.148L197.57 197.321C197.531 197.376 197.482 197.422 197.427 197.456C197.371 197.49 197.31 197.513 197.246 197.522C197.183 197.531 197.118 197.526 197.056 197.508C196.994 197.49 196.936 197.46 196.885 197.418C196.832 197.376 196.786 197.323 196.753 197.262C196.719 197.201 196.697 197.133 196.689 197.063C196.68 196.993 196.685 196.921 196.704 196.853C196.722 196.785 196.753 196.722 196.795 196.667L196.903 196.513C196.942 196.456 196.992 196.408 197.049 196.371C197.106 196.335 197.169 196.312 197.235 196.303C197.301 196.294 197.368 196.299 197.432 196.319C197.495 196.339 197.555 196.372 197.606 196.417C197.677 196.47 197.734 196.542 197.769 196.627C197.804 196.712 197.816 196.806 197.804 196.898V196.821ZM196.741 147.424C196.741 147.516 196.719 147.606 196.678 147.686C196.637 147.767 196.579 147.835 196.507 147.886C196.394 147.958 196.26 147.98 196.132 147.948C196.004 147.916 195.893 147.831 195.823 147.713L195.714 147.54C195.647 147.419 195.626 147.275 195.657 147.139C195.687 147.002 195.766 146.884 195.877 146.808C195.987 146.735 196.12 146.709 196.248 146.738C196.376 146.767 196.488 146.847 196.561 146.962L196.651 147.155C196.687 147.203 196.714 147.259 196.729 147.318C196.745 147.378 196.749 147.44 196.741 147.501V147.424ZM193.391 258.36C193.394 258.462 193.369 258.563 193.317 258.649C193.266 258.735 193.191 258.802 193.103 258.841C193.045 258.873 192.982 258.892 192.917 258.897C192.853 258.902 192.788 258.892 192.727 258.868C192.666 258.845 192.61 258.808 192.563 258.76C192.516 258.713 192.479 258.655 192.454 258.591V258.399C192.417 258.275 192.423 258.141 192.471 258.022C192.52 257.902 192.607 257.806 192.716 257.749C192.826 257.693 192.951 257.681 193.068 257.716C193.186 257.75 193.287 257.829 193.355 257.937V258.149C193.398 258.237 193.411 258.34 193.391 258.437V258.36ZM192.526 509.097C192.528 509.17 192.515 509.243 192.487 509.31C192.459 509.376 192.417 509.435 192.364 509.482L192.22 509.636C192.126 509.733 192 509.788 191.869 509.788C191.737 509.788 191.611 509.733 191.517 509.636C191.47 509.587 191.432 509.529 191.406 509.465C191.381 509.4 191.367 509.331 191.367 509.261C191.367 509.191 191.381 509.121 191.406 509.057C191.432 508.992 191.47 508.934 191.517 508.885L191.661 508.732C191.707 508.681 191.761 508.641 191.822 508.613C191.882 508.586 191.947 508.571 192.013 508.571C192.078 508.571 192.143 508.586 192.204 508.613C192.264 508.641 192.319 508.681 192.364 508.732C192.422 508.786 192.467 508.855 192.495 508.932C192.523 509.009 192.534 509.092 192.526 509.174V509.097ZM188.275 216.045C188.284 216.096 188.284 216.148 188.275 216.199V216.41C188.223 216.527 188.134 216.619 188.024 216.672C187.913 216.724 187.789 216.732 187.674 216.695C187.558 216.657 187.459 216.577 187.394 216.469C187.329 216.36 187.303 216.23 187.32 216.103V215.891C187.339 215.825 187.369 215.764 187.41 215.71C187.451 215.657 187.502 215.613 187.559 215.581C187.616 215.549 187.678 215.529 187.742 215.523C187.806 215.516 187.871 215.524 187.933 215.545C188.034 215.575 188.123 215.641 188.185 215.731C188.247 215.822 188.279 215.932 188.275 216.045ZM187.014 237.809C186.992 237.932 186.93 238.043 186.84 238.123C186.75 238.202 186.636 238.246 186.519 238.246C186.401 238.246 186.288 238.202 186.197 238.123C186.107 238.043 186.045 237.932 186.023 237.809V237.616C186.01 237.547 186.011 237.475 186.025 237.405C186.039 237.336 186.067 237.27 186.106 237.212C186.144 237.155 186.194 237.106 186.251 237.07C186.308 237.033 186.372 237.01 186.438 237.001C186.568 236.983 186.7 237.019 186.807 237.101C186.914 237.183 186.988 237.305 187.014 237.443V237.674V237.809ZM186.906 128.412C186.905 128.513 186.877 128.612 186.826 128.697C186.775 128.782 186.703 128.85 186.618 128.893C186.5 128.954 186.365 128.965 186.241 128.921C186.116 128.878 186.013 128.785 185.951 128.662L185.861 128.451C185.806 128.32 185.802 128.172 185.849 128.039C185.897 127.905 185.992 127.797 186.113 127.739C186.172 127.71 186.236 127.694 186.301 127.692C186.366 127.69 186.43 127.702 186.491 127.727C186.551 127.752 186.606 127.79 186.653 127.838C186.699 127.887 186.736 127.944 186.762 128.008L186.852 128.181C186.906 128.247 186.943 128.327 186.96 128.412H186.906ZM178.926 108.361C178.928 108.47 178.898 108.577 178.84 108.667C178.781 108.757 178.698 108.825 178.602 108.861C178.542 108.886 178.477 108.897 178.413 108.895C178.348 108.893 178.285 108.877 178.226 108.848C178.168 108.82 178.115 108.779 178.071 108.728C178.027 108.677 177.993 108.618 177.971 108.553V108.361C177.929 108.228 177.935 108.083 177.988 107.954C178.042 107.826 178.139 107.724 178.26 107.668C178.32 107.641 178.384 107.627 178.45 107.628C178.515 107.629 178.579 107.644 178.639 107.673C178.698 107.702 178.751 107.744 178.794 107.796C178.838 107.848 178.87 107.91 178.89 107.976L178.98 108.168C178.988 108.232 178.988 108.297 178.98 108.361H178.926ZM176.134 522.086C176.135 522.18 176.112 522.273 176.068 522.354C176.023 522.436 175.959 522.503 175.882 522.548L175.72 522.663C175.604 522.729 175.469 522.746 175.342 522.71C175.215 522.674 175.106 522.589 175.035 522.471C175 522.414 174.976 522.349 174.965 522.281C174.954 522.214 174.956 522.144 174.971 522.077C174.986 522.011 175.014 521.948 175.053 521.893C175.092 521.838 175.141 521.793 175.197 521.759L175.395 521.644C175.451 521.609 175.512 521.587 175.576 521.578C175.64 521.569 175.704 521.574 175.766 521.592C175.828 521.609 175.886 521.64 175.937 521.682C175.988 521.724 176.03 521.776 176.062 521.836C176.101 521.875 176.133 521.923 176.155 521.976C176.176 522.029 176.188 522.086 176.188 522.144L176.134 522.086ZM172.063 87.8669C172.061 87.9778 172.027 88.0854 171.966 88.1749C171.905 88.2645 171.819 88.3316 171.721 88.3673C171.66 88.3912 171.596 88.4016 171.532 88.3979C171.468 88.3943 171.405 88.3765 171.348 88.3458C171.29 88.3152 171.24 88.2722 171.198 88.2196C171.157 88.167 171.126 88.1059 171.108 88.0401V87.8477C171.084 87.7214 171.104 87.5901 171.163 87.4777C171.222 87.3653 171.316 87.2792 171.43 87.235C171.543 87.1907 171.667 87.1913 171.78 87.2367C171.893 87.282 171.987 87.3691 172.045 87.4821V87.6938C172.06 87.7501 172.066 87.8085 172.063 87.8669ZM165.344 67.2961C165.343 67.4047 165.312 67.5106 165.254 67.5999C165.196 67.6891 165.115 67.7577 165.02 67.7964C164.895 67.8399 164.76 67.83 164.643 67.769C164.525 67.708 164.434 67.6005 164.389 67.4693V67.2769C164.347 67.1439 164.353 66.9986 164.406 66.8702C164.46 66.7418 164.557 66.6396 164.677 66.5841C164.804 66.54 164.942 66.5492 165.063 66.61C165.183 66.6709 165.277 66.7786 165.326 66.9113V67.1037C165.333 67.1676 165.333 67.2322 165.326 67.2961H165.344ZM158.139 46.9562C158.138 47.0599 158.109 47.1611 158.054 47.2469C158 47.3326 157.923 47.3989 157.832 47.4373C157.772 47.4654 157.707 47.4802 157.642 47.4808C157.576 47.4814 157.511 47.4678 157.45 47.4409C157.39 47.4139 157.335 47.3741 157.289 47.3239C157.243 47.2737 157.208 47.2141 157.184 47.1487V46.9562C157.157 46.8932 157.142 46.825 157.141 46.7558C157.139 46.6866 157.15 46.6177 157.173 46.5531C157.197 46.4886 157.232 46.4297 157.277 46.38C157.322 46.3302 157.376 46.2906 157.436 46.2635C157.558 46.2049 157.697 46.2004 157.821 46.2509C157.946 46.3014 158.048 46.4028 158.103 46.5329V46.7638C158.09 46.8321 158.065 46.8973 158.031 46.9562H158.139ZM157.652 530.976C157.653 531.088 157.62 531.197 157.559 531.287C157.497 531.377 157.41 531.444 157.31 531.477H157.166C157.104 531.498 157.04 531.505 156.975 531.499C156.911 531.493 156.849 531.473 156.792 531.441C156.735 531.408 156.684 531.364 156.643 531.311C156.603 531.258 156.572 531.196 156.553 531.13C156.513 530.998 156.522 530.853 156.579 530.728C156.636 530.602 156.737 530.505 156.86 530.457H157.022C157.086 530.433 157.153 530.423 157.221 530.427C157.288 530.432 157.354 530.451 157.415 530.483C157.475 530.516 157.529 530.561 157.573 530.616C157.617 530.671 157.65 530.734 157.67 530.803C157.677 530.862 157.671 530.921 157.652 530.976ZM149.366 27.2321C149.365 27.3307 149.339 27.4271 149.292 27.5116C149.244 27.5961 149.177 27.6656 149.096 27.7132C149.038 27.7461 148.975 27.7663 148.91 27.7724C148.845 27.7786 148.779 27.7707 148.717 27.7491C148.654 27.7276 148.597 27.6928 148.548 27.647C148.498 27.6011 148.458 27.5451 148.429 27.4823V27.3091C148.397 27.2497 148.377 27.1842 148.369 27.1163C148.36 27.0483 148.365 26.9794 148.381 26.9132C148.398 26.8471 148.427 26.7852 148.466 26.7309C148.505 26.6767 148.554 26.6312 148.61 26.5971C148.665 26.563 148.726 26.5409 148.79 26.5321C148.854 26.5233 148.918 26.528 148.98 26.5458C149.042 26.5637 149.1 26.5944 149.151 26.6362C149.202 26.6781 149.244 26.7301 149.276 26.7895L149.384 26.9819C149.4 27.0655 149.394 27.1521 149.366 27.2321ZM146.07 424.081V424.312C146.048 424.435 145.986 424.546 145.896 424.626C145.805 424.706 145.692 424.75 145.574 424.75C145.457 424.75 145.343 424.706 145.253 424.626C145.163 424.546 145.101 424.435 145.079 424.312V424.12C145.079 424.05 145.092 423.981 145.118 423.916C145.143 423.852 145.181 423.794 145.228 423.746C145.275 423.697 145.331 423.659 145.392 423.634C145.453 423.609 145.518 423.598 145.583 423.6C145.706 423.6 145.825 423.649 145.915 423.739C146.005 423.828 146.061 423.95 146.07 424.081ZM143.962 402.722C143.979 402.859 143.944 402.999 143.864 403.109C143.785 403.219 143.668 403.291 143.539 403.309C143.41 403.326 143.279 403.289 143.176 403.204C143.073 403.119 143.006 402.994 142.989 402.856V402.664C142.972 402.536 142.999 402.406 143.063 402.298C143.128 402.189 143.227 402.109 143.343 402.072C143.458 402.034 143.583 402.043 143.693 402.095C143.803 402.147 143.892 402.24 143.944 402.356V402.587C143.959 402.63 143.965 402.676 143.962 402.722ZM142.827 445.557C142.835 445.608 142.835 445.66 142.827 445.711V445.903C142.775 446.016 142.688 446.106 142.58 446.157C142.472 446.209 142.351 446.218 142.237 446.184C142.124 446.149 142.025 446.074 141.958 445.97C141.892 445.866 141.861 445.74 141.873 445.614V445.403C141.891 445.334 141.922 445.271 141.964 445.216C142.006 445.161 142.059 445.116 142.118 445.084C142.177 445.051 142.241 445.032 142.308 445.027C142.374 445.023 142.44 445.033 142.503 445.056C142.601 445.09 142.686 445.157 142.745 445.248C142.803 445.338 142.832 445.447 142.827 445.557ZM137.585 534.921C137.585 535.061 137.535 535.195 137.444 535.296C137.353 535.396 137.23 535.455 137.099 535.46H136.919C136.788 535.471 136.658 535.427 136.557 535.337C136.456 535.247 136.392 535.119 136.378 534.979C136.378 534.841 136.425 534.707 136.512 534.603C136.598 534.5 136.718 534.435 136.847 534.421H137.063C137.127 534.416 137.192 534.425 137.253 534.447C137.314 534.47 137.37 534.506 137.418 534.553C137.465 534.6 137.503 534.657 137.529 534.721C137.554 534.784 137.568 534.852 137.567 534.921H137.585ZM137.207 9.85564C137.201 9.98836 137.157 10.1159 137.081 10.2213C136.987 10.3188 136.861 10.3734 136.73 10.3734C136.599 10.3734 136.473 10.3188 136.378 10.2213L136.216 10.0673C136.155 10.0238 136.104 9.96643 136.065 9.89934C136.027 9.83226 136.003 9.75703 135.995 9.67895C135.987 9.60087 135.994 9.52182 136.018 9.44734C136.041 9.37286 136.08 9.30475 136.13 9.24779C136.181 9.19083 136.243 9.1464 136.311 9.1176C136.38 9.0888 136.453 9.07632 136.526 9.08107C136.6 9.08581 136.671 9.10766 136.736 9.14506C136.801 9.18247 136.857 9.23453 136.901 9.2976L137.027 9.4323C137.085 9.48402 137.131 9.54889 137.162 9.62215C137.193 9.69541 137.209 9.77518 137.207 9.85564ZM136.036 466.07C136.051 466.133 136.051 466.199 136.036 466.262V466.474C136.011 466.538 135.974 466.595 135.927 466.643C135.881 466.692 135.825 466.729 135.765 466.754C135.705 466.779 135.64 466.791 135.575 466.789C135.511 466.788 135.447 466.772 135.388 466.743C135.267 466.688 135.172 466.585 135.121 466.455C135.071 466.326 135.069 466.181 135.118 466.05V465.877C135.147 465.748 135.221 465.635 135.326 465.562C135.431 465.49 135.558 465.463 135.681 465.488C135.803 465.513 135.912 465.587 135.985 465.695C136.058 465.803 136.089 465.938 136.072 466.07H136.036ZM134.451 383.709C134.451 383.782 134.436 383.854 134.408 383.92C134.38 383.987 134.34 384.046 134.289 384.094C134.195 384.192 134.069 384.246 133.938 384.246C133.807 384.246 133.681 384.192 133.586 384.094L133.442 383.921C133.379 383.812 133.355 383.682 133.373 383.555C133.392 383.428 133.452 383.313 133.543 383.229C133.635 383.146 133.751 383.1 133.871 383.1C133.991 383.099 134.107 383.145 134.199 383.228L134.307 383.363C134.372 383.465 134.404 383.587 134.397 383.709H134.451ZM128.092 486.14C128.108 486.203 128.108 486.27 128.092 486.333V486.544C128.067 486.608 128.03 486.666 127.983 486.714C127.937 486.762 127.882 486.8 127.821 486.825C127.761 486.85 127.696 486.862 127.631 486.86C127.567 486.858 127.503 486.842 127.444 486.814C127.323 486.758 127.228 486.655 127.177 486.526C127.127 486.397 127.126 486.251 127.174 486.121V485.948C127.203 485.818 127.277 485.705 127.382 485.633C127.487 485.56 127.614 485.534 127.737 485.558C127.859 485.583 127.969 485.657 128.041 485.766C128.114 485.874 128.145 486.008 128.128 486.14H128.092ZM121.193 506.615C121.202 506.666 121.202 506.718 121.193 506.769V506.98C121.141 507.097 121.052 507.189 120.942 507.242C120.832 507.294 120.707 507.302 120.592 507.265C120.477 507.227 120.377 507.147 120.313 507.039C120.248 506.93 120.221 506.8 120.238 506.673V506.48C120.255 506.412 120.284 506.349 120.324 506.294C120.364 506.238 120.415 506.192 120.472 506.158C120.529 506.124 120.592 506.102 120.657 506.095C120.722 506.087 120.788 506.094 120.851 506.114C120.941 506.157 121.016 506.228 121.068 506.317C121.119 506.406 121.144 506.51 121.139 506.615H121.193ZM119.77 528.167C119.774 528.269 119.748 528.37 119.697 528.456C119.645 528.542 119.57 528.609 119.482 528.648C119.36 528.707 119.221 528.711 119.097 528.661C118.972 528.61 118.87 528.509 118.815 528.379V528.167C118.767 528.037 118.769 527.891 118.819 527.762C118.87 527.633 118.965 527.53 119.086 527.474C119.208 527.423 119.344 527.424 119.465 527.478C119.586 527.532 119.682 527.634 119.734 527.763V527.955C119.737 528.026 119.731 528.098 119.716 528.167H119.77ZM119.14 0.907635C119.126 1.04721 119.062 1.17557 118.961 1.26542C118.86 1.35526 118.73 1.3995 118.599 1.38871H118.419C118.289 1.37882 118.167 1.31506 118.079 1.21092C117.992 1.10678 117.946 0.970425 117.951 0.830661C117.953 0.760702 117.969 0.691949 117.996 0.628529C118.024 0.56511 118.063 0.508331 118.112 0.461603C118.161 0.414875 118.218 0.379159 118.28 0.356603C118.342 0.334046 118.408 0.325112 118.473 0.330338H118.689C118.799 0.359416 118.897 0.425796 118.969 0.519492C119.04 0.613187 119.081 0.729128 119.086 0.849894L119.14 0.907635ZM117.735 371.625C117.749 371.695 117.749 371.767 117.735 371.837C117.709 371.9 117.672 371.958 117.626 372.006C117.579 372.054 117.524 372.092 117.463 372.117C117.403 372.142 117.339 372.154 117.274 372.152C117.209 372.15 117.145 372.135 117.086 372.106H116.924C116.803 372.05 116.706 371.948 116.653 371.82C116.599 371.691 116.593 371.546 116.636 371.413C116.688 371.284 116.784 371.182 116.905 371.128C117.026 371.075 117.162 371.073 117.284 371.125H117.482C117.544 371.178 117.593 371.246 117.628 371.322C117.662 371.399 117.68 371.482 117.681 371.567L117.735 371.625ZM100.136 7.41178C100.134 7.49354 100.115 7.57384 100.081 7.647C100.046 7.72016 99.9975 7.78439 99.9374 7.83513L99.7753 7.96983C99.6699 8.02481 99.5499 8.03883 99.4358 8.00947C99.3218 7.9801 99.2209 7.90918 99.1505 7.80894C99.0801 7.70869 99.0446 7.58537 99.0502 7.4602C99.0557 7.33503 99.1019 7.21583 99.1809 7.12313L99.343 6.98843C99.4174 6.933 99.5044 6.90004 99.5949 6.893C99.6854 6.88597 99.7759 6.90512 99.8571 6.94845C99.9382 6.99179 100.007 7.0577 100.056 7.13923C100.105 7.22077 100.132 7.31493 100.136 7.41178ZM98.2082 365.332C98.2166 365.37 98.2166 365.41 98.2082 365.448C98.1953 365.515 98.1701 365.579 98.1342 365.635C98.0982 365.692 98.0521 365.74 97.9985 365.778C97.945 365.815 97.885 365.841 97.8221 365.854C97.7591 365.867 97.6944 365.866 97.6317 365.852H97.4156C97.2907 365.816 97.1837 365.729 97.1167 365.611C97.0496 365.493 97.0277 365.352 97.0553 365.217C97.0677 365.148 97.0934 365.083 97.1308 365.026C97.1682 364.968 97.2165 364.92 97.2725 364.883C97.3285 364.847 97.391 364.824 97.456 364.815C97.521 364.806 97.587 364.812 97.6497 364.832H97.8299C97.9349 364.861 98.0284 364.925 98.0966 365.015C98.1647 365.105 98.2038 365.217 98.2082 365.332ZM87.0579 23.9993C87.0762 24.0815 87.0762 24.1672 87.0579 24.2494L86.9498 24.4611C86.8791 24.5791 86.7695 24.6644 86.6427 24.7001C86.5159 24.7357 86.3812 24.7191 86.2653 24.6535C86.1514 24.5813 86.0687 24.4642 86.035 24.3274C86.0013 24.1905 86.0193 24.0451 86.0852 23.9223V23.7491C86.1407 23.6498 86.2247 23.5723 86.3247 23.528C86.4247 23.4836 86.5354 23.4748 86.6404 23.5029C86.7455 23.5309 86.8392 23.5943 86.9079 23.6837C86.9766 23.7731 87.0166 23.8838 87.0218 23.9993H87.0579ZM79.8525 44.2815C79.8525 44.2815 79.8525 44.2815 79.8525 44.4162V44.6086C79.8372 44.6755 79.8096 44.7386 79.7714 44.7942C79.7332 44.8498 79.6851 44.8968 79.6299 44.9325C79.5747 44.9683 79.5135 44.992 79.4497 45.0025C79.3859 45.0129 79.3208 45.0099 79.2581 44.9934C79.1954 44.977 79.1364 44.9476 79.0843 44.9068C79.0323 44.866 78.9883 44.8146 78.9549 44.7556C78.9214 44.6967 78.8991 44.6312 78.8894 44.5631C78.8796 44.4949 78.8825 44.4254 78.8978 44.3584V44.1467C78.9318 44.0134 79.0124 43.8991 79.1231 43.8275C79.2337 43.7558 79.3659 43.7324 79.4923 43.7619C79.5819 43.8098 79.6567 43.8843 79.7078 43.9764C79.7589 44.0685 79.7842 44.1744 79.7805 44.2815H79.8525ZM78.3935 360.291C78.3935 360.291 78.3935 360.406 78.3935 360.445C78.3519 360.58 78.2635 360.693 78.1463 360.761C78.029 360.829 77.8919 360.847 77.763 360.81H77.5829C77.4575 360.77 77.3517 360.679 77.2878 360.557C77.2239 360.435 77.207 360.291 77.2406 360.156C77.2572 360.088 77.2864 360.025 77.3265 359.969C77.3666 359.914 77.4167 359.868 77.4739 359.834C77.5311 359.8 77.5942 359.778 77.6593 359.771C77.7245 359.763 77.7904 359.77 77.8531 359.79H78.0512C78.1481 359.828 78.2324 359.896 78.2933 359.985C78.3542 360.074 78.3891 360.181 78.3935 360.291ZM76.43 65.7374V66.0068C76.4122 66.1445 76.3469 66.2701 76.2469 66.3591C76.147 66.4481 76.0196 66.494 75.8896 66.4879C75.8232 66.4807 75.7588 66.4595 75.7002 66.4256C75.6415 66.3916 75.5897 66.3456 75.5478 66.2901C75.506 66.2346 75.4748 66.1708 75.4561 66.1024C75.4375 66.0339 75.4318 65.9622 75.4393 65.8914V65.699C75.4571 65.5613 75.5223 65.4357 75.6223 65.3467C75.7222 65.2577 75.8497 65.2118 75.9797 65.2179C76.0892 65.2445 76.1867 65.3108 76.2556 65.4055C76.3246 65.5002 76.3607 65.6175 76.3579 65.7374H76.43ZM75.3492 87.4821V87.713C75.3469 87.7838 75.3315 87.8534 75.304 87.9178C75.2765 87.9822 75.2373 88.0402 75.1888 88.0885C75.1403 88.1367 75.0834 88.1743 75.0213 88.199C74.9591 88.2237 74.8931 88.2351 74.8268 88.2326C74.7614 88.2326 74.6966 88.2186 74.6364 88.1912C74.5762 88.1639 74.5218 88.124 74.4764 88.0736C74.431 88.0233 74.3955 87.9638 74.3722 87.8985C74.3488 87.8332 74.338 87.7636 74.3404 87.6938V87.4821C74.3404 87.3443 74.3917 87.2121 74.4829 87.1147C74.5741 87.0173 74.6978 86.9625 74.8268 86.9625C74.948 86.9764 75.0603 87.0367 75.1431 87.1322C75.2259 87.2277 75.2735 87.352 75.2772 87.4821H75.3492ZM75.3492 109.284V109.496C75.3271 109.619 75.2656 109.73 75.1752 109.81C75.0848 109.89 74.9711 109.934 74.8538 109.934C74.7365 109.934 74.6229 109.89 74.5325 109.81C74.4421 109.73 74.3805 109.619 74.3585 109.496V109.284C74.3445 109.207 74.3468 109.126 74.3652 109.049C74.3837 108.973 74.4177 108.901 74.4651 108.84C74.5124 108.779 74.5718 108.729 74.639 108.696C74.7062 108.662 74.7796 108.644 74.8538 108.644C74.9281 108.644 75.0015 108.662 75.0687 108.696C75.1359 108.729 75.1953 108.779 75.2426 108.84C75.2899 108.901 75.324 108.973 75.3424 109.049C75.3609 109.126 75.3632 109.207 75.3492 109.284ZM75.151 131.068V131.279C75.129 131.402 75.0674 131.513 74.977 131.593C74.8866 131.673 74.773 131.717 74.6557 131.717C74.5384 131.717 74.4247 131.673 74.3343 131.593C74.2439 131.513 74.1824 131.402 74.1603 131.279V131.048C74.1824 130.925 74.2439 130.814 74.3343 130.734C74.4247 130.655 74.5384 130.611 74.6557 130.611C74.773 130.611 74.8866 130.655 74.977 130.734C75.0674 130.814 75.129 130.925 75.151 131.048V131.068ZM65.7481 148.098H65.5319C65.468 148.098 65.4048 148.084 65.3458 148.058C65.2868 148.032 65.2332 147.994 65.188 147.945C65.1428 147.897 65.107 147.84 65.0826 147.777C65.0581 147.714 65.0455 147.646 65.0455 147.578C65.0455 147.438 65.0961 147.304 65.1869 147.204C65.2776 147.103 65.4013 147.044 65.5319 147.039H65.7301L65.7481 148.098ZM59.2452 352.632C59.2615 352.708 59.2615 352.787 59.2452 352.863C59.2202 352.927 59.183 352.984 59.136 353.032C59.0891 353.08 59.0334 353.116 58.9724 353.14C58.9115 353.164 58.8466 353.173 58.7819 353.169C58.7173 353.164 58.6542 353.145 58.5968 353.113H58.4166C58.298 353.051 58.2061 352.942 58.1593 352.81C58.1125 352.678 58.1143 352.532 58.1645 352.401C58.1914 352.337 58.2304 352.279 58.279 352.231C58.3277 352.183 58.3849 352.146 58.4473 352.123C58.5097 352.099 58.5759 352.09 58.6418 352.095C58.7078 352.099 58.7721 352.119 58.8309 352.151H59.0111C59.0864 352.202 59.1478 352.273 59.1889 352.358C59.2301 352.442 59.2495 352.537 59.2452 352.632ZM48.2571 138.111C48.2592 138.245 48.2143 138.375 48.131 138.476C48.0856 138.527 48.0311 138.567 47.9707 138.595C47.9103 138.622 47.8454 138.636 47.7798 138.636C47.7141 138.636 47.6491 138.622 47.5888 138.595C47.5284 138.567 47.4739 138.527 47.4285 138.476L47.2844 138.341C47.1942 138.244 47.1436 138.113 47.1436 137.976C47.1436 137.839 47.1942 137.708 47.2844 137.61C47.3298 137.56 47.3843 137.519 47.4447 137.492C47.505 137.464 47.57 137.45 47.6356 137.45C47.7013 137.45 47.7663 137.464 47.8266 137.492C47.887 137.519 47.9415 137.56 47.9869 137.61L48.149 137.764C48.2231 137.862 48.2615 137.985 48.2571 138.111ZM41.5021 341.952C41.4968 342.055 41.4657 342.155 41.412 342.241C41.3773 342.3 41.3318 342.351 41.2783 342.391C41.2247 342.43 41.1642 342.458 41.1003 342.473C41.0365 342.487 40.9706 342.488 40.9065 342.474C40.8424 342.461 40.7816 342.434 40.7275 342.395L40.5654 342.241C40.4605 342.159 40.3888 342.038 40.3653 341.902C40.3419 341.766 40.3683 341.625 40.4393 341.509C40.4771 341.451 40.5253 341.402 40.5811 341.363C40.6369 341.325 40.6992 341.299 40.7644 341.287C40.8297 341.274 40.8966 341.275 40.9613 341.291C41.0261 341.306 41.0874 341.334 41.1418 341.375L41.2859 341.49C41.3553 341.542 41.4114 341.611 41.4492 341.692C41.4869 341.772 41.5051 341.862 41.5021 341.952ZM32.8377 123.89C32.8639 123.978 32.8639 124.072 32.8377 124.159C32.767 124.277 32.6574 124.363 32.5306 124.398C32.4038 124.434 32.269 124.417 32.1532 124.352L31.973 124.217C31.8631 124.14 31.7862 124.02 31.7592 123.883C31.7322 123.746 31.7572 123.603 31.8289 123.486C31.9006 123.368 32.0129 123.286 32.1413 123.257C32.2697 123.229 32.4035 123.255 32.5134 123.332L32.6755 123.447C32.7324 123.503 32.7766 123.572 32.8047 123.648C32.8329 123.725 32.8441 123.808 32.8377 123.89ZM28.7306 284.011C28.7307 284.146 28.6819 284.275 28.5946 284.372C28.5072 284.469 28.3881 284.526 28.2623 284.531C28.1984 284.536 28.1341 284.528 28.0732 284.506C28.0123 284.485 27.956 284.451 27.9074 284.406C27.8589 284.362 27.8191 284.307 27.7904 284.246C27.7616 284.185 27.7444 284.118 27.7399 284.05V283.819C27.7349 283.679 27.7809 283.543 27.8683 283.439C27.9557 283.334 28.0776 283.271 28.2082 283.261C28.3391 283.255 28.4667 283.305 28.5642 283.398C28.6617 283.491 28.7213 283.622 28.7306 283.761V284.011ZM28.4964 305.544V305.814C28.4922 305.883 28.4745 305.951 28.4444 306.013C28.4143 306.074 28.3725 306.129 28.3217 306.172C28.2708 306.215 28.212 306.247 28.149 306.265C28.0861 306.283 28.0204 306.286 27.956 306.275C27.89 306.274 27.8251 306.257 27.7659 306.226C27.7066 306.195 27.6545 306.15 27.6133 306.095C27.572 306.04 27.5426 305.976 27.5271 305.907C27.5117 305.839 27.5105 305.767 27.5237 305.698V305.487C27.5279 305.417 27.5456 305.349 27.5757 305.288C27.6058 305.226 27.6477 305.172 27.6985 305.128C27.7494 305.085 27.8082 305.053 27.8711 305.035C27.9341 305.017 27.9998 305.014 28.0641 305.025C28.1835 305.039 28.2938 305.1 28.3736 305.196C28.4534 305.292 28.4972 305.416 28.4964 305.544ZM26.6951 327.212C26.7042 327.325 26.6771 327.438 26.6182 327.532C26.5593 327.627 26.472 327.697 26.3709 327.731C26.3144 327.76 26.2532 327.775 26.191 327.776C26.1287 327.778 26.0669 327.765 26.0094 327.74C25.9518 327.715 25.8998 327.677 25.8566 327.629C25.8134 327.581 25.78 327.524 25.7584 327.462C25.7087 327.326 25.7089 327.175 25.759 327.04C25.8091 326.904 25.9054 326.794 26.0286 326.731C26.0863 326.703 26.1488 326.687 26.2123 326.685C26.2758 326.684 26.339 326.696 26.398 326.721C26.4569 326.746 26.5105 326.784 26.5554 326.832C26.6003 326.88 26.6356 326.937 26.6591 327V327.116C26.7048 327.142 26.7471 327.174 26.7852 327.212H26.6951ZM25.9205 262.44C25.9191 262.561 25.8792 262.679 25.8072 262.773C25.7352 262.868 25.6355 262.933 25.5242 262.959C25.3955 262.982 25.2636 262.951 25.1562 262.872C25.0487 262.793 24.974 262.673 24.9478 262.536V262.324C24.9346 262.257 24.934 262.188 24.9459 262.121C24.9578 262.054 24.982 261.99 25.0172 261.932C25.0523 261.875 25.0977 261.826 25.1507 261.788C25.2037 261.749 25.2633 261.722 25.3261 261.709C25.4549 261.68 25.5892 261.706 25.7003 261.781C25.8114 261.857 25.8904 261.976 25.9205 262.113V262.324V262.44ZM21.2731 241.272C21.2728 241.387 21.2373 241.497 21.1722 241.588C21.1071 241.678 21.0159 241.743 20.9128 241.773C20.8501 241.793 20.7842 241.8 20.7191 241.792C20.6539 241.785 20.5909 241.764 20.5337 241.729C20.4765 241.695 20.4263 241.649 20.3862 241.594C20.3461 241.538 20.3169 241.475 20.3004 241.407V241.196C20.2812 241.129 20.275 241.058 20.282 240.989C20.289 240.919 20.309 240.852 20.341 240.79C20.373 240.729 20.4162 240.676 20.468 240.633C20.5198 240.59 20.5792 240.559 20.6426 240.541C20.7053 240.524 20.7706 240.52 20.8347 240.531C20.8987 240.541 20.9602 240.564 21.0156 240.6C21.0709 240.636 21.119 240.683 21.1571 240.739C21.1951 240.795 21.2223 240.859 21.2371 240.926V241.138L21.2731 241.272ZM15.6709 220.317C15.6688 220.433 15.633 220.545 15.5684 220.638C15.5039 220.731 15.4138 220.8 15.3107 220.836C15.248 220.857 15.1821 220.863 15.1169 220.856C15.0518 220.849 14.9887 220.827 14.9315 220.793C14.8743 220.759 14.8242 220.713 14.7841 220.657C14.744 220.602 14.7148 220.538 14.6982 220.471V220.278C14.676 220.211 14.6668 220.14 14.6712 220.07C14.6756 219.999 14.6936 219.93 14.724 219.867C14.7543 219.804 14.7965 219.748 14.8478 219.703C14.8991 219.658 14.9586 219.624 15.0225 219.605C15.149 219.569 15.2836 219.587 15.3979 219.655C15.5122 219.723 15.5972 219.837 15.6349 219.97V220.182C15.6833 220.203 15.7264 220.236 15.761 220.278L15.6709 220.317ZM13.5454 119.021C13.544 119.138 13.506 119.251 13.4374 119.342C13.3688 119.432 13.2735 119.496 13.1671 119.522H12.9869C12.858 119.557 12.7212 119.536 12.6065 119.464C12.4918 119.392 12.4084 119.274 12.3745 119.137C12.3584 119.07 12.355 119 12.3645 118.932C12.3739 118.863 12.3961 118.798 12.4297 118.738C12.4632 118.679 12.5075 118.628 12.5599 118.587C12.6123 118.547 12.6717 118.518 12.7348 118.502H12.9509C13.0798 118.473 13.2141 118.499 13.3251 118.575C13.4362 118.65 13.5152 118.769 13.5454 118.906V119.021ZM9.94268 199.38C9.94557 199.495 9.91135 199.608 9.84574 199.699C9.78012 199.79 9.68713 199.854 9.58242 199.881C9.45587 199.917 9.32122 199.899 9.20693 199.83C9.09264 199.762 9.00767 199.649 8.96997 199.515V199.303C8.9417 199.166 8.96311 199.022 9.02992 198.901C9.09673 198.779 9.20401 198.69 9.33023 198.649C9.39294 198.632 9.45823 198.628 9.52228 198.638C9.58632 198.649 9.64783 198.672 9.70319 198.708C9.75856 198.744 9.80666 198.791 9.84469 198.847C9.88272 198.903 9.90992 198.967 9.92468 199.034V199.226C9.93951 199.276 9.9456 199.328 9.94268 199.38ZM4.88093 178.213C4.89526 178.351 4.85775 178.489 4.77667 178.597C4.6956 178.706 4.57759 178.775 4.4486 178.79C4.31961 178.806 4.1902 178.766 4.08886 178.679C3.98751 178.592 3.92252 178.466 3.90819 178.329V178.117C3.9007 177.989 3.93629 177.862 4.00852 177.759C4.08075 177.657 4.18488 177.585 4.30218 177.557C4.41948 177.529 4.54224 177.547 4.64834 177.607C4.75444 177.668 4.83692 177.766 4.88093 177.886V178.098C4.91872 178.146 4.93802 178.208 4.93497 178.271L4.88093 178.213ZM1.27826 156.757C1.27951 156.888 1.23636 157.014 1.15685 157.113C1.07734 157.212 0.966853 157.277 0.845926 157.296C0.712949 157.307 0.581027 157.263 0.477198 157.174C0.37337 157.084 0.305507 156.956 0.287516 156.815V156.622C0.284844 156.491 0.327246 156.363 0.406751 156.263C0.486257 156.162 0.597366 156.096 0.71916 156.077C0.840953 156.059 0.965039 156.088 1.06801 156.16C1.17099 156.232 1.24576 156.342 1.27826 156.468V156.757ZM1.08011 134.839V134.955V135.147C1.06933 135.216 1.0457 135.282 1.01062 135.34C0.975552 135.399 0.929757 135.45 0.875968 135.489C0.82218 135.529 0.761487 135.556 0.697528 135.57C0.633568 135.584 0.567637 135.584 0.503668 135.57C0.439291 135.559 0.37775 135.534 0.322699 135.496C0.267647 135.459 0.220213 135.41 0.183233 135.352C0.146254 135.295 0.120487 135.23 0.107454 135.162C0.0944213 135.093 0.094387 135.023 0.107372 134.955V134.743C0.118155 134.674 0.141785 134.608 0.176857 134.55C0.211928 134.491 0.257723 134.44 0.311512 134.401C0.3653 134.361 0.425993 134.334 0.489952 134.32C0.553912 134.306 0.619843 134.306 0.683812 134.32C0.753956 134.32 0.823398 134.335 0.88798 134.364C0.952562 134.393 1.01096 134.436 1.05971 134.49C1.10846 134.544 1.14655 134.608 1.17172 134.677C1.19689 134.747 1.20861 134.822 1.20619 134.897L1.08011 134.839Z" fill="#69CBDE"/>
</svg>