<svg xmlns="http://www.w3.org/2000/svg" width="469" height="709" viewBox="0 0 469 709" fill="none">
  <path d="M468.551 707.782C468.56 707.827 468.56 707.873 468.551 707.917C468.539 707.986 468.513 708.051 468.476 708.108C468.438 708.166 468.39 708.214 468.334 708.251C468.278 708.287 468.215 708.31 468.15 708.319C468.085 708.328 468.019 708.322 467.957 708.302H467.758C467.695 708.286 467.636 708.257 467.584 708.217C467.531 708.176 467.487 708.125 467.453 708.065C467.42 708.006 467.398 707.941 467.388 707.872C467.379 707.804 467.382 707.734 467.398 707.667C467.432 707.529 467.515 707.412 467.63 707.34C467.745 707.268 467.882 707.247 468.011 707.282H468.191C468.294 707.312 468.385 707.377 468.45 707.467C468.515 707.557 468.551 707.668 468.551 707.782ZM449.043 701.509C449.051 701.567 449.051 701.625 449.043 701.682C448.998 701.814 448.907 701.921 448.789 701.982C448.672 702.043 448.536 702.053 448.412 702.01H448.214C448.093 701.954 447.996 701.852 447.943 701.723C447.889 701.595 447.883 701.45 447.926 701.317C447.948 701.252 447.982 701.193 448.025 701.142C448.069 701.091 448.122 701.05 448.181 701.022C448.239 700.993 448.303 700.977 448.367 700.975C448.432 700.973 448.496 700.984 448.556 701.009H448.736C448.829 701.048 448.909 701.118 448.964 701.207C449.018 701.297 449.046 701.402 449.043 701.509ZM430.165 693.273C430.181 693.349 430.181 693.428 430.165 693.504C430.106 693.631 430.004 693.728 429.879 693.775C429.755 693.821 429.618 693.814 429.498 693.754H429.336C429.276 693.727 429.222 693.688 429.177 693.638C429.132 693.588 429.097 693.529 429.073 693.465C429.05 693.4 429.039 693.331 429.04 693.262C429.042 693.193 429.057 693.125 429.084 693.061C429.142 692.935 429.244 692.836 429.367 692.786C429.491 692.737 429.628 692.739 429.75 692.792H429.93C430.006 692.843 430.067 692.914 430.108 692.999C430.149 693.083 430.169 693.178 430.165 693.273ZM412.151 683.228C412.153 683.323 412.13 683.417 412.086 683.499C412.041 683.581 411.977 683.649 411.899 683.695C411.821 683.74 411.732 683.762 411.643 683.758C411.555 683.754 411.469 683.724 411.395 683.671H411.233C411.119 683.599 411.036 683.482 411.002 683.345C410.969 683.208 410.987 683.062 411.052 682.94C411.084 682.88 411.127 682.828 411.177 682.786C411.228 682.744 411.286 682.713 411.348 682.695C411.41 682.677 411.475 682.673 411.538 682.682C411.602 682.691 411.663 682.713 411.719 682.747L411.899 682.863C411.951 682.907 411.994 682.963 412.025 683.026C412.056 683.088 412.074 683.157 412.079 683.228H412.151ZM394.984 671.471C394.982 671.574 394.951 671.675 394.894 671.759C394.858 671.817 394.812 671.866 394.758 671.904C394.703 671.942 394.643 671.968 394.579 671.981C394.515 671.993 394.449 671.992 394.386 671.977C394.323 671.962 394.263 671.934 394.21 671.894L394.03 671.779C393.937 671.696 393.875 671.581 393.856 671.454C393.836 671.327 393.859 671.196 393.922 671.086C393.959 671.03 394.007 670.982 394.062 670.946C394.117 670.91 394.178 670.886 394.241 670.875C394.305 670.864 394.37 670.867 394.433 670.884C394.495 670.9 394.554 670.93 394.606 670.97L394.768 671.086C394.816 671.136 394.853 671.196 394.878 671.262C394.903 671.329 394.914 671.4 394.912 671.471H394.984ZM378.863 658.116C378.865 658.242 378.827 658.364 378.754 658.463C378.709 658.513 378.655 658.553 378.594 658.581C378.534 658.609 378.469 658.623 378.403 658.623C378.338 658.623 378.273 658.609 378.212 658.581C378.152 658.553 378.097 658.513 378.052 658.463L377.89 658.328C377.798 658.227 377.747 658.093 377.747 657.953C377.747 657.812 377.798 657.678 377.89 657.577C377.981 657.481 378.104 657.427 378.232 657.427C378.36 657.427 378.483 657.481 378.574 657.577L378.736 657.712C378.8 657.835 378.819 657.979 378.79 658.116H378.863ZM363.929 643.299C363.924 643.441 363.874 643.577 363.785 643.684C363.691 643.781 363.565 643.836 363.434 643.836C363.303 643.836 363.177 643.781 363.083 643.684L362.939 643.53C362.894 643.481 362.858 643.422 362.834 643.359C362.811 643.295 362.799 643.226 362.8 643.157C362.8 643.089 362.814 643.021 362.839 642.958C362.865 642.894 362.902 642.837 362.948 642.789C362.994 642.741 363.048 642.703 363.108 642.678C363.168 642.652 363.232 642.64 363.296 642.64C363.361 642.641 363.424 642.656 363.484 642.683C363.543 642.71 363.596 642.749 363.641 642.799L363.785 642.953C363.847 643.055 363.872 643.178 363.857 643.299H363.929ZM350.293 627.116C350.292 627.193 350.275 627.269 350.244 627.339C350.213 627.408 350.169 627.47 350.113 627.52C350.022 627.616 349.899 627.67 349.771 627.67C349.643 627.67 349.52 627.616 349.429 627.52L349.285 627.347C349.194 627.249 349.144 627.118 349.144 626.981C349.144 626.844 349.194 626.713 349.285 626.615C349.33 626.565 349.385 626.524 349.445 626.497C349.505 626.469 349.57 626.455 349.636 626.455C349.702 626.455 349.766 626.469 349.827 626.497C349.887 626.524 349.942 626.565 349.987 626.615L350.113 626.769C350.186 626.868 350.224 626.99 350.221 627.116H350.293ZM338.08 609.662C338.081 609.746 338.061 609.829 338.023 609.903C337.985 609.977 337.931 610.04 337.864 610.085C337.811 610.125 337.751 610.154 337.688 610.169C337.625 610.184 337.559 610.185 337.495 610.172C337.432 610.16 337.371 610.134 337.317 610.096C337.262 610.058 337.216 610.008 337.18 609.951L337.072 609.778C337.035 609.721 337.009 609.657 336.996 609.589C336.982 609.522 336.981 609.452 336.993 609.384C337.005 609.316 337.029 609.251 337.064 609.193C337.099 609.135 337.144 609.086 337.198 609.046C337.251 609.007 337.311 608.98 337.374 608.965C337.437 608.951 337.502 608.95 337.566 608.962C337.63 608.975 337.69 609 337.744 609.038C337.799 609.076 337.845 609.124 337.882 609.181L337.99 609.354C338.054 609.442 338.086 609.551 338.08 609.662ZM327.47 591.073C327.466 591.166 327.441 591.257 327.397 591.337C327.353 591.418 327.292 591.486 327.218 591.535C327.1 591.599 326.964 591.613 326.837 591.573C326.71 591.534 326.602 591.445 326.534 591.323L326.426 591.131C326.395 591.069 326.376 591.002 326.37 590.932C326.364 590.863 326.372 590.792 326.392 590.726C326.412 590.66 326.445 590.598 326.488 590.545C326.531 590.493 326.583 590.45 326.642 590.419C326.698 590.383 326.76 590.359 326.825 590.35C326.89 590.341 326.956 590.347 327.019 590.367C327.082 590.387 327.14 590.421 327.19 590.466C327.24 590.511 327.28 590.568 327.308 590.631L327.398 590.804C327.422 590.891 327.428 590.983 327.416 591.073H327.47ZM318.554 571.484C318.554 571.588 318.524 571.689 318.47 571.775C318.415 571.86 318.338 571.927 318.248 571.965C318.126 572.016 317.99 572.015 317.869 571.961C317.747 571.907 317.651 571.805 317.599 571.676V571.484C317.574 571.421 317.561 571.353 317.561 571.284C317.561 571.216 317.573 571.148 317.597 571.085C317.621 571.021 317.657 570.963 317.702 570.915C317.747 570.866 317.801 570.827 317.86 570.801C317.919 570.774 317.983 570.76 318.047 570.76C318.111 570.76 318.175 570.773 318.234 570.799C318.294 570.825 318.348 570.863 318.393 570.911C318.439 570.959 318.475 571.017 318.5 571.08L318.59 571.272C318.569 571.347 318.539 571.418 318.5 571.484H318.554ZM311.06 551.183C311.056 551.293 311.021 551.399 310.96 551.488C310.899 551.577 310.815 551.645 310.718 551.683C310.655 551.707 310.589 551.716 310.523 551.712C310.456 551.707 310.392 551.688 310.333 551.655C310.274 551.623 310.221 551.578 310.179 551.523C310.137 551.468 310.106 551.405 310.087 551.336V551.144C310.065 551.08 310.054 551.011 310.056 550.942C310.058 550.873 310.073 550.805 310.1 550.743C310.126 550.68 310.165 550.624 310.212 550.577C310.259 550.53 310.315 550.494 310.376 550.471C310.5 550.427 310.635 550.437 310.753 550.498C310.87 550.559 310.961 550.666 311.006 550.798V551.009C311.033 551.063 311.051 551.122 311.06 551.183ZM304.575 530.612C304.576 530.723 304.543 530.832 304.482 530.922C304.42 531.013 304.333 531.079 304.233 531.112C304.109 531.155 303.974 531.146 303.856 531.085C303.738 531.024 303.648 530.916 303.603 530.785V530.573C303.58 530.509 303.571 530.44 303.574 530.372C303.577 530.303 303.594 530.236 303.623 530.175C303.651 530.114 303.692 530.059 303.741 530.015C303.79 529.971 303.847 529.938 303.909 529.919C304.033 529.876 304.168 529.885 304.286 529.946C304.404 530.008 304.495 530.115 304.539 530.246V530.458C304.562 530.506 304.574 530.558 304.575 530.612ZM298.145 509.945C298.144 510.053 298.113 510.159 298.055 510.248C297.997 510.338 297.915 510.406 297.82 510.445C297.694 510.489 297.556 510.48 297.435 510.419C297.315 510.358 297.221 510.25 297.172 510.118V509.906C297.135 509.837 297.113 509.761 297.107 509.682C297.101 509.603 297.111 509.523 297.137 509.449C297.163 509.375 297.204 509.308 297.258 509.253C297.311 509.197 297.375 509.155 297.445 509.129C297.515 509.103 297.589 509.094 297.663 509.103C297.737 509.111 297.808 509.137 297.871 509.178C297.935 509.219 297.989 509.275 298.03 509.341C298.071 509.407 298.098 509.481 298.109 509.56V509.771C298.123 509.802 298.135 509.834 298.145 509.868V509.945ZM291.101 489.489C291.102 489.596 291.074 489.7 291.019 489.789C290.965 489.878 290.887 489.948 290.795 489.99C290.673 490.041 290.537 490.04 290.416 489.986C290.295 489.932 290.198 489.83 290.147 489.701V489.489C290.099 489.359 290.1 489.214 290.15 489.085C290.201 488.955 290.296 488.852 290.417 488.797C290.541 488.751 290.677 488.758 290.798 488.815C290.918 488.872 291.013 488.975 291.065 489.104V489.297C291.081 489.334 291.093 489.373 291.101 489.412V489.489ZM281.05 470.766C281.051 470.894 281.006 471.018 280.924 471.112C280.833 471.209 280.71 471.263 280.582 471.263C280.453 471.263 280.33 471.209 280.239 471.112L280.077 470.978C279.986 470.877 279.935 470.742 279.935 470.602C279.935 470.462 279.986 470.328 280.077 470.227C280.123 470.176 280.177 470.136 280.238 470.109C280.298 470.081 280.363 470.067 280.428 470.067C280.494 470.067 280.559 470.081 280.619 470.109C280.68 470.136 280.734 470.176 280.78 470.227L280.942 470.362C281.01 470.456 281.047 470.57 281.05 470.689V470.766ZM261.722 467.052C261.719 467.171 261.679 467.286 261.607 467.377C261.534 467.468 261.435 467.53 261.325 467.552H261.127C261.007 467.558 260.888 467.517 260.795 467.435C260.702 467.353 260.641 467.237 260.623 467.11C260.61 467.043 260.609 466.974 260.621 466.906C260.633 466.839 260.657 466.775 260.692 466.718C260.727 466.661 260.773 466.611 260.826 466.573C260.879 466.535 260.938 466.508 261.001 466.494H261.217C261.345 466.476 261.475 466.509 261.582 466.587C261.688 466.665 261.764 466.783 261.794 466.917L261.722 467.052ZM242.015 472.632C242.015 472.746 241.979 472.857 241.914 472.948C241.849 473.038 241.758 473.103 241.655 473.133H241.457C241.394 473.156 241.327 473.165 241.261 473.159C241.195 473.153 241.131 473.132 241.073 473.097C241.015 473.063 240.965 473.016 240.925 472.959C240.886 472.902 240.858 472.836 240.844 472.767C240.811 472.632 240.827 472.488 240.891 472.366C240.955 472.244 241.061 472.153 241.186 472.113H241.385C241.511 472.077 241.646 472.095 241.76 472.163C241.874 472.232 241.959 472.345 241.997 472.478C242.005 472.503 242.011 472.529 242.015 472.555V472.632ZM222.344 478.405C222.341 478.524 222.303 478.638 222.235 478.731C222.167 478.824 222.073 478.892 221.966 478.925H221.768C221.705 478.945 221.639 478.951 221.574 478.942C221.509 478.933 221.447 478.91 221.391 478.874C221.335 478.837 221.286 478.789 221.249 478.731C221.212 478.674 221.186 478.609 221.174 478.54C221.141 478.407 221.158 478.266 221.222 478.147C221.286 478.028 221.392 477.941 221.516 477.905H221.732C221.858 477.88 221.988 477.906 222.098 477.977C222.207 478.047 222.289 478.159 222.326 478.29C222.326 478.29 222.344 478.271 222.344 478.309V478.405ZM202.368 482.754C202.365 482.881 202.319 483.003 202.24 483.099C202.161 483.194 202.053 483.256 201.935 483.274H201.737C201.606 483.29 201.474 483.251 201.37 483.165C201.265 483.078 201.197 482.952 201.179 482.812C201.169 482.744 201.171 482.674 201.187 482.607C201.202 482.539 201.23 482.476 201.268 482.421C201.307 482.365 201.356 482.318 201.411 482.283C201.467 482.248 201.529 482.225 201.593 482.215H201.809C201.873 482.205 201.939 482.207 202.001 482.224C202.064 482.24 202.124 482.27 202.176 482.311C202.228 482.352 202.271 482.404 202.304 482.464C202.337 482.523 202.359 482.59 202.368 482.658V482.754ZM182.031 483.947C182.031 484.018 182.017 484.088 181.99 484.153C181.964 484.218 181.924 484.276 181.875 484.323C181.825 484.37 181.767 484.406 181.704 484.427C181.641 484.449 181.574 484.456 181.508 484.448H181.364C181.235 484.433 181.116 484.368 181.029 484.265C180.943 484.162 180.895 484.028 180.896 483.89C180.905 483.75 180.965 483.62 181.062 483.527C181.16 483.433 181.287 483.384 181.418 483.389H181.616C181.725 483.403 181.826 483.456 181.901 483.54C181.977 483.625 182.023 483.735 182.031 483.851V483.947ZM180.734 165.86V166.052C180.727 166.123 180.707 166.191 180.675 166.252C180.643 166.314 180.6 166.368 180.547 166.411C180.495 166.455 180.435 166.486 180.371 166.504C180.307 166.521 180.24 166.525 180.175 166.514C180.111 166.505 180.049 166.482 179.993 166.446C179.938 166.411 179.889 166.365 179.851 166.309C179.812 166.253 179.784 166.19 179.769 166.123C179.753 166.056 179.751 165.986 179.761 165.918V165.687C179.783 165.564 179.844 165.453 179.935 165.373C180.025 165.293 180.139 165.249 180.256 165.249C180.374 165.249 180.487 165.293 180.578 165.373C180.668 165.453 180.73 165.564 180.752 165.687L180.734 165.86ZM176.572 145.231C176.575 145.312 176.56 145.392 176.529 145.466C176.498 145.539 176.451 145.604 176.392 145.655C176.35 145.701 176.3 145.738 176.244 145.764C176.189 145.789 176.129 145.802 176.068 145.802C176.008 145.802 175.948 145.789 175.892 145.764C175.836 145.738 175.786 145.701 175.744 145.655L175.618 145.481C175.566 145.369 175.553 145.241 175.581 145.119C175.608 144.997 175.675 144.889 175.768 144.814C175.862 144.739 175.978 144.701 176.095 144.707C176.212 144.713 176.324 144.762 176.41 144.846V144.943C176.477 144.993 176.533 145.059 176.572 145.135V145.231ZM173.87 186.161C173.887 186.237 173.887 186.316 173.87 186.392L173.78 186.585C173.716 186.704 173.612 186.792 173.489 186.831C173.366 186.871 173.233 186.859 173.118 186.797C173.003 186.736 172.914 186.63 172.87 186.501C172.826 186.372 172.829 186.23 172.88 186.104L172.97 185.911C173.031 185.788 173.135 185.695 173.259 185.652C173.384 185.609 173.519 185.619 173.636 185.68C173.712 185.731 173.773 185.802 173.814 185.887C173.855 185.971 173.875 186.066 173.87 186.161ZM164.684 205.616C164.7 205.692 164.7 205.771 164.684 205.847V206.039C164.657 206.101 164.618 206.157 164.571 206.203C164.523 206.249 164.467 206.283 164.406 206.305C164.345 206.327 164.281 206.335 164.217 206.329C164.154 206.323 164.092 206.303 164.035 206.27C163.977 206.241 163.925 206.2 163.882 206.15C163.839 206.099 163.805 206.04 163.783 205.976C163.762 205.911 163.752 205.843 163.755 205.775C163.758 205.706 163.774 205.639 163.801 205.577L163.891 205.366C163.952 205.243 164.056 205.15 164.181 205.107C164.305 205.063 164.44 205.074 164.558 205.135C164.618 205.199 164.661 205.279 164.683 205.367C164.705 205.455 164.705 205.547 164.684 205.635V205.616ZM161.639 479.252V479.791L161.477 480.291H161.297C161.235 480.27 161.177 480.235 161.128 480.189C161.079 480.143 161.038 480.087 161.01 480.024C160.981 479.961 160.965 479.893 160.962 479.823C160.958 479.753 160.968 479.683 160.991 479.618C161.036 479.486 161.127 479.379 161.244 479.318C161.362 479.257 161.497 479.247 161.621 479.291L161.459 479.791L161.639 479.252ZM158.703 137.015C158.703 137.154 158.653 137.288 158.562 137.389C158.471 137.489 158.347 137.548 158.217 137.553H157.947C157.816 137.553 157.69 137.499 157.596 137.402C157.502 137.305 157.447 137.173 157.442 137.034C157.44 136.964 157.451 136.894 157.474 136.829C157.497 136.764 157.533 136.704 157.578 136.654C157.624 136.604 157.678 136.564 157.738 136.536C157.798 136.509 157.863 136.495 157.929 136.495H158.127C158.191 136.49 158.256 136.499 158.317 136.521C158.378 136.544 158.434 136.58 158.481 136.627C158.529 136.674 158.567 136.731 158.592 136.794C158.618 136.858 158.631 136.926 158.631 136.995L158.703 137.015ZM155.821 225.225C155.837 225.301 155.837 225.38 155.821 225.456L155.731 225.648C155.704 225.712 155.665 225.77 155.616 225.818C155.568 225.866 155.511 225.903 155.448 225.926C155.386 225.95 155.32 225.959 155.254 225.954C155.188 225.95 155.123 225.93 155.065 225.898C154.949 225.833 154.862 225.722 154.822 225.589C154.781 225.456 154.791 225.312 154.848 225.186V225.013C154.898 224.907 154.979 224.821 155.08 224.769C155.18 224.717 155.293 224.702 155.402 224.726C155.511 224.751 155.609 224.813 155.682 224.903C155.754 224.993 155.797 225.106 155.803 225.225H155.821ZM147.373 245.064C147.381 245.134 147.381 245.206 147.373 245.276L147.283 245.488C147.256 245.55 147.217 245.605 147.17 245.651C147.123 245.698 147.067 245.733 147.007 245.757C146.947 245.78 146.883 245.79 146.819 245.787C146.755 245.784 146.692 245.767 146.634 245.738C146.575 245.711 146.521 245.671 146.476 245.621C146.43 245.571 146.395 245.513 146.372 245.448C146.348 245.384 146.337 245.315 146.339 245.245C146.341 245.176 146.355 245.108 146.382 245.045V244.853C146.407 244.789 146.445 244.731 146.491 244.683C146.538 244.635 146.593 244.597 146.653 244.572C146.714 244.547 146.778 244.535 146.843 244.537C146.908 244.539 146.972 244.554 147.031 244.583C147.132 244.613 147.221 244.679 147.283 244.77C147.345 244.861 147.377 244.971 147.373 245.083V245.064ZM144.275 469.38C144.268 469.501 144.224 469.617 144.148 469.707C144.105 469.758 144.052 469.798 143.993 469.825C143.934 469.852 143.87 469.866 143.806 469.866C143.742 469.866 143.678 469.852 143.62 469.825C143.561 469.798 143.508 469.758 143.464 469.707L143.302 469.573C143.255 469.526 143.217 469.469 143.192 469.406C143.166 469.344 143.153 469.276 143.153 469.207C143.153 469.139 143.166 469.071 143.192 469.008C143.217 468.945 143.255 468.888 143.302 468.842C143.341 468.787 143.389 468.741 143.445 468.707C143.5 468.672 143.562 468.65 143.625 468.641C143.689 468.632 143.754 468.637 143.816 468.655C143.878 468.673 143.936 468.703 143.986 468.745L144.148 468.88C144.209 468.948 144.252 469.032 144.274 469.123C144.296 469.213 144.296 469.309 144.275 469.4V469.38ZM139.501 265.154C139.511 265.218 139.511 265.283 139.501 265.346V265.558C139.445 265.677 139.349 265.77 139.232 265.818C139.116 265.866 138.986 265.866 138.87 265.818C138.753 265.77 138.657 265.677 138.601 265.558C138.545 265.439 138.531 265.302 138.564 265.173L138.654 264.962C138.676 264.897 138.71 264.838 138.754 264.787C138.798 264.737 138.852 264.698 138.911 264.671C138.97 264.643 139.034 264.63 139.098 264.63C139.162 264.63 139.226 264.645 139.285 264.673C139.361 264.726 139.422 264.801 139.46 264.89C139.498 264.978 139.513 265.077 139.501 265.173V265.154ZM138.42 139.266C138.425 139.396 138.383 139.522 138.302 139.619C138.222 139.716 138.109 139.776 137.988 139.786H137.79C137.661 139.802 137.532 139.766 137.428 139.683C137.324 139.601 137.253 139.479 137.231 139.343C137.216 139.201 137.252 139.057 137.332 138.943C137.413 138.828 137.531 138.751 137.664 138.727H137.862C137.927 138.716 137.994 138.72 138.058 138.738C138.122 138.755 138.182 138.787 138.234 138.83C138.286 138.873 138.33 138.927 138.362 138.989C138.394 139.051 138.414 139.119 138.42 139.189V139.266ZM132.314 285.513C132.33 285.569 132.33 285.63 132.314 285.686V285.879C132.269 286.01 132.178 286.117 132.06 286.178C131.943 286.239 131.807 286.249 131.683 286.206C131.622 286.186 131.564 286.154 131.515 286.11C131.466 286.066 131.426 286.011 131.397 285.95C131.368 285.888 131.352 285.821 131.348 285.753C131.345 285.684 131.355 285.616 131.377 285.552V285.34C131.397 285.273 131.43 285.212 131.473 285.159C131.516 285.107 131.568 285.064 131.627 285.033C131.686 285.002 131.75 284.985 131.815 284.981C131.881 284.978 131.946 284.989 132.007 285.013C132.108 285.058 132.192 285.137 132.248 285.237C132.303 285.338 132.326 285.455 132.314 285.571V285.513ZM130.224 453.64C130.219 453.749 130.183 453.855 130.121 453.942C130.058 454.03 129.972 454.095 129.874 454.128C129.776 454.162 129.671 454.162 129.572 454.13C129.474 454.098 129.387 454.034 129.323 453.947L129.197 453.774C129.157 453.719 129.129 453.655 129.113 453.587C129.098 453.518 129.096 453.448 129.108 453.379C129.12 453.31 129.145 453.244 129.182 453.186C129.219 453.129 129.267 453.08 129.323 453.043C129.375 453.002 129.434 452.973 129.497 452.956C129.56 452.94 129.625 452.937 129.688 452.948C129.752 452.958 129.813 452.983 129.868 453.019C129.923 453.055 129.97 453.102 130.008 453.158L130.116 453.332C130.185 453.418 130.223 453.527 130.224 453.64ZM125.973 306.219C125.981 306.27 125.981 306.322 125.973 306.373V306.565C125.935 306.699 125.85 306.812 125.736 306.88C125.622 306.948 125.487 306.967 125.36 306.931C125.235 306.89 125.129 306.8 125.065 306.677C125.002 306.555 124.985 306.412 125.018 306.276V306.065C125.056 305.931 125.141 305.818 125.255 305.749C125.37 305.681 125.504 305.663 125.631 305.699C125.74 305.741 125.832 305.821 125.894 305.925C125.956 306.03 125.984 306.153 125.973 306.276V306.219ZM120.569 327.232C120.576 327.277 120.576 327.322 120.569 327.367V327.559C120.535 327.698 120.452 327.817 120.338 327.892C120.224 327.967 120.088 327.993 119.956 327.963C119.832 327.927 119.725 327.841 119.658 327.723C119.591 327.604 119.569 327.463 119.596 327.328V327.117C119.611 326.979 119.676 326.853 119.777 326.766C119.878 326.679 120.008 326.639 120.137 326.655C120.266 326.67 120.384 326.739 120.465 326.848C120.546 326.956 120.583 327.094 120.569 327.232ZM120.209 434.339L119.794 434.627L119.326 434.839V434.627C119.279 434.495 119.283 434.347 119.337 434.218C119.391 434.088 119.49 433.986 119.614 433.935C119.675 433.91 119.739 433.899 119.803 433.901C119.868 433.903 119.931 433.919 119.99 433.948C120.048 433.976 120.101 434.017 120.145 434.068C120.189 434.118 120.223 434.178 120.245 434.243L119.794 434.435L120.209 434.339ZM118.317 142.634C118.315 142.758 118.272 142.878 118.197 142.972C118.121 143.067 118.018 143.131 117.903 143.153H117.705C117.574 143.17 117.442 143.135 117.335 143.052C117.229 142.97 117.155 142.848 117.128 142.71C117.108 142.57 117.139 142.427 117.217 142.312C117.295 142.196 117.412 142.118 117.543 142.095H117.741C117.804 142.081 117.869 142.081 117.931 142.095C117.994 142.109 118.054 142.137 118.106 142.177C118.159 142.216 118.203 142.267 118.236 142.326C118.269 142.385 118.291 142.45 118.299 142.518C118.31 142.535 118.317 142.554 118.321 142.574C118.324 142.594 118.323 142.614 118.317 142.634ZM116.516 348.534V348.63V348.823C116.494 348.963 116.421 349.088 116.313 349.171C116.205 349.254 116.071 349.288 115.939 349.265C115.875 349.254 115.814 349.229 115.759 349.191C115.703 349.154 115.656 349.105 115.619 349.047C115.582 348.99 115.556 348.925 115.543 348.857C115.53 348.788 115.53 348.718 115.543 348.65V348.438C115.543 348.3 115.594 348.168 115.686 348.07C115.777 347.973 115.901 347.918 116.03 347.918C116.159 347.918 116.282 347.973 116.373 348.07C116.465 348.168 116.516 348.3 116.516 348.438V348.534ZM114.715 413.729C114.713 413.851 114.673 413.969 114.601 414.063C114.529 414.157 114.43 414.223 114.318 414.249C114.254 414.263 114.188 414.263 114.124 414.249C114.061 414.235 114 414.208 113.946 414.168C113.892 414.129 113.846 414.078 113.811 414.019C113.776 413.96 113.753 413.894 113.742 413.826V413.614C113.729 413.547 113.728 413.478 113.74 413.411C113.752 413.344 113.776 413.279 113.811 413.222C113.846 413.165 113.892 413.116 113.945 413.077C113.998 413.039 114.057 413.012 114.12 412.998C114.185 412.984 114.252 412.984 114.317 412.998C114.382 413.011 114.444 413.039 114.5 413.078C114.555 413.117 114.602 413.168 114.639 413.227C114.676 413.286 114.702 413.352 114.715 413.422V413.633V413.729ZM113.598 370.086V370.356C113.58 370.493 113.515 370.619 113.415 370.708C113.315 370.797 113.187 370.843 113.057 370.837C112.992 370.832 112.928 370.813 112.869 370.781C112.811 370.749 112.759 370.705 112.717 370.651C112.675 370.597 112.643 370.534 112.624 370.467C112.605 370.4 112.6 370.329 112.607 370.259V370.048C112.621 369.908 112.685 369.78 112.786 369.69C112.887 369.6 113.016 369.556 113.147 369.567C113.273 369.594 113.385 369.671 113.461 369.781C113.537 369.891 113.573 370.027 113.562 370.163L113.598 370.086ZM112.697 392.062C112.693 392.203 112.638 392.338 112.544 392.438C112.451 392.538 112.325 392.596 112.193 392.601C112.062 392.596 111.938 392.537 111.848 392.436C111.757 392.336 111.706 392.201 111.706 392.062V391.869C111.706 391.733 111.754 391.601 111.841 391.501C111.928 391.401 112.047 391.34 112.175 391.331C112.307 391.33 112.435 391.384 112.532 391.48C112.629 391.577 112.688 391.709 112.697 391.85V392.062ZM98.1243 146.001C98.1256 146.126 98.0843 146.248 98.0082 146.344C97.932 146.439 97.8261 146.502 97.71 146.521H97.4938C97.3648 146.538 97.2345 146.501 97.1314 146.416C97.0284 146.331 96.9611 146.206 96.9444 146.068C96.9277 145.931 96.9629 145.791 97.0423 145.681C97.1217 145.571 97.2387 145.499 97.3677 145.481H97.5479C97.6785 145.464 97.8104 145.5 97.9172 145.582C98.0241 145.664 98.098 145.786 98.1243 145.924V146.001ZM77.8953 148.734C77.8956 148.865 77.8493 148.992 77.7658 149.088C77.6822 149.184 77.5676 149.243 77.4449 149.253H77.2468C77.1815 149.261 77.1153 149.255 77.0523 149.235C76.9893 149.215 76.9308 149.181 76.8803 149.136C76.8298 149.091 76.7883 149.036 76.7584 148.973C76.7286 148.91 76.7108 148.842 76.7064 148.772C76.7015 148.704 76.7092 148.635 76.7292 148.57C76.7493 148.505 76.7811 148.445 76.823 148.393C76.8648 148.341 76.9158 148.299 76.9731 148.268C77.0304 148.237 77.0928 148.219 77.1567 148.214H77.3549C77.4188 148.206 77.4836 148.212 77.5455 148.231C77.6074 148.249 77.6651 148.281 77.7154 148.324C77.7657 148.367 77.8074 148.42 77.8383 148.481C77.8692 148.541 77.8886 148.607 77.8953 148.676V148.734ZM69.1948 0.562093C69.1936 0.639306 69.177 0.715351 69.1459 0.785072C69.1148 0.854794 69.0701 0.916606 69.0147 0.966239L68.8706 1.1009C68.7765 1.19847 68.6505 1.25305 68.5193 1.25305C68.3882 1.25305 68.2622 1.19847 68.1681 1.1009C68.1207 1.0524 68.0829 0.994201 68.0572 0.929712C68.0314 0.865224 68.0181 0.795821 68.0181 0.725701C68.0181 0.655581 68.0314 0.586179 68.0572 0.52169C68.0829 0.457202 68.1207 0.398947 68.1681 0.350448L68.3122 0.196471C68.4063 0.0988985 68.5323 0.0443726 68.6634 0.0443726C68.7946 0.0443726 68.9206 0.0988985 69.0147 0.196471C69.0861 0.253023 69.1409 0.330096 69.1728 0.418686C69.2047 0.507277 69.2123 0.603749 69.1948 0.696808V0.562093ZM57.5402 149.715C57.5355 149.854 57.4803 149.987 57.3862 150.084C57.2921 150.18 57.1665 150.235 57.0358 150.234H56.8376C56.7039 150.234 56.5756 150.178 56.481 150.077C56.3864 149.976 56.3333 149.839 56.3333 149.696C56.3379 149.556 56.3931 149.424 56.4872 149.327C56.5813 149.23 56.7069 149.176 56.8376 149.176H57.0718C57.1471 149.179 57.2208 149.2 57.2874 149.238C57.354 149.276 57.4119 149.329 57.4568 149.393C57.5017 149.458 57.5325 149.532 57.547 149.611C57.5614 149.69 57.5591 149.772 57.5402 149.85V149.715ZM54.4059 15.5717C54.407 15.7002 54.3619 15.8242 54.2798 15.9181L54.1176 16.0912C54.0722 16.1419 54.0177 16.1822 53.9573 16.2097C53.897 16.2373 53.832 16.2514 53.7664 16.2514C53.7007 16.2514 53.6358 16.2373 53.5754 16.2097C53.515 16.1822 53.4605 16.1419 53.4151 16.0912C53.3278 15.9885 53.2794 15.8547 53.2794 15.716C53.2794 15.5772 53.3278 15.4435 53.4151 15.3408L53.5412 15.2061C53.6353 15.1085 53.7613 15.0539 53.8925 15.0539C54.0236 15.0539 54.1496 15.1085 54.2437 15.2061C54.3074 15.2686 54.3556 15.3471 54.3839 15.4344C54.4122 15.5217 54.4197 15.6152 54.4059 15.7064V15.5717ZM41.0219 32.2169C41.022 32.336 40.9839 32.4515 40.9138 32.5441L40.7878 32.698C40.7524 32.7573 40.7054 32.8077 40.6499 32.8455C40.5944 32.8833 40.5318 32.9076 40.4665 32.9167C40.4013 32.9259 40.3349 32.9197 40.2721 32.8985C40.2094 32.8774 40.1517 32.8417 40.1032 32.7942C40.0487 32.7559 40.0023 32.7059 39.9669 32.6474C39.9315 32.5888 39.908 32.523 39.8978 32.4541C39.8877 32.3853 39.8911 32.3149 39.9078 32.2476C39.9246 32.1802 39.9543 32.1174 39.9952 32.063L40.1393 31.8898C40.2304 31.7934 40.3533 31.7394 40.4815 31.7394C40.6097 31.7394 40.7327 31.7934 40.8238 31.8898C40.9245 31.9698 40.9948 32.086 41.0219 32.2169ZM36.7348 148.176L36.6447 148.695V148.156L36.4645 148.657C36.3382 148.633 36.2257 148.557 36.1515 148.445C36.0773 148.334 36.0473 148.195 36.0682 148.06C36.0904 147.924 36.1607 147.802 36.2647 147.72C36.3686 147.637 36.4982 147.601 36.6267 147.617V148.137L36.7888 147.637L36.7348 148.176ZM29.1151 49.9013C29.1416 49.9954 29.1416 50.0958 29.1151 50.1899L29.007 50.3631C28.9723 50.4221 28.9268 50.4731 28.8733 50.513C28.8197 50.5529 28.7592 50.5809 28.6953 50.5952C28.6315 50.6096 28.5655 50.6101 28.5015 50.5966C28.4374 50.5832 28.3765 50.5562 28.3225 50.5171C28.2672 50.48 28.2195 50.4314 28.1822 50.3742C28.1448 50.317 28.1187 50.2523 28.1052 50.1841C28.0918 50.1159 28.0913 50.0455 28.1039 49.977C28.1165 49.9086 28.1418 49.8436 28.1784 49.7858L28.2505 49.5357C28.2852 49.4766 28.3307 49.4256 28.3842 49.3857C28.4377 49.3459 28.4983 49.3179 28.5621 49.3036C28.626 49.2892 28.6919 49.2887 28.756 49.3021C28.82 49.3155 28.8809 49.3427 28.935 49.3817C28.9937 49.4325 29.0406 49.4972 29.0718 49.5707C29.1031 49.6441 29.1179 49.7244 29.1151 49.8051V49.9013ZM18.8114 68.6825C18.8298 68.7647 18.8298 68.8504 18.8114 68.9326V69.1251C18.75 69.2483 18.6462 69.3413 18.5219 69.3843C18.3975 69.4274 18.2624 69.4172 18.145 69.356C18.0861 69.3254 18.0337 69.2825 17.9908 69.2298C17.9479 69.177 17.9153 69.1156 17.8951 69.0491C17.875 68.9827 17.8676 68.9125 17.8733 68.8429C17.8791 68.7733 17.898 68.7056 17.9288 68.644L18.0189 68.4515C18.0734 68.3531 18.1559 68.2759 18.2543 68.2309C18.3527 68.1858 18.4619 68.1754 18.5663 68.2011C18.6706 68.2269 18.7645 68.2873 18.8345 68.3738C18.9045 68.4604 18.9469 68.5685 18.9555 68.6825H18.8114ZM17.5505 142.576C17.5675 142.639 17.5675 142.705 17.5505 142.768C17.5285 142.833 17.4946 142.892 17.4508 142.943C17.4071 142.994 17.3543 143.035 17.2956 143.063C17.237 143.092 17.1735 143.108 17.1091 143.11C17.0446 143.112 16.9803 143.101 16.9201 143.076H16.7399C16.6771 143.053 16.6194 143.016 16.5705 142.968C16.5215 142.92 16.4823 142.861 16.4553 142.796C16.4283 142.731 16.4141 142.661 16.4134 142.59C16.4128 142.519 16.4258 142.449 16.4517 142.383C16.4737 142.319 16.5076 142.259 16.5514 142.209C16.5951 142.158 16.6479 142.117 16.7066 142.088C16.7652 142.06 16.8287 142.044 16.8931 142.042C16.9576 142.039 17.0219 142.051 17.0822 142.075L17.2803 142.172C17.3436 142.199 17.4006 142.24 17.4473 142.294C17.494 142.347 17.5292 142.41 17.5505 142.48V142.576ZM10.2371 88.3296C10.2456 88.3999 10.2456 88.471 10.2371 88.5413V88.7145C10.1851 88.8436 10.0895 88.947 9.96929 89.0041C9.84907 89.0612 9.71313 89.0677 9.58861 89.0224C9.4681 88.9671 9.37249 88.8639 9.32204 88.7346C9.2716 88.6052 9.2703 88.46 9.31842 88.3296V88.1179C9.34383 88.0542 9.38089 87.9966 9.42745 87.9485C9.47402 87.9003 9.52912 87.8625 9.58954 87.8374C9.64996 87.8123 9.71448 87.8004 9.77928 87.8023C9.84408 87.8042 9.90787 87.8199 9.9669 87.8486C10.0518 87.8907 10.1229 87.9591 10.171 88.0448C10.2192 88.1306 10.2422 88.2298 10.2371 88.3296ZM3.39201 108.843C3.39201 108.843 3.39201 108.939 3.39201 108.997V109.208C3.35066 109.339 3.26418 109.447 3.15029 109.512C3.0364 109.576 2.90374 109.591 2.77956 109.555C2.71636 109.537 2.65725 109.506 2.60601 109.463C2.55477 109.42 2.51252 109.366 2.48199 109.304C2.45147 109.243 2.43335 109.175 2.42875 109.105C2.42416 109.036 2.43318 108.966 2.4553 108.9V108.689C2.49682 108.575 2.57325 108.48 2.67203 108.419C2.77082 108.357 2.88613 108.334 2.99912 108.352C3.1121 108.369 3.21604 108.428 3.29396 108.517C3.37188 108.606 3.41916 108.721 3.42804 108.843H3.39201ZM1.23041 130.241C1.23319 130.34 1.2092 130.439 1.16131 130.524C1.11341 130.609 1.04363 130.678 0.960218 130.722C0.839979 130.777 0.704784 130.782 0.581376 130.736C0.457968 130.689 0.355309 130.595 0.293705 130.472L0.203633 130.26C0.176836 130.197 0.162134 130.129 0.160342 130.06C0.158551 129.991 0.16972 129.922 0.193216 129.857C0.216711 129.793 0.252041 129.734 0.297141 129.684C0.342241 129.634 0.396211 129.595 0.455846 129.567C0.513306 129.535 0.576336 129.517 0.640993 129.512C0.705651 129.507 0.770522 129.517 0.831473 129.541C0.892424 129.564 0.948133 129.601 0.995098 129.649C1.04206 129.696 1.07924 129.754 1.1043 129.818L1.19437 130.01C1.224 130.083 1.23638 130.162 1.23041 130.241Z" fill="#69CBDE"/>
</svg>